{
copyright = "Copyright 2015 Mohamed Gaber (gaber@gaberism.net)Copyright 2015 Mohamed Gaber (gaber@gaberism.net)";
customParameters = (
{
name = licenseURL;
value = "http://scripts.sil.org/OFL";
},
{
name = description;
value = "Copyright 2015 Mohamed Gaber (gaber@gaberism.net)Copyright 2015 Mohamed Gaber (gaber@gaberism.net)";
},
{
name = license;
value = "Copyright 2015 Mohamed Gaber (gaber@gaberism.net)Copyright 2015 Mohamed Gaber (gaber@gaberism.net)\012\012This Font Software is licensed under the SIL Open Font License, Version 1.1. This license is copied below, and is also available with a FAQ at: http://scripts.sil.org/OFL";
},
{
name = openTypeOS2VendorID;
value = MONO;
},
{
name = glyphOrder;
value = (
    ".null",
    CR,
    space,
    exclam,
    quotedbl,
    numbersign,
    dollar,
    percent,
    ampersand,
    quotesingle,
    parenleft,
    parenright,
    asterisk,
    plus,
    comma,
    hyphen,
    period,
    slash,
    zero,
    one,
    two,
    three,
    four,
    five,
    six,
    seven,
    eight,
    nine,
    colon,
    semicolon,
    less,
    equal,
    greater,
    question,
    at,
    A,
    B,
    C,
    D,
    E,
    F,
    G,
    H,
    I,
    J,
    K,
    L,
    M,
    N,
    O,
    P,
    Q,
    R,
    S,
    T,
    U,
    V,
    W,
    X,
    Y,
    Z,
    bracketleft,
    backslash,
    bracketright,
    asciicircum,
    underscore,
    grave,
    a,
    b,
    c,
    d,
    e,
    f,
    g,
    h,
    i,
    j,
    k,
    l,
    m,
    n,
    o,
    p,
    q,
    r,
    s,
    t,
    u,
    v,
    w,
    x,
    y,
    z,
    braceleft,
    bar,
    braceright,
    asciitilde,
    uni00A0,
    exclamdown,
    cent,
    sterling,
    currency,
    yen,
    brokenbar,
    section,
    dieresis,
    copyright,
    ordfeminine,
    guillemotleft,
    logicalnot,
    uni00AD,
    registered,
    macron,
    degree,
    plusminus,
    twosuperior,
    threesuperior,
    acute,
    mu,
    paragraph,
    periodcentered,

glyphs = (
{
glyphname = exclam;
lastChange = "2015-09-23 01:10:40 +0000";
layers = (
{
layerId = UUID0;
name = Regular;
paths = (
{
closed = 1;
nodes = (
"169 155 LINE",
"189 660 LINE",
"56 660 LINE",
"75 155 LINE"
);
},
{
closed = 1;
nodes = (
"161 -14 OFFCURVE",
"183 11 OFFCURVE",
"183 47 CURVE SMOOTH",
"183 83 OFFCURVE",
"161 108 OFFCURVE",
"122 108 CURVE SMOOTH",
"83 108 OFFCURVE",
"61 83 OFFCURVE",
"61 47 CURVE SMOOTH",
"61 11 OFFCURVE",
"83 -14 OFFCURVE",
"122 -14 CURVE SMOOTH"
);
}
);
width = 245;
}
);
unicode = 0021;
},
{
glyphname = quotedbl;
lastChange = "2015-09-23 01:10:40 +0000";
layers = (
{
layerId = UUID0;
name = Regular;
paths = (
{
closed = 1;
nodes = (
"315 390 LINE",
"345 660 LINE",
"215 660 LINE",
"245 390 LINE"
);
},
{
closed = 1;
nodes = (
"145 390 LINE",
"175 660 LINE",
"45 660 LINE",
"75 390 LINE"
);
}
);
width = 390;
}
);
leftKerningGroup = quotedbl;
rightKerningGroup = quotedbl;
unicode = 0022;
},
{
glyphname = numbersign;
lastChange = "2015-09-23 01:10:39 +0000";
layers = (
{
layerId = UUID0;
name = Regular;
paths = (
{
closed = 1;
nodes = (
"215 0 LINE",
"251 172 LINE",
"378 172 LINE",
"342 0 LINE",
"441 0 LINE",
"477 172 LINE",
"609 172 LINE",
"609 237 LINE",
"491 237 LINE",
"527 413 LINE",
"669 413 LINE",
"669 478 LINE",
"541 478 LINE",
"582 675 LINE",
"483 675 LINE",
"442 478 LINE",
"315 478 LINE",
"356 675 LINE",
"257 675 LINE",
"216 478 LINE",
"89 478 LINE",
"89 413 LINE",
"202 413 LINE",
"165 237 LINE",
"29 237 LINE",
"29 172 LINE",
"152 172 LINE",
"116 0 LINE"
);
},
{
closed = 1;
nodes = (
"301 413 LINE",
"428 413 LINE",
"391 237 LINE",
"265 237 LINE"
);
}
);
width = 699;
}
);
unicode = 0023;
},
{
glyphname = dollar;
lastChange = "2015-09-23 01:10:40 +0000";
layers = (
{
layerId = UUID0;
name = Regular;
paths = (
{
closed = 1;
nodes = (
"305 -80 LINE",
"305 -16 LINE",
"442 -5 OFFCURVE",
"519 64 OFFCURVE",
"519 169 CURVE SMOOTH",
"519 242 OFFCURVE",
"479 288 OFFCURVE",
"388 341 CURVE SMOOTH",
"305 390 LINE",
"305 631 LINE",
"392 622 OFFCURVE",
"445 568 OFFCURVE",
"465 441 CURVE",
"493 441 LINE",
"493 558 LINE SMOOTH",
"493 623 OFFCURVE",
"401 668 OFFCURVE",
"305 676 CURVE",
"305 735 LINE",
"235 735 LINE",
"235 677 LINE",
"115 666 OFFCURVE",
"43 603 OFFCURVE",
"43 507 CURVE SMOOTH",
"43 434 OFFCURVE",
"76 381 OFFCURVE",
"167 328 CURVE SMOOTH",
"235 287 LINE",
"235 29 LINE",
"143 40 OFFCURVE",
"90 95 OFFCURVE",
"70 220 CURVE",
"42 220 LINE",
"42 103 LINE SMOOTH",
"42 34 OFFCURVE",
"135 -7 OFFCURVE",
"235 -15 CURVE",
"235 -80 LINE"
);
},
{
closed = 1;
nodes = (
"305 245 LINE",
"360 210 OFFCURVE",
"393 177 OFFCURVE",
"393 125 CURVE SMOOTH",
"393 73 OFFCURVE",
"358 42 OFFCURVE",
"305 31 CURVE"
);
},
{
closed = 1;
nodes = (
"188 463 OFFCURVE",
"161 488 OFFCURVE",
"161 536 CURVE SMOOTH",
"161 583 OFFCURVE",
"188 615 OFFCURVE",
"235 628 CURVE",
"235 432 LINE"
);
}
);
width = 550;
}
);
unicode = 0024;
},
{
glyphname = percent;
lastChange = "2015-09-23 01:10:40 +0000";
layers = (
{
layerId = UUID0;
name = Regular;
paths = (
{
closed = 1;
nodes = (
"189 0 LINE",
"673 660 LINE",
"567 660 LINE",
"83 0 LINE"
);
},
{
closed = 1;
nodes = (
"665 -5 OFFCURVE",
"726 45 OFFCURVE",
"726 133 CURVE SMOOTH",
"726 221 OFFCURVE",
"665 271 OFFCURVE",
"568 271 CURVE SMOOTH",
"468 271 OFFCURVE",
"408 221 OFFCURVE",
"408 133 CURVE SMOOTH",
"408 45 OFFCURVE",
"468 -5 OFFCURVE",
"568 -5 CURVE SMOOTH"
);
},
{
closed = 1;
nodes = (
"515 35 OFFCURVE",
"488 69 OFFCURVE",
"488 133 CURVE SMOOTH",
"488 197 OFFCURVE",
"515 231 OFFCURVE",
"566 231 CURVE SMOOTH",
"618 231 OFFCURVE",
"646 197 OFFCURVE",
"646 133 CURVE SMOOTH",
"646 69 OFFCURVE",
"619 35 OFFCURVE",
"567 35 CURVE SMOOTH"
);
},
{
closed = 1;
nodes = (
"287 389 OFFCURVE",
"348 439 OFFCURVE",
"348 527 CURVE SMOOTH",
"348 615 OFFCURVE",
"287 665 OFFCURVE",
"190 665 CURVE SMOOTH",
"90 665 OFFCURVE",
"30 615 OFFCURVE",
"30 527 CURVE SMOOTH",
"30 439 OFFCURVE",
"90 389 OFFCURVE",
"190 389 CURVE SMOOTH"
);
},
{
closed = 1;
nodes = (
"137 429 OFFCURVE",
"110 463 OFFCURVE",
"110 527 CURVE SMOOTH",
"110 591 OFFCURVE",
"137 625 OFFCURVE",
"188 625 CURVE SMOOTH",
"240 625 OFFCURVE",
"268 591 OFFCURVE",
"268 527 CURVE SMOOTH",
"268 463 OFFCURVE",
"241 429 OFFCURVE",
"189 429 CURVE SMOOTH"
);
}
);
width = 755;
}
);
unicode = 0025;
},
{
glyphname = ampersand;
lastChange = "2015-09-23 01:10:40 +0000";
layers = (
{
layerId = UUID0;
name = Regular;
paths = (
{
closed = 1;
nodes = (
"379 -20 OFFCURVE",
"452 38 OFFCURVE",
"451 38 CURVE",
"489 0 LINE",
"625 0 LINE",
"528 103 LINE",
"557 135 OFFCURVE",
"579 168 OFFCURVE",
"594 193 CURVE SMOOTH",
"603 208 OFFCURVE",
"610 222 OFFCURVE",
"616 236 CURVE",
"578 261 LINE",
"571 248 OFFCURVE",
"563 234 OFFCURVE",
"554 221 CURVE SMOOTH",
"539 198 OFFCURVE",
"518 167 OFFCURVE",
"494 140 CURVE",
"309 340 LINE",
"391 393 OFFCURVE",
"464 458 OFFCURVE",
"464 540 CURVE SMOOTH",
"464 623 OFFCURVE",
"400 680 OFFCURVE",
"279 680 CURVE SMOOTH",
"154 680 OFFCURVE",
"79 623 OFFCURVE",
"79 524 CURVE SMOOTH",
"79 430 OFFCURVE",
"171 343 OFFCURVE",
"190 326 CURVE",
"103 281 OFFCURVE",
"32 224 OFFCURVE",
"32 135 CURVE SMOOTH",
"32 51 OFFCURVE",
"94 -20 OFFCURVE",
"279 -20 CURVE SMOOTH"
);
},
{
closed = 1;
nodes = (
"204 20 OFFCURVE",
"162 69 OFFCURVE",
"162 145 CURVE SMOOTH",
"162 201 OFFCURVE",
"194 246 OFFCURVE",
"230 278 CURVE",
"298 203 OFFCURVE",
"353 147 OFFCURVE",
"421 72 CURVE",
"410 62 OFFCURVE",
"398 53 OFFCURVE",
"385 46 CURVE SMOOTH",
"362 33 OFFCURVE",
"328 20 OFFCURVE",
"288 20 CURVE SMOOTH"
);
},
{
closed = 1;
nodes = (
"248 405 OFFCURVE",
"209 451 OFFCURVE",
"209 524 CURVE SMOOTH",
"209 613 OFFCURVE",
"234 640 OFFCURVE",
"279 640 CURVE SMOOTH",
"308 640 OFFCURVE",
"344 613 OFFCURVE",
"344 530 CURVE SMOOTH",
"344 465 OFFCURVE",
"315 420 OFFCURVE",
"272 381 CURVE"
);
}
);
width = 636;
}
);
unicode = 0026;
},
{
glyphname = quotesingle;
lastChange = "2015-09-23 01:10:39 +0000";
layers = (
{
layerId = UUID0;
name = Regular;
paths = (
{
closed = 1;
nodes = (
"145 390 LINE",
"175 660 LINE",
"45 660 LINE",
"75 390 LINE"
);
}
);
width = 220;
}
);
leftKerningGroup = quotedbl;
rightKerningGroup = quotedbl;
unicode = 0027;
},
{
glyphname = parenleft;
lastChange = "2015-09-23 01:10:40 +0000";
layers = (
{
layerId = UUID0;
name = Regular;
paths = (
{
closed = 1;
nodes = (
"311 -200 LINE",
"194 -96 OFFCURVE",
"154 61 OFFCURVE",
"154 240 CURVE SMOOTH",
"154 419 OFFCURVE",
"194 576 OFFCURVE",
"311 680 CURVE",
"297 700 LINE",
"118 579 OFFCURVE",
"24 431 OFFCURVE",
"24 240 CURVE SMOOTH",
"24 49 OFFCURVE",
"118 -99 OFFCURVE",
"297 -220 CURVE"
);
}
);
width = 320;
}
);
unicode = 0028;
},
{
glyphname = parenright;
lastChange = "2015-09-23 01:10:40 +0000";
layers = (
{
layerId = UUID0;
name = Regular;
paths = (
{
closed = 1;
nodes = (
"203 -99 OFFCURVE",
"297 49 OFFCURVE",
"297 240 CURVE SMOOTH",
"297 431 OFFCURVE",
"203 579 OFFCURVE",
"24 700 CURVE",
"10 680 LINE",
"127 576 OFFCURVE",
"167 419 OFFCURVE",
"167 240 CURVE SMOOTH",
"167 61 OFFCURVE",
"127 -96 OFFCURVE",
"10 -200 CURVE",
"24 -220 LINE"
);
}
);
width = 321;
}
);
unicode = 0029;
},
{
glyphname = asterisk;
lastChange = "2015-09-23 01:10:40 +0000";
layers = (
{
layerId = UUID0;
name = Regular;
paths = (
{
closed = 1;
nodes = (
"273 324 LINE",
"248 446 LINE",
"347 356 LINE",
"396 442 LINE",
"252 492 LINE",
"396 542 LINE",
"347 628 LINE",
"249 539 LINE",
"273 660 LINE",
"161 660 LINE",
"185 539 LINE",
"87 628 LINE",
"38 542 LINE",
"182 492 LINE",
"38 442 LINE",
"87 356 LINE",
"185 445 LINE",
"161 324 LINE"
);
}
);
width = 434;
}
);
unicode = 002A;
},
{
glyphname = plus;
lastChange = "2015-09-23 01:10:40 +0000";
layers = (
{
layerId = UUID0;
name = Regular;
paths = (
{
closed = 1;
nodes = (
"318 100 LINE",
"318 295 LINE",
"515 295 LINE",
"515 365 LINE",
"318 365 LINE",
"318 560 LINE",
"228 560 LINE",
"228 365 LINE",
"31 365 LINE",
"31 295 LINE",
"228 295 LINE",
"228 100 LINE"
);
}
);
width = 546;
}
);
unicode = 002B;
},
{
glyphname = comma;
lastChange = "2015-09-23 01:10:40 +0000";
layers = (
{
layerId = UUID0;
name = Regular;
paths = (
{
closed = 1;
nodes = (
"148 -104 OFFCURVE",
"178 -46 OFFCURVE",
"178 30 CURVE SMOOTH",
"178 70 OFFCURVE",
"156 108 OFFCURVE",
"112 108 CURVE SMOOTH",
"73 108 OFFCURVE",
"51 83 OFFCURVE",
"51 47 CURVE SMOOTH",
"51 11 OFFCURVE",
"73 -14 OFFCURVE",
"112 -14 CURVE",
"127 -11 LINE",
"127 -71 OFFCURVE",
"78 -114 OFFCURVE",
"45 -136 CURVE",
"63 -160 LINE"
);
}
);
width = 228;
}
);
leftKerningGroup = quotedblbase;
rightKerningGroup = quotedblbase;
unicode = 002C;
},
{
glyphname = hyphen;
lastChange = "2015-09-23 01:10:40 +0000";
layers = (
{
layerId = UUID0;
name = Regular;
paths = (
{
closed = 1;
nodes = (
"337 217 LINE",
"337 312 LINE",
"58 312 LINE",
"58 217 LINE"
);
}
);
width = 395;
}
);
leftKerningGroup = emdash;
rightKerningGroup = emdash;
unicode = 002D;
},
{
glyphname = period;
lastChange = "2015-09-23 01:10:40 +0000";
layers = (
{
layerId = UUID0;
name = Regular;
paths = (
{
closed = 1;
nodes = (
"151 -14 OFFCURVE",
"173 11 OFFCURVE",
"173 47 CURVE SMOOTH",
"173 83 OFFCURVE",
"151 108 OFFCURVE",
"112 108 CURVE SMOOTH",
"73 108 OFFCURVE",
"51 83 OFFCURVE",
"51 47 CURVE SMOOTH",
"51 11 OFFCURVE",
"73 -14 OFFCURVE",
"112 -14 CURVE SMOOTH"
);
}
);
width = 224;
}
);
leftKerningGroup = quotedblbase;
rightKerningGroup = quotedblbase;
unicode = 002E;
},
{
glyphname = slash;
lastChange = "2015-09-23 01:10:39 +0000";
layers = (
{
layerId = UUID0;
name = Regular;
paths = (
{
closed = 1;
nodes = (
"133 0 LINE",
"454 660 LINE",
"342 660 LINE",
"21 0 LINE"
);
}
);
width = 475;
}
);
unicode = 002F;
},
{
glyphname = zero;
lastChange = "2015-09-23 01:10:40 +0000";
layers = (
{
layerId = UUID0;
name = Regular;
paths = (
{
closed = 1;
nodes = (
"494 -20 OFFCURVE",
"563 122 OFFCURVE",
"563 330 CURVE SMOOTH",
"563 538 OFFCURVE",
"494 680 OFFCURVE",
"303 680 CURVE SMOOTH",
"112 680 OFFCURVE",
"43 538 OFFCURVE",
"43 330 CURVE SMOOTH",
"43 122 OFFCURVE",
"112 -20 OFFCURVE",
"303 -20 CURVE SMOOTH"
);
},
{
closed = 1;
nodes = (
"219 25 OFFCURVE",
"183 119 OFFCURVE",
"183 330 CURVE SMOOTH",
"183 541 OFFCURVE",
"219 635 OFFCURVE",
"303 635 CURVE SMOOTH",
"387 635 OFFCURVE",
"423 541 OFFCURVE",
"423 330 CURVE SMOOTH",
"423 119 OFFCURVE",
"387 25 OFFCURVE",
"303 25 CURVE SMOOTH"
);
}
);
width = 606;
}
);
unicode = 0030;
},
{
glyphname = one;
lastChange = "2015-09-23 01:10:40 +0000";
layers = (
{
layerId = UUID0;
name = Regular;
paths = (
{
closed = 1;
nodes = (
"249 0 LINE",
"249 660 LINE",
"162 660 LINE",
"8 517 LINE",
"32 486 LINE",
"119 542 LINE",
"119 0 LINE"
);
}
);
width = 323;
}
);
unicode = 0031;
},
{
glyphname = two;
lastChange = "2015-09-23 01:10:40 +0000";
layers = (
{
layerId = UUID0;
name = Regular;
paths = (
{
closed = 1;
nodes = (
"405 0 LINE SMOOTH",
"474 0 OFFCURVE",
"490 40 OFFCURVE",
"490 80 CURVE SMOOTH",
"490 155 LINE",
"460 155 LINE",
"460 84 OFFCURVE",
"415 45 OFFCURVE",
"335 45 CURVE SMOOTH",
"128 45 LINE",
"192 109 OFFCURVE",
"490 300 OFFCURVE",
"490 487 CURVE SMOOTH",
"490 651 OFFCURVE",
"352 680 OFFCURVE",
"260 680 CURVE SMOOTH",
"176 680 OFFCURVE",
"101 644 OFFCURVE",
"65 600 CURVE SMOOTH",
"41 569 OFFCURVE",
"41 511 OFFCURVE",
"41 460 CURVE",
"76 460 LINE",
"96 581 OFFCURVE",
"156 635 OFFCURVE",
"240 635 CURVE SMOOTH",
"296 635 OFFCURVE",
"350 591 OFFCURVE",
"350 487 CURVE SMOOTH",
"350 335 OFFCURVE",
"126 150 OFFCURVE",
"41 65 CURVE",
"41 0 LINE"
);
}
);
width = 539;
}
);
unicode = 0032;
},
{
glyphname = three;
lastChange = "2015-09-23 01:10:40 +0000";
layers = (
{
layerId = UUID0;
name = Regular;
paths = (
{
closed = 1;
nodes = (
"353 -20 OFFCURVE",
"512 17 OFFCURVE",
"512 185 CURVE SMOOTH",
"512 333 OFFCURVE",
"383 385 OFFCURVE",
"292 385 CURVE SMOOTH",
"268 385 OFFCURVE",
"229 382 OFFCURVE",
"228 381 CURVE SMOOTH",
"477 615 LINE",
"477 660 LINE",
"139 660 LINE SMOOTH",
"70 660 OFFCURVE",
"54 620 OFFCURVE",
"54 580 CURVE SMOOTH",
"54 505 LINE",
"84 505 LINE",
"84 576 OFFCURVE",
"129 615 OFFCURVE",
"209 615 CURVE SMOOTH",
"388 615 LINE",
"115 359 LINE",
"139 321 LINE",
"169 330 LINE SMOOTH",
"188 335 OFFCURVE",
"213 340 OFFCURVE",
"244 340 CURVE SMOOTH",
"314 340 OFFCURVE",
"372 293 OFFCURVE",
"372 185 CURVE SMOOTH",
"372 72 OFFCURVE",
"310 25 OFFCURVE",
"233 25 CURVE SMOOTH",
"176 25 OFFCURVE",
"111 54 OFFCURVE",
"55 117 CURVE",
"27 88 LINE",
"83 23 OFFCURVE",
"148 -20 OFFCURVE",
"277 -20 CURVE SMOOTH"
);
}
);
width = 543;
}
);
unicode = 0033;
},
{
glyphname = four;
lastChange = "2015-09-23 01:10:40 +0000";
layers = (
{
layerId = UUID0;
name = Regular;
paths = (
{
closed = 1;
nodes = (
"459 0 LINE",
"459 170 LINE",
"549 170 LINE",
"549 215 LINE",
"459 215 LINE",
"459 660 LINE",
"355 660 LINE",
"9 210 LINE",
"9 170 LINE",
"329 170 LINE",
"329 0 LINE"
);
},
{
closed = 1;
nodes = (
"329 543 LINE",
"329 215 LINE",
"78 215 LINE"
);
}
);
width = 572;
}
);
unicode = 0034;
},
{
glyphname = five;
lastChange = "2015-09-23 01:10:39 +0000";
layers = (
{
layerId = UUID0;
name = Regular;
paths = (
{
closed = 1;
nodes = (
"360 -20 OFFCURVE",
"520 22 OFFCURVE",
"520 190 CURVE SMOOTH",
"520 348 OFFCURVE",
"367 390 OFFCURVE",
"262 390 CURVE SMOOTH",
"243 390 OFFCURVE",
"222 388 OFFCURVE",
"205 387 CURVE SMOOTH",
"175 385 LINE",
"184 616 LINE",
"457 616 LINE",
"457 660 LINE",
"68 660 LINE",
"57 360 LINE",
"97 321 LINE",
"111 325 OFFCURVE",
"125 329 OFFCURVE",
"139 332 CURVE",
"163 339 OFFCURVE",
"194 344 OFFCURVE",
"222 344 CURVE SMOOTH",
"322 344 OFFCURVE",
"380 294 OFFCURVE",
"380 190 CURVE SMOOTH",
"380 72 OFFCURVE",
"319 25 OFFCURVE",
"242 25 CURVE SMOOTH",
"185 25 OFFCURVE",
"117 51 OFFCURVE",
"66 114 CURVE",
"37 88 LINE",
"93 21 OFFCURVE",
"155 -20 OFFCURVE",
"265 -20 CURVE SMOOTH"
);
}
);
width = 546;
}
);
unicode = 0035;
},
{
glyphname = six;
lastChange = "2015-09-23 01:10:40 +0000";
layers = (
{
layerId = UUID0;
name = Regular;
paths = (
{
closed = 1;
nodes = (
"449 -20 OFFCURVE",
"529 88 OFFCURVE",
"529 205 CURVE SMOOTH",
"529 341 OFFCURVE",
"475 433 OFFCURVE",
"319 433 CURVE SMOOTH",
"276 433 OFFCURVE",
"241 421 OFFCURVE",
"217 409 CURVE SMOOTH",
"203 402 OFFCURVE",
"190 394 OFFCURVE",
"179 385 CURVE",
"179 556 OFFCURVE",
"244 635 OFFCURVE",
"344 635 CURVE SMOOTH",
"372 635 OFFCURVE",
"405 630 OFFCURVE",
"432 626 CURVE SMOOTH",
"478 618 LINE",
"484 646 LINE",
"471 652 OFFCURVE",
"455 658 OFFCURVE",
"438 663 CURVE SMOOTH",
"409 671 OFFCURVE",
"369 680 OFFCURVE",
"324 680 CURVE SMOOTH",
"139 680 OFFCURVE",
"44 571 OFFCURVE",
"44 330 CURVE SMOOTH",
"44 98 OFFCURVE",
"127 -20 OFFCURVE",
"294 -20 CURVE SMOOTH"
);
},
{
closed = 1;
nodes = (
"224 25 OFFCURVE",
"179 115 OFFCURVE",
"179 337 CURVE SMOOTH",
"179 340 OFFCURVE",
"228 388 OFFCURVE",
"289 388 CURVE SMOOTH",
"365 388 OFFCURVE",
"394 324 OFFCURVE",
"394 205 CURVE SMOOTH",
"394 107 OFFCURVE",
"359 25 OFFCURVE",
"294 25 CURVE SMOOTH"
);
}
);
width = 560;
}
);
unicode = 0036;
},
{
glyphname = seven;
lastChange = "2015-09-23 01:10:40 +0000";
layers = (
{
layerId = UUID0;
name = Regular;
paths = (
{
closed = 1;
nodes = (
"217 0 LINE",
"467 615 LINE",
"467 660 LINE",
"106 660 LINE SMOOTH",
"37 660 OFFCURVE",
"21 620 OFFCURVE",
"21 580 CURVE SMOOTH",
"21 505 LINE",
"51 505 LINE",
"51 576 OFFCURVE",
"96 615 OFFCURVE",
"176 615 CURVE SMOOTH",
"346 615 LINE",
"96 0 LINE"
);
}
);
width = 473;
}
);
unicode = 0037;
},
{
glyphname = eight;
lastChange = "2015-09-23 01:10:40 +0000";
layers = (
{
layerId = UUID0;
name = Regular;
paths = (
{
closed = 1;
nodes = (
"428 -20 OFFCURVE",
"539 30 OFFCURVE",
"539 162 CURVE SMOOTH",
"539 261 OFFCURVE",
"462 313 OFFCURVE",
"379 358 CURVE",
"454 390 OFFCURVE",
"514 441 OFFCURVE",
"514 518 CURVE SMOOTH",
"514 641 OFFCURVE",
"413 680 OFFCURVE",
"289 680 CURVE SMOOTH",
"166 680 OFFCURVE",
"64 640 OFFCURVE",
"64 508 CURVE SMOOTH",
"64 422 OFFCURVE",
"128 378 OFFCURVE",
"206 335 CURVE",
"119 298 OFFCURVE",
"39 247 OFFCURVE",
"39 152 CURVE SMOOTH",
"39 29 OFFCURVE",
"153 -20 OFFCURVE",
"289 -20 CURVE SMOOTH"
);
},
{
closed = 1;
nodes = (
"221 25 OFFCURVE",
"174 64 OFFCURVE",
"174 152 CURVE SMOOTH",
"174 243 OFFCURVE",
"208 284 OFFCURVE",
"259 311 CURVE",
"337 270 OFFCURVE",
"404 224 OFFCURVE",
"404 142 CURVE SMOOTH",
"404 65 OFFCURVE",
"357 25 OFFCURVE",
"289 25 CURVE SMOOTH"
);
},
{
closed = 1;
nodes = (
"258 416 OFFCURVE",
"199 466 OFFCURVE",
"199 528 CURVE SMOOTH",
"199 611 OFFCURVE",
"251 635 OFFCURVE",
"289 635 CURVE SMOOTH",
"327 635 OFFCURVE",
"379 610 OFFCURVE",
"379 518 CURVE SMOOTH",
"379 445 OFFCURVE",
"362 411 OFFCURVE",
"327 384 CURVE"
);
}
);
width = 578;
}
);
unicode = 0038;
},
{
glyphname = nine;
lastChange = "2015-09-23 01:10:39 +0000";
layers = (
{
layerId = UUID0;
name = Regular;
paths = (
{
closed = 1;
nodes = (
"421 -20 OFFCURVE",
"516 87 OFFCURVE",
"516 330 CURVE SMOOTH",
"516 562 OFFCURVE",
"433 680 OFFCURVE",
"266 680 CURVE SMOOTH",
"111 680 OFFCURVE",
"31 572 OFFCURVE",
"31 455 CURVE SMOOTH",
"31 319 OFFCURVE",
"85 227 OFFCURVE",
"241 227 CURVE SMOOTH",
"284 227 OFFCURVE",
"319 239 OFFCURVE",
"343 251 CURVE SMOOTH",
"357 258 OFFCURVE",
"370 266 OFFCURVE",
"381 275 CURVE",
"381 104 OFFCURVE",
"316 25 OFFCURVE",
"216 25 CURVE SMOOTH",
"187 25 OFFCURVE",
"155 29 OFFCURVE",
"128 33 CURVE",
"82 42 LINE",
"76 14 LINE",
"89 7 OFFCURVE",
"105 2 OFFCURVE",
"122 -3 CURVE SMOOTH",
"151 -12 OFFCURVE",
"189 -20 OFFCURVE",
"236 -20 CURVE SMOOTH"
);
},
{
closed = 1;
nodes = (
"195 272 OFFCURVE",
"166 336 OFFCURVE",
"166 455 CURVE SMOOTH",
"166 553 OFFCURVE",
"201 635 OFFCURVE",
"266 635 CURVE SMOOTH",
"336 635 OFFCURVE",
"381 545 OFFCURVE",
"381 323 CURVE SMOOTH",
"381 320 OFFCURVE",
"330 272 OFFCURVE",
"271 272 CURVE SMOOTH"
);
}
);
width = 560;
}
);
unicode = 0039;
},
{
glyphname = colon;
lastChange = "2015-09-23 01:10:40 +0000";
layers = (
{
layerId = UUID0;
name = Regular;
paths = (
{
closed = 1;
nodes = (
"158 339 OFFCURVE",
"180 364 OFFCURVE",
"180 400 CURVE SMOOTH",
"180 436 OFFCURVE",
"158 461 OFFCURVE",
"119 461 CURVE SMOOTH",
"80 461 OFFCURVE",
"58 436 OFFCURVE",
"58 400 CURVE SMOOTH",
"58 364 OFFCURVE",
"80 339 OFFCURVE",
"119 339 CURVE SMOOTH"
);
},
{
closed = 1;
nodes = (
"158 -14 OFFCURVE",
"180 11 OFFCURVE",
"180 47 CURVE SMOOTH",
"180 83 OFFCURVE",
"158 108 OFFCURVE",
"119 108 CURVE SMOOTH",
"80 108 OFFCURVE",
"58 83 OFFCURVE",
"58 47 CURVE SMOOTH",
"58 11 OFFCURVE",
"80 -14 OFFCURVE",
"119 -14 CURVE SMOOTH"
);
}
);
width = 238;
}
);
unicode = 003A;
},
{
glyphname = semicolon;
lastChange = "2015-09-23 01:10:39 +0000";
layers = (
{
layerId = UUID0;
name = Regular;
paths = (
{
closed = 1;
nodes = (
"160 -104 OFFCURVE",
"190 -46 OFFCURVE",
"190 30 CURVE SMOOTH",
"190 70 OFFCURVE",
"168 108 OFFCURVE",
"124 108 CURVE SMOOTH",
"85 108 OFFCURVE",
"63 83 OFFCURVE",
"63 47 CURVE SMOOTH",
"63 11 OFFCURVE",
"85 -14 OFFCURVE",
"124 -14 CURVE",
"139 -11 LINE",
"139 -71 OFFCURVE",
"90 -114 OFFCURVE",
"57 -136 CURVE",
"75 -160 LINE"
);
},
{
closed = 1;
nodes = (
"163 339 OFFCURVE",
"185 364 OFFCURVE",
"185 400 CURVE SMOOTH",
"185 436 OFFCURVE",
"163 461 OFFCURVE",
"124 461 CURVE SMOOTH",
"85 461 OFFCURVE",
"63 436 OFFCURVE",
"63 400 CURVE SMOOTH",
"63 364 OFFCURVE",
"85 339 OFFCURVE",
"124 339 CURVE SMOOTH"
);
}
);
width = 249;
}
);
unicode = 003B;
},
{
glyphname = less;
lastChange = "2015-09-23 01:10:40 +0000";
layers = (
{
layerId = UUID0;
name = Regular;
paths = (
{
closed = 1;
nodes = (
"549 165 LINE",
"157 335 LINE",
"549 505 LINE",
"549 596 LINE",
"29 370 LINE",
"29 300 LINE",
"549 74 LINE"
);
}
);
width = 610;
}
);
unicode = 003C;
},
{
glyphname = equal;
lastChange = "2015-09-23 01:10:39 +0000";
layers = (
{
layerId = UUID0;
name = Regular;
paths = (
{
closed = 1;
nodes = (
"607 385 LINE",
"607 455 LINE",
"58 455 LINE",
"58 385 LINE"
);
},
{
closed = 1;
nodes = (
"607 205 LINE",
"607 275 LINE",
"58 275 LINE",
"58 205 LINE"
);
}
);
width = 665;
}
);
unicode = 003D;
},
{
glyphname = greater;
lastChange = "2015-09-23 01:10:40 +0000";
layers = (
{
layerId = UUID0;
name = Regular;
paths = (
{
closed = 1;
nodes = (
"581 300 LINE",
"581 370 LINE",
"61 596 LINE",
"61 505 LINE",
"453 335 LINE",
"61 165 LINE",
"61 74 LINE"
);
}
);
width = 610;
}
);
unicode = 003E;
},
{
glyphname = question;
lastChange = "2015-09-23 01:10:40 +0000";
layers = (
{
layerId = UUID0;
name = Regular;
paths = (
{
closed = 1;
nodes = (
"270 156 LINE",
"282 298 OFFCURVE",
"469 320 OFFCURVE",
"469 487 CURVE SMOOTH",
"469 610 OFFCURVE",
"377 680 OFFCURVE",
"255 680 CURVE SMOOTH",
"172 680 OFFCURVE",
"92 641 OFFCURVE",
"55 599 CURVE",
"28 564 OFFCURVE",
"29 506 OFFCURVE",
"29 447 CURVE",
"59 447 LINE",
"84 582 OFFCURVE",
"146 635 OFFCURVE",
"225 635 CURVE SMOOTH",
"285 635 OFFCURVE",
"329 600 OFFCURVE",
"329 487 CURVE SMOOTH",
"329 338 OFFCURVE",
"210 304 OFFCURVE",
"202 156 CURVE"
);
},
{
closed = 1;
nodes = (
"275 -14 OFFCURVE",
"297 11 OFFCURVE",
"297 47 CURVE SMOOTH",
"297 83 OFFCURVE",
"275 108 OFFCURVE",
"236 108 CURVE SMOOTH",
"197 108 OFFCURVE",
"175 83 OFFCURVE",
"175 47 CURVE SMOOTH",
"175 11 OFFCURVE",
"197 -14 OFFCURVE",
"236 -14 CURVE SMOOTH"
);
}
);
width = 498;
}
);
unicode = 003F;
},
{
glyphname = at;
lastChange = "2015-09-23 01:10:39 +0000";
layers = (
{
layerId = UUID0;
name = Regular;
paths = (
{
closed = 1;
nodes = (
"591 -180 OFFCURVE",
"699 -139 OFFCURVE",
"783 -80 CURVE",
"757 -40 LINE",
"669 -101 OFFCURVE",
"567 -135 OFFCURVE",
"440 -135 CURVE SMOOTH",
"239 -135 OFFCURVE",
"104 -8 OFFCURVE",
"104 250 CURVE SMOOTH",
"104 508 OFFCURVE",
"239 635 OFFCURVE",
"440 635 CURVE SMOOTH",
"641 635 OFFCURVE",
"776 508 OFFCURVE",
"776 270 CURVE SMOOTH",
"776 100 OFFCURVE",
"737 51 OFFCURVE",
"675 51 CURVE SMOOTH",
"647 51 OFFCURVE",
"635 73 OFFCURVE",
"635 102 CURVE SMOOTH",
"635 285 LINE SMOOTH",
"635 426 OFFCURVE",
"562 495 OFFCURVE",
"434 495 CURVE SMOOTH",
"374 495 OFFCURVE",
"315 485 OFFCURVE",
"295 465 CURVE SMOOTH",
"271 441 OFFCURVE",
"259 406 OFFCURVE",
"259 360 CURVE",
"314 360 LINE",
"329 425 OFFCURVE",
"369 450 OFFCURVE",
"414 450 CURVE SMOOTH",
"469 450 OFFCURVE",
"505 419 OFFCURVE",
"505 288 CURVE",
"490 288 LINE SMOOTH",
"275 288 OFFCURVE",
"220 230 OFFCURVE",
"220 140 CURVE SMOOTH",
"220 60 OFFCURVE",
"279 5 OFFCURVE",
"390 5 CURVE SMOOTH",
"433 5 OFFCURVE",
"460 17 OFFCURVE",
"479 32 CURVE SMOOTH",
"490 40 OFFCURVE",
"498 49 OFFCURVE",
"505 60 CURVE",
"510 60 LINE",
"534 7 OFFCURVE",
"601 5 OFFCURVE",
"635 5 CURVE SMOOTH",
"780 5 OFFCURVE",
"846 95 OFFCURVE",
"846 270 CURVE SMOOTH",
"846 532 OFFCURVE",
"679 680 OFFCURVE",
"440 680 CURVE SMOOTH",
"201 680 OFFCURVE",
"34 533 OFFCURVE",
"34 250 CURVE SMOOTH",
"34 -33 OFFCURVE",
"201 -180 OFFCURVE",
"440 -180 CURVE SMOOTH"
);
},
{
closed = 1;
nodes = (
"373 55 OFFCURVE",
"350 83 OFFCURVE",
"350 140 CURVE SMOOTH",
"350 210 OFFCURVE",
"381 242 OFFCURVE",
"490 242 CURVE SMOOTH",
"505 242 LINE",
"505 120 LINE",
"500 107 OFFCURVE",
"493 96 OFFCURVE",
"485 87 CURVE SMOOTH",
"470 71 OFFCURVE",
"451 55 OFFCURVE",
"420 55 CURVE SMOOTH"
);
}
);
width = 877;
}
);
unicode = 0040;
},
{
glyphname = A;
lastChange = "2015-09-23 01:10:40 +0000";
layers = (
{
layerId = UUID0;
name = Regular;
paths = (
{
closed = 1;
nodes = (
"643 -4 OFFCURVE",
"665 -2 OFFCURVE",
"676 1 CURVE",
"676 26 LINE",
"631 31 OFFCURVE",
"596 67 OFFCURVE",
"572 126 CURVE SMOOTH",
"348 660 LINE",
"303 660 LINE",
"8 0 LINE",
"60 0 LINE",
"142 182 LINE",
"408 182 LINE",
"431 126 LINE SMOOTH",
"479 12 OFFCURVE",
"562 -4 OFFCURVE",
"628 -4 CURVE SMOOTH"
);
},
{
closed = 1;
nodes = (
"279 488 LINE",
"389 227 LINE",
"163 227 LINE"
);
}
);
width = 647;
}
);
leftKerningGroup = A;
rightKerningGroup = A;
unicode = 0041;
},
{
glyphname = B;
lastChange = "2015-09-23 01:10:40 +0000";
layers = (
{
layerId = UUID0;
name = Regular;
paths = (
{
closed = 1;
nodes = (
"315 0 LINE SMOOTH",
"457 0 OFFCURVE",
"610 30 OFFCURVE",
"610 183 CURVE SMOOTH",
"610 260 OFFCURVE",
"572 328 OFFCURVE",
"441 341 CURVE",
"534 365 OFFCURVE",
"580 428 OFFCURVE",
"580 485 CURVE SMOOTH",
"580 643 OFFCURVE",
"410 660 OFFCURVE",
"285 660 CURVE SMOOTH",
"15 660 LINE",
"15 630 LINE",
"25 630 LINE SMOOTH",
"85 630 OFFCURVE",
"95 590 OFFCURVE",
"95 530 CURVE SMOOTH",
"95 0 LINE"
);
},
{
closed = 1;
nodes = (
"275 40 OFFCURVE",
"258 42 OFFCURVE",
"245 45 CURVE SMOOTH",
"238 46 OFFCURVE",
"231 48 OFFCURVE",
"225 50 CURVE",
"225 316 LINE",
"300 316 LINE SMOOTH",
"413 316 OFFCURVE",
"470 270 OFFCURVE",
"470 178 CURVE SMOOTH",
"470 90 OFFCURVE",
"411 40 OFFCURVE",
"300 40 CURVE SMOOTH",
"295 40 LINE SMOOTH"
);
},
{
closed = 1;
nodes = (
"225 613 LINE",
"243 616 LINE",
"254 619 OFFCURVE",
"269 620 OFFCURVE",
"285 620 CURVE SMOOTH",
"362 620 OFFCURVE",
"440 589 OFFCURVE",
"440 490 CURVE SMOOTH",
"440 395 OFFCURVE",
"381 361 OFFCURVE",
"300 361 CURVE SMOOTH",
"225 361 LINE"
);
}
);
width = 644;
}
);
leftKerningGroup = B;
unicode = 0042;
},
{
glyphname = C;
lastChange = "2015-09-23 01:10:40 +0000";
layers = (
{
layerId = UUID0;
name = Regular;
paths = (
{
closed = 1;
nodes = (
"507 -20 OFFCURVE",
"592 30 OFFCURVE",
"655 141 CURVE",
"620 168 LINE",
"572 75 OFFCURVE",
"489 25 OFFCURVE",
"397 25 CURVE SMOOTH",
"238 25 OFFCURVE",
"177 167 OFFCURVE",
"177 320 CURVE SMOOTH",
"177 563 OFFCURVE",
"274 635 OFFCURVE",
"397 635 CURVE SMOOTH",
"508 635 OFFCURVE",
"575 568 OFFCURVE",
"600 447 CURVE",
"630 447 LINE",
"630 506 OFFCURVE",
"631 564 OFFCURVE",
"604 599 CURVE",
"567 642 OFFCURVE",
"492 680 OFFCURVE",
"367 680 CURVE SMOOTH",
"178 680 OFFCURVE",
"37 522 OFFCURVE",
"37 320 CURVE SMOOTH",
"37 128 OFFCURVE",
"156 -20 OFFCURVE",
"367 -20 CURVE SMOOTH"
);
}
);
width = 679;
}
);
leftKerningGroup = C;
rightKerningGroup = C;
unicode = 0043;
},
{
glyphname = D;
lastChange = "2015-09-23 01:10:40 +0000";
layers = (
{
layerId = UUID0;
name = Regular;
paths = (
{
closed = 1;
nodes = (
"313 0 LINE SMOOTH",
"565 0 OFFCURVE",
"700 137 OFFCURVE",
"700 334 CURVE SMOOTH",
"700 537 OFFCURVE",
"561 660 OFFCURVE",
"287 660 CURVE SMOOTH",
"15 660 LINE",
"15 630 LINE",
"25 630 LINE SMOOTH",
"85 630 OFFCURVE",
"95 590 OFFCURVE",
"95 530 CURVE SMOOTH",
"95 0 LINE"
);
},
{
closed = 1;
nodes = (
"279 40 OFFCURVE",
"261 41 OFFCURVE",
"247 43 CURVE SMOOTH",
"225 47 LINE",
"225 613 LINE",
"247 616 LINE SMOOTH",
"262 619 OFFCURVE",
"280 620 OFFCURVE",
"300 620 CURVE SMOOTH",
"308 620 LINE SMOOTH",
"452 620 OFFCURVE",
"550 506 OFFCURVE",
"550 330 CURVE SMOOTH",
"550 150 OFFCURVE",
"449 40 OFFCURVE",
"310 40 CURVE SMOOTH",
"300 40 LINE SMOOTH"
);
}
);
width = 736;
}
);
leftKerningGroup = B;
rightKerningGroup = D;
unicode = 0044;
},
{
glyphname = E;
lastChange = "2015-09-23 01:10:39 +0000";
layers = (
{
layerId = UUID0;
name = Regular;
paths = (
{
closed = 1;
nodes = (
"465 0 LINE SMOOTH",
"520 0 OFFCURVE",
"537 27 OFFCURVE",
"552 70 CURVE SMOOTH",
"581 149 LINE",
"554 159 LINE",
"519 72 OFFCURVE",
"469 45 OFFCURVE",
"396 45 CURVE SMOOTH",
"225 45 LINE",
"225 320 LINE",
"485 320 LINE",
"485 365 LINE",
"225 365 LINE",
"225 615 LINE",
"386 615 LINE SMOOTH",
"466 615 OFFCURVE",
"511 580 OFFCURVE",
"511 495 CURVE",
"541 495 LINE",
"541 580 LINE SMOOTH",
"541 620 OFFCURVE",
"525 660 OFFCURVE",
"456 660 CURVE SMOOTH",
"15 660 LINE",
"15 630 LINE",
"25 630 LINE SMOOTH",
"85 630 OFFCURVE",
"95 590 OFFCURVE",
"95 530 CURVE SMOOTH",
"95 0 LINE"
);
}
);
width = 600;
}
);
leftKerningGroup = B;
rightKerningGroup = E;
unicode = 0045;
},
{
glyphname = F;
lastChange = "2015-09-23 01:10:40 +0000";
layers = (
{
layerId = UUID0;
name = Regular;
paths = (
{
closed = 1;
nodes = (
"225 0 LINE",
"225 315 LINE",
"445 315 LINE",
"445 360 LINE",
"225 360 LINE",
"225 615 LINE",
"364 615 LINE SMOOTH",
"444 615 OFFCURVE",
"489 582 OFFCURVE",
"489 495 CURVE",
"519 495 LINE",
"519 580 LINE SMOOTH",
"519 620 OFFCURVE",
"503 660 OFFCURVE",
"434 660 CURVE SMOOTH",
"15 660 LINE",
"15 630 LINE",
"25 630 LINE SMOOTH",
"85 630 OFFCURVE",
"95 590 OFFCURVE",
"95 530 CURVE SMOOTH",
"95 0 LINE"
);
}
);
width = 539;
}
);
leftKerningGroup = B;
unicode = 0046;
},
{
glyphname = G;
lastChange = "2015-09-23 01:10:40 +0000";
layers = (
{
layerId = UUID0;
name = Regular;
paths = (
{
closed = 1;
nodes = (
"498 -20 OFFCURVE",
"583 0 OFFCURVE",
"660 47 CURVE",
"660 226 LINE SMOOTH",
"660 286 OFFCURVE",
"679 321 OFFCURVE",
"724 321 CURVE",
"724 346 LINE",
"554 346 OFFCURVE",
"530 279 OFFCURVE",
"530 224 CURVE SMOOTH",
"530 46 LINE",
"495 30 OFFCURVE",
"455 20 OFFCURVE",
"395 20 CURVE SMOOTH",
"272 20 OFFCURVE",
"175 97 OFFCURVE",
"175 340 CURVE SMOOTH",
"175 493 OFFCURVE",
"236 635 OFFCURVE",
"395 635 CURVE SMOOTH",
"511 635 OFFCURVE",
"578 583 OFFCURVE",
"603 460 CURVE",
"633 460 LINE",
"633 505 OFFCURVE",
"633 565 OFFCURVE",
"607 599 CURVE",
"570 642 OFFCURVE",
"490 680 OFFCURVE",
"365 680 CURVE SMOOTH",
"166 680 OFFCURVE",
"35 532 OFFCURVE",
"35 340 CURVE SMOOTH",
"35 138 OFFCURVE",
"187 -20 OFFCURVE",
"395 -20 CURVE SMOOTH"
);
}
);
width = 734;
}
);
leftKerningGroup = C;
rightKerningGroup = G;
unicode = 0047;
},
{
glyphname = H;
lastChange = "2015-09-23 01:10:40 +0000";
layers = (
{
layerId = UUID0;
name = Regular;
paths = (
{
closed = 1;
nodes = (
"225 0 LINE",
"225 320 LINE",
"495 320 LINE",
"495 130 LINE SMOOTH",
"495 29 OFFCURVE",
"515 0 OFFCURVE",
"585 0 CURVE SMOOTH",
"705 0 LINE",
"705 30 LINE",
"695 30 LINE SMOOTH",
"635 30 OFFCURVE",
"625 70 OFFCURVE",
"625 130 CURVE SMOOTH",
"625 660 LINE",
"495 660 LINE",
"495 365 LINE",
"225 365 LINE",
"225 530 LINE SMOOTH",
"225 629 OFFCURVE",
"205 660 OFFCURVE",
"135 660 CURVE SMOOTH",
"15 660 LINE",
"15 630 LINE",
"25 630 LINE SMOOTH",
"85 630 OFFCURVE",
"95 590 OFFCURVE",
"95 530 CURVE SMOOTH",
"95 0 LINE"
);
}
);
width = 720;
}
);
leftKerningGroup = B;
rightKerningGroup = H;
unicode = 0048;
},
{
glyphname = I;
lastChange = "2015-09-23 01:10:39 +0000";
layers = (
{
layerId = UUID0;
name = Regular;
paths = (
{
closed = 1;
nodes = (
"289 0 LINE",
"289 30 LINE",
"279 30 LINE SMOOTH",
"219 30 OFFCURVE",
"209 70 OFFCURVE",
"209 130 CURVE SMOOTH",
"209 660 LINE",
"79 660 LINE",
"79 130 LINE SMOOTH",
"79 29 OFFCURVE",
"99 0 OFFCURVE",
"169 0 CURVE SMOOTH"
);
}
);
width = 304;
}
);
leftKerningGroup = I;
rightKerningGroup = H;
unicode = 0049;
},
{
glyphname = J;
lastChange = "2015-09-23 01:10:40 +0000";
layers = (
{
layerId = UUID0;
name = Regular;
paths = (
{
closed = 1;
nodes = (
"161 -137 OFFCURVE",
"204 -89 OFFCURVE",
"204 83 CURVE SMOOTH",
"204 660 LINE",
"74 660 LINE",
"74 83 LINE SMOOTH",
"74 -59 OFFCURVE",
"41 -99 OFFCURVE",
"-19 -107 CURVE",
"-19 -137 LINE"
);
}
);
width = 278;
}
);
unicode = 004A;
},
{
glyphname = K;
lastChange = "2015-09-23 01:10:40 +0000";
layers = (
{
layerId = UUID0;
name = Regular;
paths = (
{
closed = 1;
nodes = (
"662 -10 OFFCURVE",
"689 -5 OFFCURVE",
"704 0 CURVE",
"704 24 LINE",
"665 29 OFFCURVE",
"595 75 OFFCURVE",
"545 130 CURVE SMOOTH",
"314 370 LINE",
"463 554 LINE SMOOTH",
"508 610 OFFCURVE",
"570 625 OFFCURVE",
"646 625 CURVE",
"646 660 LINE",
"576 660 LINE SMOOTH",
"497 660 OFFCURVE",
"442 611 OFFCURVE",
"399 555 CURVE SMOOTH",
"226 340 LINE",
"226 530 LINE SMOOTH",
"226 629 OFFCURVE",
"204 660 OFFCURVE",
"135 660 CURVE SMOOTH",
"15 660 LINE",
"15 630 LINE",
"25 630 LINE SMOOTH",
"85 630 OFFCURVE",
"95 590 OFFCURVE",
"95 530 CURVE SMOOTH",
"96 0 LINE",
"226 0 LINE",
"226 278 LINE",
"387 110 LINE SMOOTH",
"482 10 OFFCURVE",
"557 -10 OFFCURVE",
"631 -10 CURVE SMOOTH"
);
}
);
width = 693;
}
);
leftKerningGroup = B;
unicode = 004B;
},
{
glyphname = L;
lastChange = "2015-09-23 01:10:40 +0000";
layers = (
{
layerId = UUID0;
name = Regular;
paths = (
{
closed = 1;
nodes = (
"570 0 LINE",
"570 45 LINE",
"225 45 LINE",
"225 530 LINE SMOOTH",
"225 629 OFFCURVE",
"205 660 OFFCURVE",
"135 660 CURVE SMOOTH",
"15 660 LINE",
"15 630 LINE",
"25 630 LINE SMOOTH",
"85 630 OFFCURVE",
"95 590 OFFCURVE",
"95 530 CURVE SMOOTH",
"95 0 LINE"
);
}
);
width = 570;
}
);
leftKerningGroup = B;
unicode = 004C;
},
{
glyphname = M;
lastChange = "2015-09-23 01:10:40 +0000";
layers = (
{
layerId = UUID0;
name = Regular;
paths = (
{
closed = 1;
nodes = (
"847 -20 LINE",
"791 -9 OFFCURVE",
"774 49 OFFCURVE",
"774 170 CURVE SMOOTH",
"774 660 LINE",
"643 660 LINE",
"438 169 LINE",
"196 660 LINE",
"74 660 LINE",
"74 0 LINE",
"124 0 LINE",
"124 544 LINE",
"392 0 LINE",
"425 0 LINE",
"644 524 LINE",
"644 170 LINE SMOOTH",
"644 19 OFFCURVE",
"702 -45 OFFCURVE",
"847 -45 CURVE"
);
}
);
width = 867;
}
);
unicode = 004D;
},
{
glyphname = N;
lastChange = "2015-09-23 01:10:40 +0000";
layers = (
{
layerId = UUID0;
name = Regular;
paths = (
{
closed = 1;
nodes = (
"618 -3 LINE",
"618 660 LINE",
"568 660 LINE",
"568 200 LINE",
"224 600 LINE",
"193 640 OFFCURVE",
"149 660 OFFCURVE",
"73 660 CURVE SMOOTH",
"3 660 LINE",
"3 630 LINE",
"8 630 LINE SMOOTH",
"78 630 OFFCURVE",
"98 591 OFFCURVE",
"98 540 CURVE SMOOTH",
"98 0 LINE",
"148 0 LINE",
"148 495 LINE",
"572 -3 LINE"
);
}
);
width = 692;
}
);
leftKerningGroup = B;
unicode = 004E;
},
{
glyphname = O;
lastChange = "2015-09-23 01:10:40 +0000";
layers = (
{
layerId = UUID0;
name = Regular;
paths = (
{
closed = 1;
nodes = (
"566 -20 OFFCURVE",
"696 133 OFFCURVE",
"696 330 CURVE SMOOTH",
"696 527 OFFCURVE",
"566 680 OFFCURVE",
"367 680 CURVE SMOOTH",
"168 680 OFFCURVE",
"37 527 OFFCURVE",
"37 330 CURVE SMOOTH",
"37 133 OFFCURVE",
"168 -20 OFFCURVE",
"367 -20 CURVE SMOOTH"
);
},
{
closed = 1;
nodes = (
"246 25 OFFCURVE",
"177 135 OFFCURVE",
"177 330 CURVE SMOOTH",
"177 525 OFFCURVE",
"246 635 OFFCURVE",
"367 635 CURVE SMOOTH",
"488 635 OFFCURVE",
"558 525 OFFCURVE",
"558 330 CURVE SMOOTH",
"558 135 OFFCURVE",
"488 25 OFFCURVE",
"367 25 CURVE SMOOTH"
);
}
);
width = 733;
}
);
leftKerningGroup = C;
rightKerningGroup = O;
unicode = 004F;
},
{
glyphname = P;
lastChange = "2015-09-23 01:10:39 +0000";
layers = (
{
layerId = UUID0;
name = Regular;
paths = (
{
closed = 1;
nodes = (
"225 0 LINE",
"225 267 LINE",
"320 267 LINE SMOOTH",
"379 267 OFFCURVE",
"560 286 OFFCURVE",
"560 459 CURVE SMOOTH",
"560 642 OFFCURVE",
"380 660 OFFCURVE",
"290 660 CURVE SMOOTH",
"15 660 LINE",
"15 630 LINE",
"25 630 LINE SMOOTH",
"85 630 OFFCURVE",
"95 590 OFFCURVE",
"95 530 CURVE SMOOTH",
"95 0 LINE"
);
},
{
closed = 1;
nodes = (
"225 613 LINE",
"245 616 LINE",
"257 619 OFFCURVE",
"274 620 OFFCURVE",
"290 620 CURVE SMOOTH",
"353 620 OFFCURVE",
"420 587 OFFCURVE",
"420 464 CURVE SMOOTH",
"420 340 OFFCURVE",
"353 307 OFFCURVE",
"285 307 CURVE SMOOTH",
"225 307 LINE"
);
}
);
width = 577;
}
);
leftKerningGroup = B;
unicode = 0050;
},
{
glyphname = Q;
lastChange = "2015-09-23 01:10:40 +0000";
layers = (
{
layerId = UUID0;
name = Regular;
paths = (
{
closed = 1;
nodes = (
"693 -179 LINE",
"609 -179 OFFCURVE",
"498 -104 OFFCURVE",
"463 -7 CURVE",
"607 33 OFFCURVE",
"697 164 OFFCURVE",
"697 330 CURVE SMOOTH",
"697 527 OFFCURVE",
"567 680 OFFCURVE",
"368 680 CURVE SMOOTH",
"169 680 OFFCURVE",
"38 527 OFFCURVE",
"38 330 CURVE SMOOTH",
"38 169 OFFCURVE",
"125 39 OFFCURVE",
"264 -4 CURVE",
"386 -152 OFFCURVE",
"541 -205 OFFCURVE",
"693 -205 CURVE"
);
},
{
closed = 1;
nodes = (
"247 25 OFFCURVE",
"178 135 OFFCURVE",
"178 330 CURVE SMOOTH",
"178 525 OFFCURVE",
"247 635 OFFCURVE",
"368 635 CURVE SMOOTH",
"489 635 OFFCURVE",
"559 525 OFFCURVE",
"559 330 CURVE SMOOTH",
"559 135 OFFCURVE",
"489 25 OFFCURVE",
"368 25 CURVE SMOOTH"
);
}
);
width = 735;
}
);
leftKerningGroup = C;
rightKerningGroup = O;
unicode = 0051;
},
{
glyphname = R;
lastChange = "2015-09-23 01:10:40 +0000";
layers = (
{
layerId = UUID0;
name = Regular;
paths = (
{
closed = 1;
nodes = (
"585 -10 OFFCURVE",
"617 -5 OFFCURVE",
"628 0 CURVE",
"628 25 LINE",
"599 30 OFFCURVE",
"555 50 OFFCURVE",
"504 135 CURVE SMOOTH",
"399 310 LINE",
"475 329 OFFCURVE",
"561 371 OFFCURVE",
"561 476 CURVE SMOOTH",
"561 640 OFFCURVE",
"386 660 OFFCURVE",
"291 660 CURVE SMOOTH",
"15 660 LINE",
"15 630 LINE",
"25 630 LINE SMOOTH",
"85 630 OFFCURVE",
"95 590 OFFCURVE",
"95 530 CURVE SMOOTH",
"95 0 LINE",
"226 0 LINE",
"226 302 LINE",
"266 302 LINE",
"366 135 LINE SMOOTH",
"433 25 OFFCURVE",
"489 -10 OFFCURVE",
"560 -10 CURVE SMOOTH"
);
},
{
closed = 1;
nodes = (
"226 613 LINE",
"246 616 LINE",
"258 619 OFFCURVE",
"275 620 OFFCURVE",
"291 620 CURVE SMOOTH",
"350 620 OFFCURVE",
"421 585 OFFCURVE",
"421 481 CURVE SMOOTH",
"421 376 OFFCURVE",
"350 342 OFFCURVE",
"286 342 CURVE SMOOTH",
"226 342 LINE"
);
}
);
width = 616;
}
);
leftKerningGroup = B;
unicode = 0052;
},
{
glyphname = S;
lastChange = "2015-09-23 01:10:40 +0000";
layers = (
{
layerId = UUID0;
name = Regular;
paths = (
{
closed = 1;
nodes = (
"434 -17 OFFCURVE",
"524 54 OFFCURVE",
"524 169 CURVE SMOOTH",
"524 242 OFFCURVE",
"484 288 OFFCURVE",
"393 341 CURVE SMOOTH",
"270 414 LINE SMOOTH",
"207 451 OFFCURVE",
"166 480 OFFCURVE",
"166 536 CURVE SMOOTH",
"166 596 OFFCURVE",
"211 633 OFFCURVE",
"283 633 CURVE SMOOTH",
"384 633 OFFCURVE",
"447 580 OFFCURVE",
"470 441 CURVE",
"498 441 LINE",
"498 558 LINE SMOOTH",
"498 634 OFFCURVE",
"381 678 OFFCURVE",
"272 678 CURVE SMOOTH",
"135 678 OFFCURVE",
"48 612 OFFCURVE",
"48 507 CURVE SMOOTH",
"48 434 OFFCURVE",
"81 381 OFFCURVE",
"172 328 CURVE SMOOTH",
"295 254 LINE SMOOTH",
"359 215 OFFCURVE",
"398 182 OFFCURVE",
"398 125 CURVE SMOOTH",
"398 61 OFFCURVE",
"348 28 OFFCURVE",
"272 28 CURVE SMOOTH",
"160 28 OFFCURVE",
"96 81 OFFCURVE",
"75 220 CURVE",
"47 220 LINE",
"47 103 LINE SMOOTH",
"47 27 OFFCURVE",
"164 -17 OFFCURVE",
"273 -17 CURVE SMOOTH"
);
}
);
width = 561;
}
);
leftKerningGroup = S;
rightKerningGroup = S;
unicode = 0053;
},
{
glyphname = T;
lastChange = "2015-09-23 01:10:40 +0000";
layers = (
{
layerId = UUID0;
name = Regular;
paths = (
{
closed = 1;
nodes = (
"362 0 LINE",
"362 615 LINE",
"571 615 LINE",
"571 660 LINE",
"101 660 LINE SMOOTH",
"32 660 OFFCURVE",
"16 620 OFFCURVE",
"16 580 CURVE SMOOTH",
"16 495 LINE",
"46 495 LINE",
"46 584 OFFCURVE",
"90 615 OFFCURVE",
"161 615 CURVE SMOOTH",
"232 615 LINE",
"232 0 LINE"
);
}
);
width = 575;
}
);
unicode = 0054;
},
{
glyphname = U;
lastChange = "2015-09-23 01:10:40 +0000";
layers = (
{
layerId = UUID0;
name = Regular;
paths = (
{
closed = 1;
nodes = (
"557 -10 OFFCURVE",
"627 100 OFFCURVE",
"627 288 CURVE SMOOTH",
"627 660 LINE",
"577 660 LINE",
"577 288 LINE SMOOTH",
"577 113 OFFCURVE",
"518 35 OFFCURVE",
"382 35 CURVE SMOOTH",
"277 35 OFFCURVE",
"224 119 OFFCURVE",
"223 258 CURVE SMOOTH",
"222 530 LINE SMOOTH",
"222 629 OFFCURVE",
"202 660 OFFCURVE",
"132 660 CURVE SMOOTH",
"22 660 LINE",
"22 630 LINE",
"82 630 OFFCURVE",
"92 590 OFFCURVE",
"92 530 CURVE SMOOTH",
"92 288 LINE SMOOTH",
"92 89 OFFCURVE",
"182 -10 OFFCURVE",
"362 -10 CURVE SMOOTH"
);
}
);
width = 694;
}
);
leftKerningGroup = U;
rightKerningGroup = U;
unicode = 0055;
},
{
glyphname = V;
lastChange = "2015-09-23 01:10:40 +0000";
layers = (
{
layerId = UUID0;
name = Regular;
paths = (
{
closed = 1;
nodes = (
"339 -10 LINE",
"627 660 LINE",
"576 660 LINE",
"365 169 LINE",
"207 543 LINE SMOOTH",
"159 657 OFFCURVE",
"78 670 OFFCURVE",
"9 670 CURVE SMOOTH",
"0 670 OFFCURVE",
"-28 668 OFFCURVE",
"-33 668 CURVE",
"-33 648 LINE",
"7 643 OFFCURVE",
"34 618 OFFCURVE",
"66 543 CURVE SMOOTH",
"299 -10 LINE"
);
}
);
width = 635;
}
);
unicode = 0056;
},
{
glyphname = W;
lastChange = "2015-09-23 01:10:40 +0000";
layers = (
{
layerId = UUID0;
name = Regular;
paths = (
{
closed = 1;
nodes = (
"317 -9 LINE",
"454 383 LINE",
"608 -9 LINE",
"648 -9 LINE",
"885 660 LINE",
"837 660 LINE",
"666 179 LINE",
"523 543 LINE SMOOTH",
"477 658 OFFCURVE",
"395 670 OFFCURVE",
"325 670 CURVE SMOOTH",
"316 670 OFFCURVE",
"291 668 OFFCURVE",
"286 668 CURVE",
"286 648 LINE",
"326 643 OFFCURVE",
"361 619 OFFCURVE",
"392 543 CURVE SMOOTH",
"427 454 LINE",
"337 198 LINE",
"202 543 LINE SMOOTH",
"156 659 OFFCURVE",
"74 670 OFFCURVE",
"4 670 CURVE SMOOTH",
"-5 670 OFFCURVE",
"-33 668 OFFCURVE",
"-38 668 CURVE",
"-38 648 LINE",
"2 643 OFFCURVE",
"30 619 OFFCURVE",
"61 543 CURVE SMOOTH",
"277 -9 LINE"
);
}
);
width = 906;
}
);
unicode = 0057;
},
{
glyphname = X;
lastChange = "2015-09-23 01:10:40 +0000";
layers = (
{
layerId = UUID0;
name = Regular;
paths = (
{
closed = 1;
nodes = (
"82 0 LINE",
"293 266 LINE",
"394 110 LINE SMOOTH",
"426 59 OFFCURVE",
"482 0 OFFCURVE",
"557 0 CURVE SMOOTH",
"667 0 LINE",
"667 20 LINE",
"622 25 OFFCURVE",
"566 78 OFFCURVE",
"533 130 CURVE SMOOTH",
"376 371 LINE",
"605 660 LINE",
"540 660 LINE",
"347 416 LINE",
"260 550 LINE SMOOTH",
"228 601 OFFCURVE",
"172 660 OFFCURVE",
"97 660 CURVE SMOOTH",
"-13 660 LINE",
"-13 640 LINE",
"32 635 OFFCURVE",
"88 582 OFFCURVE",
"121 530 CURVE SMOOTH",
"263 311 LINE",
"17 0 LINE"
);
}
);
width = 647;
}
);
unicode = 0058;
},
{
glyphname = Y;
lastChange = "2015-09-23 01:10:40 +0000";
layers = (
{
layerId = UUID0;
name = Regular;
paths = (
{
closed = 1;
nodes = (
"409 0 LINE",
"409 291 LINE",
"636 660 LINE",
"571 660 LINE",
"377 345 LINE",
"241 550 LINE SMOOTH",
"209 601 OFFCURVE",
"153 660 OFFCURVE",
"78 660 CURVE SMOOTH",
"-31 660 LINE",
"-31 640 LINE",
"15 635 OFFCURVE",
"67 581 OFFCURVE",
"102 530 CURVE SMOOTH",
"279 264 LINE",
"279 0 LINE"
);
}
);
width = 638;
}
);
leftKerningGroup = Y;
rightKerningGroup = Y;
unicode = 0059;
},
{
glyphname = Z;
lastChange = "2015-09-23 01:10:40 +0000";
layers = (
{
layerId = UUID0;
name = Regular;
paths = (
{
closed = 1;
nodes = (
"576 0 LINE",
"576 45 LINE",
"189 45 LINE",
"581 660 LINE",
"126 660 LINE SMOOTH",
"57 660 OFFCURVE",
"41 620 OFFCURVE",
"41 580 CURVE SMOOTH",
"41 495 LINE",
"71 495 LINE",
"71 584 OFFCURVE",
"115 616 OFFCURVE",
"186 616 CURVE SMOOTH",
"403 616 LINE",
"31 32 LINE",
"31 0 LINE"
);
}
);
width = 599;
}
);
leftKerningGroup = Z;
rightKerningGroup = Z;
unicode = 005A;
},
{
glyphname = bracketleft;
lastChange = "2015-09-23 01:10:40 +0000";
layers = (
{
layerId = UUID0;
name = Regular;
paths = (
{
closed = 1;
nodes = (
"311 -200 LINE",
"311 -155 LINE",
"186 -155 LINE",
"186 635 LINE",
"311 635 LINE",
"311 680 LINE",
"66 680 LINE",
"66 -200 LINE"
);
}
);
width = 331;
}
);
unicode = 005B;
},
{
glyphname = backslash;
lastChange = "2015-09-23 01:10:40 +0000";
layers = (
{
layerId = UUID0;
name = Regular;
paths = (
{
closed = 1;
nodes = (
"454 0 LINE",
"133 660 LINE",
"21 660 LINE",
"342 0 LINE"
);
}
);
width = 475;
}
);
unicode = 005C;
},
{
glyphname = bracketright;
lastChange = "2015-09-23 01:10:40 +0000";
layers = (
{
layerId = UUID0;
name = Regular;
paths = (
{
closed = 1;
nodes = (
"265 -200 LINE",
"265 680 LINE",
"20 680 LINE",
"20 635 LINE",
"145 635 LINE",
"145 -155 LINE",
"20 -155 LINE",
"20 -200 LINE"
);
}
);
width = 331;
}
);
unicode = 005D;
},
{
glyphname = asciicircum;
lastChange = "2015-09-23 01:10:40 +0000";
layers = (
{
layerId = UUID0;
name = Regular;
paths = (
{
closed = 1;
nodes = (
"118 330 LINE",
"257 557 LINE",
"396 330 LINE",
"494 330 LINE",
"279 680 LINE",
"235 680 LINE",
"20 330 LINE"
);
}
);
width = 514;
}
);
unicode = 005E;
},
{
glyphname = underscore;
lastChange = "2015-09-23 01:10:39 +0000";
layers = (
{
layerId = UUID0;
name = Regular;
paths = (
{
closed = 1;
nodes = (
"428 -70 LINE",
"428 0 LINE",
"8 0 LINE",
"8 -70 LINE"
);
}
);
width = 436;
}
);
unicode = 005F;
},
{
glyphname = grave;
lastChange = "2015-09-23 01:10:39 +0000";
layers = (
{
layerId = UUID0;
name = Regular;
paths = (
{
closed = 1;
nodes = (
"207 477 LINE",
"145 680 LINE",
"20 680 LINE",
"133 477 LINE"
);
}
);
width = 227;
}
);
unicode = 0060;
},
{
glyphname = a;
lastChange = "2015-09-23 01:10:39 +0000";
layers = (
{
layerId = UUID0;
name = Regular;
paths = (
{
closed = 1;
nodes = (
"242 -10 OFFCURVE",
"272 2 OFFCURVE",
"291 17 CURVE SMOOTH",
"302 25 OFFCURVE",
"312 34 OFFCURVE",
"319 45 CURVE",
"324 45 LINE",
"359 0 LINE",
"444 0 LINE",
"444 270 LINE SMOOTH",
"444 411 OFFCURVE",
"370 480 OFFCURVE",
"239 480 CURVE SMOOTH",
"174 480 OFFCURVE",
"113 472 OFFCURVE",
"89 445 CURVE SMOOTH",
"65 418 OFFCURVE",
"64 380 OFFCURVE",
"64 345 CURVE",
"119 345 LINE",
"135 420 OFFCURVE",
"174 435 OFFCURVE",
"219 435 CURVE SMOOTH",
"279 435 OFFCURVE",
"314 395 OFFCURVE",
"314 275 CURVE",
"299 275 LINE SMOOTH",
"84 275 OFFCURVE",
"29 220 OFFCURVE",
"29 125 CURVE SMOOTH",
"29 45 OFFCURVE",
"88 -10 OFFCURVE",
"199 -10 CURVE SMOOTH"
);
},
{
closed = 1;
nodes = (
"189 40 OFFCURVE",
"164 69 OFFCURVE",
"164 125 CURVE SMOOTH",
"164 196 OFFCURVE",
"203 230 OFFCURVE",
"299 230 CURVE SMOOTH",
"314 230 LINE",
"314 105 LINE",
"309 92 OFFCURVE",
"302 81 OFFCURVE",
"294 72 CURVE SMOOTH",
"279 56 OFFCURVE",
"260 40 OFFCURVE",
"229 40 CURVE SMOOTH"
);
}
);
width = 496;
}
);
leftKerningGroup = a;
rightKerningGroup = a;
unicode = 0061;
},
{
glyphname = b;
lastChange = "2015-09-23 01:10:40 +0000";
layers = (
{
layerId = UUID0;
name = Regular;
paths = (
{
closed = 1;
nodes = (
"440 -10 OFFCURVE",
"510 98 OFFCURVE",
"510 235 CURVE SMOOTH",
"510 372 OFFCURVE",
"440 480 OFFCURVE",
"295 480 CURVE SMOOTH",
"262 480 OFFCURVE",
"237 472 OFFCURVE",
"218 465 CURVE SMOOTH",
"207 460 OFFCURVE",
"198 455 OFFCURVE",
"190 450 CURVE",
"190 530 LINE SMOOTH",
"190 629 OFFCURVE",
"170 660 OFFCURVE",
"100 660 CURVE SMOOTH",
"-20 660 LINE",
"-20 630 LINE",
"-10 630 LINE SMOOTH",
"50 630 OFFCURVE",
"60 590 OFFCURVE",
"60 530 CURVE SMOOTH",
"60 0 LINE",
"145 0 LINE",
"180 45 LINE",
"185 45 LINE",
"192 34 OFFCURVE",
"201 25 OFFCURVE",
"212 17 CURVE SMOOTH",
"231 2 OFFCURVE",
"260 -10 OFFCURVE",
"300 -10 CURVE SMOOTH"
);
},
{
closed = 1;
nodes = (
"249 35 OFFCURVE",
"227 51 OFFCURVE",
"212 67 CURVE SMOOTH",
"203 76 OFFCURVE",
"196 87 OFFCURVE",
"190 100 CURVE",
"190 405 LINE",
"197 410 OFFCURVE",
"205 415 OFFCURVE",
"214 420 CURVE SMOOTH",
"229 427 OFFCURVE",
"250 435 OFFCURVE",
"275 435 CURVE SMOOTH",
"350 435 OFFCURVE",
"375 350 OFFCURVE",
"375 235 CURVE SMOOTH",
"375 120 OFFCURVE",
"349 35 OFFCURVE",
"280 35 CURVE SMOOTH"
);
}
);
width = 547;
}
);
leftKerningGroup = b;
rightKerningGroup = b;
unicode = 0062;
},
{
glyphname = c;
lastChange = "2015-09-23 01:10:39 +0000";
layers = (
{
layerId = UUID0;
name = Regular;
paths = (
{
closed = 1;
nodes = (
"391 -10 OFFCURVE",
"441 50 OFFCURVE",
"470 95 CURVE",
"439 118 LINE",
"404 71 OFFCURVE",
"365 35 OFFCURVE",
"296 35 CURVE SMOOTH",
"213 35 OFFCURVE",
"171 102 OFFCURVE",
"171 235 CURVE SMOOTH",
"171 371 OFFCURVE",
"220 435 OFFCURVE",
"291 435 CURVE SMOOTH",
"371 435 OFFCURVE",
"421 390 OFFCURVE",
"426 305 CURVE",
"456 305 LINE",
"456 381 OFFCURVE",
"456 420 OFFCURVE",
"431 445 CURVE SMOOTH",
"406 470 OFFCURVE",
"352 480 OFFCURVE",
"276 480 CURVE SMOOTH",
"116 480 OFFCURVE",
"36 368 OFFCURVE",
"36 235 CURVE SMOOTH",
"36 102 OFFCURVE",
"116 -10 OFFCURVE",
"276 -10 CURVE SMOOTH"
);
}
);
width = 496;
}
);
leftKerningGroup = c;
rightKerningGroup = c;
unicode = 0063;
},
{
glyphname = d;
lastChange = "2015-09-23 01:10:40 +0000";
layers = (
{
layerId = UUID0;
name = Regular;
paths = (
{
closed = 1;
nodes = (
"287 -10 OFFCURVE",
"315 2 OFFCURVE",
"334 17 CURVE SMOOTH",
"345 25 OFFCURVE",
"355 34 OFFCURVE",
"362 45 CURVE",
"367 45 LINE",
"402 0 LINE",
"487 0 LINE",
"487 530 LINE SMOOTH",
"487 629 OFFCURVE",
"467 660 OFFCURVE",
"397 660 CURVE SMOOTH",
"277 660 LINE",
"277 630 LINE",
"287 630 LINE SMOOTH",
"347 630 OFFCURVE",
"357 590 OFFCURVE",
"357 530 CURVE SMOOTH",
"357 450 LINE",
"349 455 OFFCURVE",
"340 460 OFFCURVE",
"329 465 CURVE SMOOTH",
"310 472 OFFCURVE",
"284 480 OFFCURVE",
"252 480 CURVE SMOOTH",
"107 480 OFFCURVE",
"37 372 OFFCURVE",
"37 235 CURVE SMOOTH",
"37 98 OFFCURVE",
"107 -10 OFFCURVE",
"247 -10 CURVE SMOOTH"
);
},
{
closed = 1;
nodes = (
"197 35 OFFCURVE",
"172 120 OFFCURVE",
"172 235 CURVE SMOOTH",
"172 350 OFFCURVE",
"197 435 OFFCURVE",
"272 435 CURVE SMOOTH",
"297 435 OFFCURVE",
"318 427 OFFCURVE",
"333 420 CURVE SMOOTH",
"342 415 OFFCURVE",
"350 410 OFFCURVE",
"357 405 CURVE",
"357 100 LINE",
"350 87 OFFCURVE",
"343 76 OFFCURVE",
"334 67 CURVE SMOOTH",
"319 51 OFFCURVE",
"298 35 OFFCURVE",
"267 35 CURVE SMOOTH"
);
}
);
width = 547;
}
);
leftKerningGroup = c;
unicode = 0064;
},
{
glyphname = e;
lastChange = "2015-09-23 01:10:40 +0000";
layers = (
{
layerId = UUID0;
name = Regular;
paths = (
{
closed = 1;
nodes = (
"376 -10 OFFCURVE",
"427 50 OFFCURVE",
"456 95 CURVE",
"425 118 LINE",
"390 71 OFFCURVE",
"351 35 OFFCURVE",
"282 35 CURVE SMOOTH",
"217 35 OFFCURVE",
"172 85 OFFCURVE",
"172 217 CURVE",
"473 217 LINE",
"475 237 LINE SMOOTH",
"476 249 OFFCURVE",
"477 265 OFFCURVE",
"477 280 CURVE SMOOTH",
"477 400 OFFCURVE",
"381 480 OFFCURVE",
"257 480 CURVE SMOOTH",
"133 480 OFFCURVE",
"37 395 OFFCURVE",
"37 235 CURVE SMOOTH",
"37 95 OFFCURVE",
"126 -10 OFFCURVE",
"267 -10 CURVE SMOOTH"
);
},
{
closed = 1;
nodes = (
"172 394 OFFCURVE",
"212 435 OFFCURVE",
"257 435 CURVE SMOOTH",
"307 435 OFFCURVE",
"342 394 OFFCURVE",
"342 262 CURVE",
"172 262 LINE"
);
}
);
width = 509;
}
);
leftKerningGroup = c;
rightKerningGroup = e;
unicode = 0065;
},
{
glyphname = f;
lastChange = "2015-09-23 01:10:40 +0000";
layers = (
{
layerId = UUID0;
name = Regular;
paths = (
{
closed = 1;
nodes = (
"202 0 LINE",
"202 425 LINE",
"332 425 LINE",
"332 470 LINE",
"202 470 LINE",
"202 497 LINE SMOOTH",
"202 594 OFFCURVE",
"227 625 OFFCURVE",
"272 625 CURVE SMOOTH",
"307 625 OFFCURVE",
"337 606 OFFCURVE",
"357 575 CURVE",
"397 610 LINE",
"388 629 OFFCURVE",
"375 643 OFFCURVE",
"358 653 CURVE SMOOTH",
"341 664 OFFCURVE",
"302 670 OFFCURVE",
"267 670 CURVE SMOOTH",
"136 670 OFFCURVE",
"72 610 OFFCURVE",
"72 497 CURVE SMOOTH",
"72 470 LINE",
"12 470 LINE",
"12 425 LINE",
"72 425 LINE",
"72 0 LINE"
);
}
);
width = 342;
}
);
unicode = 0066;
},
{
glyphname = g;
lastChange = "2015-09-23 01:10:39 +0000";
layers = (
{
layerId = UUID0;
name = Regular;
paths = (
{
closed = 1;
nodes = (
"399 -200 OFFCURVE",
"504 -161 OFFCURVE",
"504 -45 CURVE SMOOTH",
"504 60 OFFCURVE",
"394 110 OFFCURVE",
"259 113 CURVE SMOOTH",
"199 114 OFFCURVE",
"159 117 OFFCURVE",
"159 140 CURVE SMOOTH",
"159 167 OFFCURVE",
"199 170 OFFCURVE",
"259 170 CURVE SMOOTH",
"389 170 OFFCURVE",
"474 209 OFFCURVE",
"474 324 CURVE SMOOTH",
"474 371 OFFCURVE",
"435 420 OFFCURVE",
"379 441 CURVE",
"469 453 LINE",
"469 480 LINE",
"259 480 LINE SMOOTH",
"139 480 OFFCURVE",
"44 440 OFFCURVE",
"44 324 CURVE SMOOTH",
"44 263 OFFCURVE",
"88 210 OFFCURVE",
"144 190 CURVE",
"117 179 OFFCURVE",
"104 163 OFFCURVE",
"104 140 CURVE SMOOTH",
"104 109 OFFCURVE",
"124 93 OFFCURVE",
"149 85 CURVE",
"85 69 OFFCURVE",
"14 27 OFFCURVE",
"14 -45 CURVE SMOOTH",
"14 -161 OFFCURVE",
"119 -200 OFFCURVE",
"259 -200 CURVE SMOOTH"
);
},
{
closed = 1;
nodes = (
"192 -155 OFFCURVE",
"149 -121 OFFCURVE",
"149 -45 CURVE SMOOTH",
"149 19 OFFCURVE",
"176 53 OFFCURVE",
"220 72 CURVE",
"267 67 LINE",
"328 55 OFFCURVE",
"369 15 OFFCURVE",
"369 -45 CURVE SMOOTH",
"369 -121 OFFCURVE",
"326 -155 OFFCURVE",
"259 -155 CURVE SMOOTH"
);
},
{
closed = 1;
nodes = (
"212 210 OFFCURVE",
"179 241 OFFCURVE",
"179 324 CURVE SMOOTH",
"179 405 OFFCURVE",
"212 440 OFFCURVE",
"259 440 CURVE SMOOTH",
"306 440 OFFCURVE",
"339 400 OFFCURVE",
"339 324 CURVE SMOOTH",
"339 241 OFFCURVE",
"306 210 OFFCURVE",
"259 210 CURVE SMOOTH"
);
}
);
width = 523;
}
);
leftKerningGroup = g;
rightKerningGroup = g;
unicode = 0067;
},
{
glyphname = h;
lastChange = "2015-09-23 01:10:40 +0000";
layers = (
{
layerId = UUID0;
name = Regular;
paths = (
{
closed = 1;
nodes = (
"190 0 LINE",
"190 395 LINE",
"197 401 OFFCURVE",
"205 407 OFFCURVE",
"213 412 CURVE SMOOTH",
"228 421 OFFCURVE",
"247 430 OFFCURVE",
"270 430 CURVE SMOOTH",
"317 430 OFFCURVE",
"360 395 OFFCURVE",
"360 292 CURVE SMOOTH",
"360 0 LINE",
"490 0 LINE",
"490 297 LINE SMOOTH",
"490 444 OFFCURVE",
"391 480 OFFCURVE",
"300 480 CURVE SMOOTH",
"267 480 OFFCURVE",
"240 470 OFFCURVE",
"221 461 CURVE SMOOTH",
"210 455 OFFCURVE",
"199 449 OFFCURVE",
"190 442 CURVE",
"190 530 LINE SMOOTH",
"190 629 OFFCURVE",
"170 660 OFFCURVE",
"100 660 CURVE SMOOTH",
"-20 660 LINE",
"-20 630 LINE",
"-10 630 LINE SMOOTH",
"50 630 OFFCURVE",
"60 590 OFFCURVE",
"60 530 CURVE SMOOTH",
"60 0 LINE"
);
}
);
width = 544;
}
);
leftKerningGroup = b;
rightKerningGroup = h;
unicode = 0068;
},
{
glyphname = i;
lastChange = "2015-09-23 01:10:40 +0000";
layers = (
{
layerId = UUID0;
name = Regular;
paths = (
{
closed = 1;
nodes = (
"209 0 LINE",
"209 340 LINE SMOOTH",
"209 439 OFFCURVE",
"189 470 OFFCURVE",
"119 470 CURVE SMOOTH",
"-1 470 LINE",
"-1 440 LINE",
"9 440 LINE SMOOTH",
"69 440 OFFCURVE",
"79 400 OFFCURVE",
"79 340 CURVE SMOOTH",
"79 0 LINE"
);
},
{
closed = 1;
nodes = (
"175 524 OFFCURVE",
"199 545 OFFCURVE",
"199 580 CURVE SMOOTH",
"199 620 OFFCURVE",
"175 656 OFFCURVE",
"124 656 CURVE SMOOTH",
"93 656 OFFCURVE",
"69 635 OFFCURVE",
"69 600 CURVE SMOOTH",
"69 560 OFFCURVE",
"93 524 OFFCURVE",
"144 524 CURVE SMOOTH"
);
}
);
width = 267;
}
);
leftKerningGroup = i;
rightKerningGroup = i;
unicode = 0069;
},
{
glyphname = j;
lastChange = "2015-09-23 01:10:40 +0000";
layers = (
{
layerId = UUID0;
name = Regular;
paths = (
{
closed = 1;
nodes = (
"155 -190 OFFCURVE",
"209 -140 OFFCURVE",
"209 25 CURVE SMOOTH",
"209 340 LINE SMOOTH",
"209 439 OFFCURVE",
"189 470 OFFCURVE",
"119 470 CURVE SMOOTH",
"-1 470 LINE",
"-1 440 LINE",
"9 440 LINE SMOOTH",
"69 440 OFFCURVE",
"79 400 OFFCURVE",
"79 340 CURVE SMOOTH",
"79 25 LINE SMOOTH",
"79 -111 OFFCURVE",
"51 -154 OFFCURVE",
"-9 -165 CURVE",
"-9 -190 LINE"
);
},
{
closed = 1;
nodes = (
"175 524 OFFCURVE",
"199 545 OFFCURVE",
"199 580 CURVE SMOOTH",
"199 620 OFFCURVE",
"175 656 OFFCURVE",
"124 656 CURVE SMOOTH",
"93 656 OFFCURVE",
"69 635 OFFCURVE",
"69 600 CURVE SMOOTH",
"69 560 OFFCURVE",
"93 524 OFFCURVE",
"144 524 CURVE SMOOTH"
);
}
);
width = 267;
}
);
leftKerningGroup = i;
rightKerningGroup = i;
unicode = 006A;
},
{
glyphname = k;
lastChange = "2015-09-23 01:10:40 +0000";
layers = (
{
layerId = UUID0;
name = Regular;
paths = (
{
closed = 1;
nodes = (
"460 -10 OFFCURVE",
"493 -5 OFFCURVE",
"504 0 CURVE",
"504 24 LINE",
"476 31 OFFCURVE",
"446 53 OFFCURVE",
"411 100 CURVE SMOOTH",
"278 276 LINE",
"375 394 LINE SMOOTH",
"404 429 OFFCURVE",
"435 444 OFFCURVE",
"475 444 CURVE",
"475 470 LINE",
"455 470 LINE SMOOTH",
"384 470 OFFCURVE",
"352 442 OFFCURVE",
"311 393 CURVE SMOOTH",
"190 245 LINE",
"190 530 LINE SMOOTH",
"190 629 OFFCURVE",
"170 660 OFFCURVE",
"100 660 CURVE SMOOTH",
"-20 660 LINE",
"-20 630 LINE",
"-10 630 LINE SMOOTH",
"50 630 OFFCURVE",
"60 590 OFFCURVE",
"60 530 CURVE SMOOTH",
"60 0 LINE",
"190 0 LINE",
"190 196 LINE",
"286 70 LINE SMOOTH",
"330 10 OFFCURVE",
"379 -10 OFFCURVE",
"435 -10 CURVE SMOOTH"
);
}
);
width = 505;
}
);
leftKerningGroup = b;
unicode = 006B;
},
{
glyphname = l;
lastChange = "2015-09-23 01:10:39 +0000";
layers = (
{
layerId = UUID0;
name = Regular;
paths = (
{
closed = 1;
nodes = (
"194 0 LINE",
"194 530 LINE SMOOTH",
"194 629 OFFCURVE",
"174 660 OFFCURVE",
"104 660 CURVE SMOOTH",
"-16 660 LINE",
"-16 630 LINE",
"-6 630 LINE SMOOTH",
"54 630 OFFCURVE",
"64 590 OFFCURVE",
"64 530 CURVE SMOOTH",
"64 0 LINE"
);
}
);
width = 258;
}
);
unicode = 006C;
},
{
glyphname = m;
lastChange = "2015-09-23 01:10:40 +0000";
layers = (
{
layerId = UUID0;
name = Regular;
paths = (
{
closed = 1;
nodes = (
"210 0 LINE",
"210 337 LINE SMOOTH",
"210 353 OFFCURVE",
"209 367 OFFCURVE",
"206 376 CURVE",
"203 390 LINE",
"216 407 OFFCURVE",
"249 430 OFFCURVE",
"280 430 CURVE SMOOTH",
"325 430 OFFCURVE",
"360 394 OFFCURVE",
"360 297 CURVE SMOOTH",
"360 0 LINE",
"490 0 LINE",
"490 296 LINE SMOOTH",
"490 331 OFFCURVE",
"486 355 OFFCURVE",
"482 370 CURVE SMOOTH",
"479 379 OFFCURVE",
"477 386 OFFCURVE",
"474 392 CURVE",
"491 413 OFFCURVE",
"523 430 OFFCURVE",
"560 430 CURVE SMOOTH",
"605 430 OFFCURVE",
"640 394 OFFCURVE",
"640 297 CURVE SMOOTH",
"640 0 LINE",
"770 0 LINE",
"770 296 LINE SMOOTH",
"770 425 OFFCURVE",
"706 480 OFFCURVE",
"595 480 CURVE SMOOTH",
"518 480 OFFCURVE",
"480 452 OFFCURVE",
"453 423 CURVE",
"438 441 OFFCURVE",
"390 480 OFFCURVE",
"315 480 CURVE SMOOTH",
"255 480 OFFCURVE",
"213 453 OFFCURVE",
"189 432 CURVE",
"185 432 LINE",
"170 460 OFFCURVE",
"140 470 OFFCURVE",
"100 470 CURVE SMOOTH",
"1 470 LINE",
"1 440 LINE",
"11 440 LINE SMOOTH",
"71 440 OFFCURVE",
"80 400 OFFCURVE",
"80 340 CURVE SMOOTH",
"80 0 LINE"
);
}
);
width = 826;
}
);
leftKerningGroup = m;
rightKerningGroup = h;
unicode = 006D;
},
{
glyphname = n;
lastChange = "2015-09-23 01:10:40 +0000";
layers = (
{
layerId = UUID0;
name = Regular;
paths = (
{
closed = 1;
nodes = (
"210 0 LINE",
"210 346 LINE SMOOTH",
"210 362 OFFCURVE",
"209 376 OFFCURVE",
"206 385 CURVE",
"203 399 LINE",
"220 416 OFFCURVE",
"252 430 OFFCURVE",
"295 430 CURVE SMOOTH",
"350 430 OFFCURVE",
"390 394 OFFCURVE",
"390 297 CURVE SMOOTH",
"390 0 LINE",
"520 0 LINE",
"520 296 LINE SMOOTH",
"520 425 OFFCURVE",
"455 480 OFFCURVE",
"330 480 CURVE SMOOTH",
"248 480 OFFCURVE",
"208 455 OFFCURVE",
"184 433 CURVE",
"169 460 OFFCURVE",
"145 470 OFFCURVE",
"100 470 CURVE SMOOTH",
"1 470 LINE",
"1 440 LINE",
"11 440 LINE SMOOTH",
"71 440 OFFCURVE",
"80 400 OFFCURVE",
"80 340 CURVE SMOOTH",
"80 0 LINE"
);
}
);
width = 575;
}
);
leftKerningGroup = m;
rightKerningGroup = h;
unicode = 006E;
},
{
glyphname = o;
lastChange = "2015-09-23 01:10:40 +0000";
layers = (
{
layerId = UUID0;
name = Regular;
paths = (
{
closed = 1;
nodes = (
"425 -10 OFFCURVE",
"516 98 OFFCURVE",
"516 235 CURVE SMOOTH",
"516 372 OFFCURVE",
"425 480 OFFCURVE",
"276 480 CURVE SMOOTH",
"127 480 OFFCURVE",
"36 372 OFFCURVE",
"36 235 CURVE SMOOTH",
"36 98 OFFCURVE",
"127 -10 OFFCURVE",
"276 -10 CURVE SMOOTH"
);
},
{
closed = 1;
nodes = (
"206 35 OFFCURVE",
"171 120 OFFCURVE",
"171 235 CURVE SMOOTH",
"171 350 OFFCURVE",
"206 435 OFFCURVE",
"276 435 CURVE SMOOTH",
"346 435 OFFCURVE",
"381 350 OFFCURVE",
"381 235 CURVE SMOOTH",
"381 120 OFFCURVE",
"346 35 OFFCURVE",
"276 35 CURVE SMOOTH"
);
}
);
width = 552;
}
);
leftKerningGroup = c;
rightKerningGroup = b;
unicode = 006F;
},
{
glyphname = p;
lastChange = "2015-09-23 01:10:40 +0000";
layers = (
{
layerId = UUID0;
name = Regular;
paths = (
{
closed = 1;
nodes = (
"210 -190 LINE",
"210 20 LINE",
"218 14 OFFCURVE",
"227 9 OFFCURVE",
"238 5 CURVE SMOOTH",
"257 -3 OFFCURVE",
"282 -10 OFFCURVE",
"315 -10 CURVE SMOOTH",
"460 -10 OFFCURVE",
"530 98 OFFCURVE",
"530 235 CURVE SMOOTH",
"530 372 OFFCURVE",
"460 480 OFFCURVE",
"320 480 CURVE SMOOTH",
"250 480 OFFCURVE",
"208 449 OFFCURVE",
"184 428 CURVE",
"169 460 OFFCURVE",
"145 470 OFFCURVE",
"100 470 CURVE SMOOTH",
"1 470 LINE",
"1 440 LINE",
"11 440 LINE SMOOTH",
"71 440 OFFCURVE",
"80 400 OFFCURVE",
"80 340 CURVE SMOOTH",
"80 -190 LINE"
);
},
{
closed = 1;
nodes = (
"270 35 OFFCURVE",
"249 42 OFFCURVE",
"234 50 CURVE SMOOTH",
"225 54 OFFCURVE",
"217 59 OFFCURVE",
"210 65 CURVE",
"210 346 LINE SMOOTH",
"210 361 OFFCURVE",
"209 371 OFFCURVE",
"206 380 CURVE",
"203 394 LINE",
"220 411 OFFCURVE",
"249 435 OFFCURVE",
"300 435 CURVE SMOOTH",
"369 435 OFFCURVE",
"395 350 OFFCURVE",
"395 235 CURVE SMOOTH",
"395 120 OFFCURVE",
"370 35 OFFCURVE",
"295 35 CURVE SMOOTH"
);
}
);
width = 567;
}
);
leftKerningGroup = m;
rightKerningGroup = b;
unicode = 0070;
},
{
glyphname = q;
lastChange = "2015-09-23 01:10:39 +0000";
layers = (
{
layerId = UUID0;
name = Regular;
paths = (
{
closed = 1;
nodes = (
"487 -190 LINE",
"487 470 LINE",
"402 470 LINE",
"367 425 LINE",
"362 425 LINE",
"355 435 OFFCURVE",
"345 444 OFFCURVE",
"334 452 CURVE SMOOTH",
"315 467 OFFCURVE",
"287 480 OFFCURVE",
"247 480 CURVE SMOOTH",
"107 480 OFFCURVE",
"37 372 OFFCURVE",
"37 235 CURVE SMOOTH",
"37 98 OFFCURVE",
"107 -10 OFFCURVE",
"252 -10 CURVE SMOOTH",
"284 -10 OFFCURVE",
"310 -3 OFFCURVE",
"329 5 CURVE SMOOTH",
"340 9 OFFCURVE",
"349 14 OFFCURVE",
"357 20 CURVE",
"357 -190 LINE"
);
},
{
closed = 1;
nodes = (
"197 35 OFFCURVE",
"172 120 OFFCURVE",
"172 235 CURVE SMOOTH",
"172 350 OFFCURVE",
"197 435 OFFCURVE",
"267 435 CURVE SMOOTH",
"298 435 OFFCURVE",
"319 418 OFFCURVE",
"334 402 CURVE SMOOTH",
"343 393 OFFCURVE",
"350 382 OFFCURVE",
"357 370 CURVE",
"357 65 LINE",
"350 59 OFFCURVE",
"342 54 OFFCURVE",
"333 50 CURVE SMOOTH",
"318 42 OFFCURVE",
"297 35 OFFCURVE",
"272 35 CURVE SMOOTH"
);
}
);
width = 547;
}
);
leftKerningGroup = c;
rightKerningGroup = q;
unicode = 0071;
},
{
glyphname = r;
lastChange = "2015-09-23 01:10:40 +0000";
layers = (
{
layerId = UUID0;
name = Regular;
paths = (
{
closed = 1;
nodes = (
"210 0 LINE",
"210 336 LINE SMOOTH",
"210 348 OFFCURVE",
"209 360 OFFCURVE",
"208 369 CURVE SMOOTH",
"206 384 LINE",
"223 401 OFFCURVE",
"252 415 OFFCURVE",
"295 415 CURVE SMOOTH",
"318 415 OFFCURVE",
"334 406 OFFCURVE",
"346 395 CURVE SMOOTH",
"353 389 OFFCURVE",
"359 383 OFFCURVE",
"364 376 CURVE",
"415 415 LINE",
"415 414 OFFCURVE",
"404 444 OFFCURVE",
"381 460 CURVE SMOOTH",
"363 473 OFFCURVE",
"339 480 OFFCURVE",
"310 480 CURVE SMOOTH",
"250 480 OFFCURVE",
"208 454 OFFCURVE",
"184 433 CURVE",
"169 460 OFFCURVE",
"145 470 OFFCURVE",
"100 470 CURVE SMOOTH",
"1 470 LINE",
"1 440 LINE",
"11 440 LINE SMOOTH",
"71 440 OFFCURVE",
"80 400 OFFCURVE",
"80 340 CURVE SMOOTH",
"80 0 LINE"
);
}
);
width = 418;
}
);
leftKerningGroup = m;
unicode = 0072;
},
{
glyphname = s;
lastChange = "2015-09-23 01:10:40 +0000";
layers = (
{
layerId = UUID0;
name = Regular;
paths = (
{
closed = 1;
nodes = (
"348 -10 OFFCURVE",
"434 36 OFFCURVE",
"434 123 CURVE SMOOTH",
"434 194 OFFCURVE",
"387 229 OFFCURVE",
"295 268 CURVE SMOOTH",
"235 293 LINE SMOOTH",
"191 312 OFFCURVE",
"164 331 OFFCURVE",
"164 367 CURVE SMOOTH",
"164 406 OFFCURVE",
"189 435 OFFCURVE",
"249 435 CURVE SMOOTH",
"329 435 OFFCURVE",
"368 384 OFFCURVE",
"379 320 CURVE",
"414 320 LINE",
"414 371 OFFCURVE",
"414 416 OFFCURVE",
"390 439 CURVE SMOOTH",
"363 464 OFFCURVE",
"312 480 OFFCURVE",
"229 480 CURVE SMOOTH",
"119 480 OFFCURVE",
"39 434 OFFCURVE",
"39 347 CURVE SMOOTH",
"39 282 OFFCURVE",
"87 241 OFFCURVE",
"167 206 CURVE SMOOTH",
"219 184 LINE SMOOTH",
"270 161 OFFCURVE",
"309 142 OFFCURVE",
"309 103 CURVE SMOOTH",
"309 64 OFFCURVE",
"284 35 OFFCURVE",
"209 35 CURVE SMOOTH",
"129 35 OFFCURVE",
"90 86 OFFCURVE",
"79 150 CURVE",
"44 150 LINE",
"44 99 OFFCURVE",
"44 54 OFFCURVE",
"68 31 CURVE SMOOTH",
"95 6 OFFCURVE",
"146 -10 OFFCURVE",
"229 -10 CURVE SMOOTH"
);
}
);
width = 468;
}
);
leftKerningGroup = s;
rightKerningGroup = s;
unicode = 0073;
},
{
glyphname = t;
lastChange = "2015-09-23 01:10:40 +0000";
layers = (
{
layerId = UUID0;
name = Regular;
paths = (
{
closed = 1;
nodes = (
"271 -10 OFFCURVE",
"304 1 OFFCURVE",
"325 12 CURVE SMOOTH",
"337 19 OFFCURVE",
"347 26 OFFCURVE",
"356 34 CURVE",
"342 62 LINE",
"335 57 OFFCURVE",
"327 52 OFFCURVE",
"319 48 CURVE SMOOTH",
"304 41 OFFCURVE",
"284 35 OFFCURVE",
"263 35 CURVE SMOOTH",
"230 35 OFFCURVE",
"211 55 OFFCURVE",
"211 130 CURVE SMOOTH",
"211 425 LINE",
"321 425 LINE",
"321 470 LINE",
"211 470 LINE",
"211 620 LINE",
"131 620 LINE",
"81 560 LINE",
"81 470 LINE",
"21 470 LINE",
"21 425 LINE",
"81 425 LINE",
"81 136 LINE SMOOTH",
"81 40 OFFCURVE",
"135 -10 OFFCURVE",
"226 -10 CURVE SMOOTH"
);
}
);
width = 354;
}
);
unicode = 0074;
},
{
glyphname = u;
lastChange = "2015-09-23 01:10:40 +0000";
layers = (
{
layerId = UUID0;
name = Regular;
paths = (
{
closed = 1;
nodes = (
"295 -10 OFFCURVE",
"326 2 OFFCURVE",
"347 17 CURVE SMOOTH",
"359 25 OFFCURVE",
"370 34 OFFCURVE",
"380 45 CURVE",
"385 45 LINE",
"420 0 LINE",
"505 0 LINE",
"505 470 LINE",
"375 470 LINE",
"375 100 LINE",
"368 87 OFFCURVE",
"361 76 OFFCURVE",
"352 67 CURVE SMOOTH",
"337 51 OFFCURVE",
"316 35 OFFCURVE",
"285 35 CURVE SMOOTH",
"230 35 OFFCURVE",
"200 70 OFFCURVE",
"200 173 CURVE SMOOTH",
"200 340 LINE SMOOTH",
"200 439 OFFCURVE",
"180 470 OFFCURVE",
"110 470 CURVE SMOOTH",
"-10 470 LINE",
"-10 440 LINE",
"0 440 LINE SMOOTH",
"60 440 OFFCURVE",
"70 400 OFFCURVE",
"70 340 CURVE SMOOTH",
"70 174 LINE SMOOTH",
"70 45 OFFCURVE",
"130 -10 OFFCURVE",
"255 -10 CURVE SMOOTH"
);
}
);
width = 565;
}
);
leftKerningGroup = u;
rightKerningGroup = q;
unicode = 0075;
},
{
glyphname = v;
lastChange = "2015-09-23 01:10:39 +0000";
layers = (
{
layerId = UUID0;
name = Regular;
paths = (
{
closed = 1;
nodes = (
"282 -10 LINE",
"495 470 LINE",
"441 470 LINE",
"305 163 LINE",
"217 355 LINE SMOOTH",
"169 459 OFFCURVE",
"105 480 OFFCURVE",
"25 480 CURVE SMOOTH",
"16 480 OFFCURVE",
"-7 478 OFFCURVE",
"-12 478 CURVE",
"-12 458 LINE",
"21 455 OFFCURVE",
"42 428 OFFCURVE",
"77 355 CURVE SMOOTH",
"246 -10 LINE"
);
}
);
width = 500;
}
);
unicode = 0076;
},
{
glyphname = w;
lastChange = "2015-09-23 01:10:40 +0000";
layers = (
{
layerId = UUID0;
name = Regular;
paths = (
{
closed = 1;
nodes = (
"287 -10 LINE",
"403 271 LINE",
"533 -10 LINE",
"579 -10 LINE",
"763 470 LINE",
"710 470 LINE",
"588 154 LINE",
"496 355 LINE SMOOTH",
"451 453 OFFCURVE",
"389 480 OFFCURVE",
"304 480 CURVE SMOOTH",
"295 480 OFFCURVE",
"271 478 OFFCURVE",
"266 478 CURVE",
"266 459 LINE",
"295 456 OFFCURVE",
"321 428 OFFCURVE",
"354 355 CURVE SMOOTH",
"368 324 LINE",
"301 164 LINE",
"216 355 LINE SMOOTH",
"171 453 OFFCURVE",
"119 480 OFFCURVE",
"34 480 CURVE SMOOTH",
"25 480 OFFCURVE",
"-9 478 OFFCURVE",
"-14 478 CURVE",
"-14 459 LINE",
"21 456 OFFCURVE",
"46 430 OFFCURVE",
"79 355 CURVE SMOOTH",
"242 -10 LINE"
);
}
);
width = 775;
}
);
unicode = 0077;
},
{
glyphname = x;
lastChange = "2015-09-23 01:10:40 +0000";
layers = (
{
layerId = UUID0;
name = Regular;
paths = (
{
closed = 1;
nodes = (
"90 0 LINE",
"221 161 LINE",
"270 80 LINE SMOOTH",
"299 31 OFFCURVE",
"333 0 OFFCURVE",
"398 0 CURVE SMOOTH",
"493 0 LINE",
"493 20 LINE",
"462 25 OFFCURVE",
"428 52 OFFCURVE",
"400 100 CURVE SMOOTH",
"303 262 LINE",
"472 470 LINE",
"405 470 LINE",
"274 309 LINE",
"226 390 LINE SMOOTH",
"197 439 OFFCURVE",
"163 470 OFFCURVE",
"98 470 CURVE SMOOTH",
"3 470 LINE",
"3 450 LINE",
"34 445 OFFCURVE",
"68 418 OFFCURVE",
"96 370 CURVE SMOOTH",
"192 209 LINE",
"23 0 LINE"
);
}
);
width = 496;
}
);
unicode = 0078;
},
{
glyphname = y;
lastChange = "2015-09-23 01:10:40 +0000";
layers = (
{
layerId = UUID0;
name = Regular;
paths = (
{
closed = 1;
nodes = (
"132 -200 LINE SMOOTH",
"201 -200 OFFCURVE",
"250 -174 OFFCURVE",
"290 -65 CURVE SMOOTH",
"492 470 LINE",
"439 470 LINE",
"317 148 LINE",
"202 400 LINE SMOOTH",
"179 449 OFFCURVE",
"132 480 OFFCURVE",
"72 480 CURVE SMOOTH",
"-16 480 LINE",
"-16 460 LINE",
"24 455 OFFCURVE",
"55 429 OFFCURVE",
"77 380 CURVE SMOOTH",
"257 -14 LINE",
"236 -68 LINE SMOOTH",
"207 -144 OFFCURVE",
"161 -165 OFFCURVE",
"92 -165 CURVE",
"92 -200 LINE"
);
}
);
width = 509;
}
);
leftKerningGroup = y;
rightKerningGroup = y;
unicode = 0079;
},
{
glyphname = z;
lastChange = "2015-09-23 01:10:40 +0000";
layers = (
{
layerId = UUID0;
name = Regular;
paths = (
{
closed = 1;
nodes = (
"459 0 LINE",
"459 45 LINE",
"196 45 LINE",
"480 470 LINE",
"124 470 LINE SMOOTH",
"55 470 OFFCURVE",
"39 430 OFFCURVE",
"39 390 CURVE SMOOTH",
"39 330 LINE",
"69 330 LINE",
"69 395 OFFCURVE",
"99 425 OFFCURVE",
"184 425 CURVE SMOOTH",
"302 425 LINE",
"39 31 LINE",
"39 0 LINE"
);
}
);
width = 493;
}
);
leftKerningGroup = z;
rightKerningGroup = z;
unicode = 007A;
},
{
glyphname = braceleft;
lastChange = "2015-09-23 01:10:40 +0000";
layers = (
{
layerId = UUID0;
name = Regular;
paths = (
{
closed = 1;
nodes = (
"293 -176 LINE",
"248 -168 OFFCURVE",
"233 -132 OFFCURVE",
"233 -72 CURVE SMOOTH",
"233 100 LINE SMOOTH",
"233 176 OFFCURVE",
"197 217 OFFCURVE",
"113 240 CURVE",
"197 263 OFFCURVE",
"233 304 OFFCURVE",
"233 380 CURVE SMOOTH",
"233 552 LINE SMOOTH",
"233 612 OFFCURVE",
"248 648 OFFCURVE",
"293 656 CURVE",
"293 691 LINE",
"153 680 OFFCURVE",
"103 601 OFFCURVE",
"103 510 CURVE SMOOTH",
"103 370 LINE SMOOTH",
"103 316 OFFCURVE",
"78 267 OFFCURVE",
"3 256 CURVE",
"3 224 LINE",
"78 213 OFFCURVE",
"103 164 OFFCURVE",
"103 110 CURVE SMOOTH",
"103 -30 LINE SMOOTH",
"103 -121 OFFCURVE",
"153 -200 OFFCURVE",
"293 -211 CURVE"
);
}
);
width = 312;
}
);
unicode = 007B;
},
{
glyphname = bar;
lastChange = "2015-09-23 01:10:40 +0000";
layers = (
{
layerId = UUID0;
name = Regular;
paths = (
{
closed = 1;
nodes = (
"196 -190 LINE",
"196 680 LINE",
"66 680 LINE",
"66 -190 LINE"
);
}
);
width = 262;
}
);
unicode = 007C;
},
{
glyphname = braceright;
lastChange = "2015-09-23 01:10:40 +0000";
layers = (
{
layerId = UUID0;
name = Regular;
paths = (
{
closed = 1;
nodes = (
"159 -200 OFFCURVE",
"209 -121 OFFCURVE",
"209 -30 CURVE SMOOTH",
"209 110 LINE SMOOTH",
"209 164 OFFCURVE",
"234 213 OFFCURVE",
"309 224 CURVE",
"309 256 LINE",
"234 267 OFFCURVE",
"209 316 OFFCURVE",
"209 370 CURVE SMOOTH",
"209 510 LINE SMOOTH",
"209 601 OFFCURVE",
"159 680 OFFCURVE",
"19 691 CURVE",
"19 656 LINE",
"64 648 OFFCURVE",
"79 612 OFFCURVE",
"79 552 CURVE SMOOTH",
"79 380 LINE SMOOTH",
"79 304 OFFCURVE",
"115 263 OFFCURVE",
"199 240 CURVE",
"115 217 OFFCURVE",
"79 176 OFFCURVE",
"79 100 CURVE SMOOTH",
"79 -72 LINE SMOOTH",
"79 -132 OFFCURVE",
"64 -168 OFFCURVE",
"19 -176 CURVE",
"19 -211 LINE"
);
}
);
width = 312;
}
);
unicode = 007D;
},
{
glyphname = asciitilde;
lastChange = "2015-09-23 01:10:40 +0000";
layers = (
{
layerId = UUID0;
name = Regular;
paths = (
{
closed = 1;
nodes = (
"524 167 OFFCURVE",
"561 219 OFFCURVE",
"561 323 CURVE",
"521 323 LINE",
"521 283 OFFCURVE",
"497 263 OFFCURVE",
"441 263 CURVE SMOOTH",
"409 263 OFFCURVE",
"370 281 OFFCURVE",
"327 300 CURVE SMOOTH",
"280 321 OFFCURVE",
"231 343 OFFCURVE",
"171 343 CURVE SMOOTH",
"88 343 OFFCURVE",
"51 291 OFFCURVE",
"51 187 CURVE",
"91 187 LINE",
"91 227 OFFCURVE",
"115 247 OFFCURVE",
"171 247 CURVE SMOOTH",
"203 247 OFFCURVE",
"242 229 OFFCURVE",
"285 210 CURVE SMOOTH",
"332 189 OFFCURVE",
"381 167 OFFCURVE",
"441 167 CURVE SMOOTH"
);
}
);
width = 611;
}
);
unicode = 007E;
},
{
glyphname = exclamdown;
lastChange = "2015-09-23 01:10:40 +0000";
layers = (
{
layerId = UUID0;
name = Regular;
paths = (
{
closed = 1;
nodes = (
"186 -194 LINE",
"166 311 LINE",
"72 311 LINE",
"53 -194 LINE"
);
},
{
closed = 1;
nodes = (
"158 358 OFFCURVE",
"180 383 OFFCURVE",
"180 419 CURVE SMOOTH",
"180 455 OFFCURVE",
"158 480 OFFCURVE",
"119 480 CURVE SMOOTH",
"80 480 OFFCURVE",
"58 455 OFFCURVE",
"58 419 CURVE SMOOTH",
"58 383 OFFCURVE",
"80 358 OFFCURVE",
"119 358 CURVE SMOOTH"
);
}
);
width = 239;
}
);
unicode = 00A1;
},
{
glyphname = cent;
lastChange = "2015-09-23 01:10:39 +0000";
layers = (
{
layerId = UUID0;
name = Regular;
paths = (
{
closed = 1;
nodes = (
"301 -50 LINE",
"301 -8 LINE",
"395 0 OFFCURVE",
"438 55 OFFCURVE",
"465 95 CURVE",
"434 118 LINE",
"400 73 OFFCURVE",
"365 38 OFFCURVE",
"301 35 CURVE",
"301 434 LINE",
"373 427 OFFCURVE",
"416 385 OFFCURVE",
"421 305 CURVE",
"451 305 LINE",
"451 381 OFFCURVE",
"451 420 OFFCURVE",
"426 445 CURVE",
"403 466 OFFCURVE",
"361 476 OFFCURVE",
"301 479 CURVE",
"301 520 LINE",
"241 520 LINE",
"241 478 LINE",
"101 465 OFFCURVE",
"31 360 OFFCURVE",
"31 235 CURVE SMOOTH",
"31 110 OFFCURVE",
"101 3 OFFCURVE",
"241 -8 CURVE",
"241 -50 LINE"
);
},
{
closed = 1;
nodes = (
"191 68 OFFCURVE",
"166 131 OFFCURVE",
"166 235 CURVE SMOOTH",
"166 339 OFFCURVE",
"194 401 OFFCURVE",
"241 424 CURVE",
"241 45 LINE"
);
}
);
width = 496;
}
);
unicode = 00A2;
},
{
glyphname = sterling;
lastChange = "2015-09-23 01:10:40 +0000";
layers = (
{
layerId = UUID0;
name = Regular;
paths = (
{
closed = 1;
nodes = (
"411 0 LINE SMOOTH",
"480 0 OFFCURVE",
"496 40 OFFCURVE",
"496 80 CURVE SMOOTH",
"496 165 LINE",
"466 165 LINE",
"466 85 OFFCURVE",
"431 45 OFFCURVE",
"351 45 CURVE SMOOTH",
"161 45 LINE",
"196 74 OFFCURVE",
"231 125 OFFCURVE",
"231 220 CURVE SMOOTH",
"231 320 LINE",
"361 320 LINE",
"361 365 LINE",
"231 365 LINE",
"231 460 LINE SMOOTH",
"231 590 OFFCURVE",
"276 625 OFFCURVE",
"326 625 CURVE SMOOTH",
"377 625 OFFCURVE",
"411 600 OFFCURVE",
"426 535 CURVE",
"481 535 LINE",
"481 570 OFFCURVE",
"481 610 OFFCURVE",
"456 635 CURVE SMOOTH",
"431 660 OFFCURVE",
"366 670 OFFCURVE",
"306 670 CURVE SMOOTH",
"216 670 OFFCURVE",
"101 630 OFFCURVE",
"101 460 CURVE SMOOTH",
"101 365 LINE",
"41 365 LINE",
"41 320 LINE",
"101 320 LINE",
"101 220 LINE SMOOTH",
"101 89 OFFCURVE",
"87 46 OFFCURVE",
"36 30 CURVE",
"36 0 LINE"
);
}
);
width = 535;
}
);
unicode = 00A3;
},
{
glyphname = currency;
lastChange = "2015-09-23 01:10:39 +0000";
layers = (
{
layerId = UUID0;
name = Regular;
paths = (
{
closed = 1;
nodes = (
"246 0 LINE",
"246 190 LINE",
"496 190 LINE",
"496 235 LINE",
"246 235 LINE",
"246 285 LINE",
"306 285 LINE SMOOTH",
"456 285 OFFCURVE",
"576 345 OFFCURVE",
"576 480 CURVE SMOOTH",
"576 605 OFFCURVE",
"456 660 OFFCURVE",
"311 660 CURVE SMOOTH",
"36 660 LINE",
"36 630 LINE",
"46 630 LINE SMOOTH",
"106 630 OFFCURVE",
"116 590 OFFCURVE",
"116 535 CURVE SMOOTH",
"116 330 LINE",
"66 330 LINE",
"66 285 LINE",
"116 285 LINE",
"116 235 LINE",
"66 235 LINE",
"66 190 LINE",
"116 190 LINE",
"116 0 LINE"
);
},
{
closed = 1;
nodes = (
"246 615 LINE",
"266 620 OFFCURVE",
"286 620 OFFCURVE",
"311 620 CURVE SMOOTH",
"366 620 OFFCURVE",
"436 580 OFFCURVE",
"436 480 CURVE SMOOTH",
"436 365 OFFCURVE",
"371 330 OFFCURVE",
"306 330 CURVE SMOOTH",
"246 330 LINE"
);
}
);
width = 605;
}
);
unicode = 00A4;
},
{
glyphname = yen;
lastChange = "2015-09-23 01:10:39 +0000";
layers = (
{
layerId = UUID0;
name = Regular;
paths = (
{
closed = 1;
nodes = (
"461 0 LINE",
"461 135 LINE",
"547 135 LINE",
"547 180 LINE",
"461 180 LINE",
"461 220 LINE",
"547 220 LINE",
"547 265 LINE",
"461 265 LINE",
"461 291 LINE",
"688 660 LINE",
"623 660 LINE",
"429 345 LINE",
"293 550 LINE SMOOTH",
"261 601 OFFCURVE",
"205 660 OFFCURVE",
"130 660 CURVE SMOOTH",
"21 660 LINE",
"21 640 LINE",
"67 635 OFFCURVE",
"119 581 OFFCURVE",
"154 530 CURVE SMOOTH",
"330 265 LINE",
"247 265 LINE",
"247 220 LINE",
"331 220 LINE",
"331 180 LINE",
"247 180 LINE",
"247 135 LINE",
"331 135 LINE",
"331 0 LINE"
);
}
);
width = 711;
}
);
unicode = 00A5;
},
{
glyphname = brokenbar;
lastChange = "2015-09-23 01:10:40 +0000";
layers = (
{
layerId = UUID0;
name = Regular;
paths = (
{
closed = 1;
nodes = (
"199 327 LINE",
"199 680 LINE",
"69 680 LINE",
"69 327 LINE"
);
},
{
closed = 1;
nodes = (
"199 -190 LINE",
"199 163 LINE",
"69 163 LINE",
"69 -190 LINE"
);
}
);
width = 268;
}
);
unicode = 00A6;
},
{
glyphname = section;
lastChange = "2015-09-23 01:10:39 +0000";
layers = (
{
layerId = UUID0;
name = Regular;
paths = (
{
closed = 1;
nodes = (
"312 -200 OFFCURVE",
"395 -154 OFFCURVE",
"395 -47 CURVE SMOOTH",
"395 20 OFFCURVE",
"349 63 OFFCURVE",
"296 100 CURVE",
"364 127 OFFCURVE",
"410 177 OFFCURVE",
"410 245 CURVE SMOOTH",
"410 322 OFFCURVE",
"340 368 OFFCURVE",
"279 408 CURVE SMOOTH",
"226 443 OFFCURVE",
"180 470 OFFCURVE",
"180 537 CURVE SMOOTH",
"180 601 OFFCURVE",
"209 625 OFFCURVE",
"260 625 CURVE SMOOTH",
"320 625 OFFCURVE",
"357 584 OFFCURVE",
"368 519 CURVE",
"400 519 LINE",
"400 570 OFFCURVE",
"400 600 OFFCURVE",
"371 629 CURVE SMOOTH",
"344 656 OFFCURVE",
"291 670 OFFCURVE",
"230 670 CURVE SMOOTH",
"138 670 OFFCURVE",
"55 624 OFFCURVE",
"55 517 CURVE SMOOTH",
"55 450 OFFCURVE",
"99 406 OFFCURVE",
"152 370 CURVE",
"88 342 OFFCURVE",
"40 288 OFFCURVE",
"40 225 CURVE SMOOTH",
"40 146 OFFCURVE",
"109 103 OFFCURVE",
"171 63 CURVE SMOOTH",
"224 28 OFFCURVE",
"271 0 OFFCURVE",
"271 -67 CURVE SMOOTH",
"271 -131 OFFCURVE",
"241 -155 OFFCURVE",
"190 -155 CURVE SMOOTH",
"130 -155 OFFCURVE",
"93 -114 OFFCURVE",
"82 -49 CURVE",
"50 -49 LINE",
"50 -100 OFFCURVE",
"50 -130 OFFCURVE",
"79 -159 CURVE SMOOTH",
"106 -186 OFFCURVE",
"159 -200 OFFCURVE",
"220 -200 CURVE SMOOTH"
);
},
{
closed = 1;
nodes = (
"198 158 OFFCURVE",
"149 200 OFFCURVE",
"149 255 CURVE SMOOTH",
"149 306 OFFCURVE",
"164 333 OFFCURVE",
"192 344 CURVE",
"252 309 OFFCURVE",
"301 270 OFFCURVE",
"301 215 CURVE SMOOTH",
"301 162 OFFCURVE",
"286 136 OFFCURVE",
"258 125 CURVE"
);
}
);
width = 450;
}
);
unicode = 00A7;
},
{
glyphname = dieresis;
lastChange = "2015-09-23 01:10:40 +0000";
layers = (
{
layerId = UUID0;
name = Regular;
paths = (
{
closed = 1;
nodes = (
"261 690 OFFCURVE",
"282 715 OFFCURVE",
"282 746 CURVE SMOOTH",
"282 777 OFFCURVE",
"261 802 OFFCURVE",
"226 802 CURVE SMOOTH",
"191 802 OFFCURVE",
"170 777 OFFCURVE",
"170 746 CURVE SMOOTH",
"170 715 OFFCURVE",
"191 690 OFFCURVE",
"226 690 CURVE SMOOTH"
);
},
{
closed = 1;
nodes = (
"91 690 OFFCURVE",
"112 715 OFFCURVE",
"112 746 CURVE SMOOTH",
"112 777 OFFCURVE",
"91 802 OFFCURVE",
"56 802 CURVE SMOOTH",
"21 802 OFFCURVE",
"0 777 OFFCURVE",
"0 746 CURVE SMOOTH",
"0 715 OFFCURVE",
"21 690 OFFCURVE",
"56 690 CURVE SMOOTH"
);
}
);
width = 282;
}
);
unicode = 00A8;
},
{
glyphname = copyright;
lastChange = "2015-09-23 01:10:40 +0000";
layers = (
{
layerId = UUID0;
name = Regular;
paths = (
{
closed = 1;
nodes = (
"617 -28 OFFCURVE",
"773 123 OFFCURVE",
"773 330 CURVE SMOOTH",
"773 537 OFFCURVE",
"617 688 OFFCURVE",
"403 688 CURVE SMOOTH",
"189 688 OFFCURVE",
"33 537 OFFCURVE",
"33 330 CURVE SMOOTH",
"33 123 OFFCURVE",
"189 -28 OFFCURVE",
"403 -28 CURVE SMOOTH"
);
},
{
closed = 1;
nodes = (
"490 102 OFFCURVE",
"549 132 OFFCURVE",
"592 212 CURVE",
"567 230 LINE",
"528 166 OFFCURVE",
"480 134 OFFCURVE",
"423 134 CURVE SMOOTH",
"324 134 OFFCURVE",
"283 231 OFFCURVE",
"283 327 CURVE SMOOTH",
"283 482 OFFCURVE",
"347 533 OFFCURVE",
"423 533 CURVE SMOOTH",
"499 533 OFFCURVE",
"537 494 OFFCURVE",
"553 409 CURVE",
"584 409 LINE",
"584 448 OFFCURVE",
"584 487 OFFCURVE",
"563 512 CURVE SMOOTH",
"540 540 OFFCURVE",
"488 565 OFFCURVE",
"403 565 CURVE SMOOTH",
"285 565 OFFCURVE",
"188 460 OFFCURVE",
"188 327 CURVE SMOOTH",
"188 202 OFFCURVE",
"271 102 OFFCURVE",
"403 102 CURVE SMOOTH"
);
},
{
closed = 1;
nodes = (
"227 17 OFFCURVE",
"103 146 OFFCURVE",
"103 330 CURVE SMOOTH",
"103 514 OFFCURVE",
"227 643 OFFCURVE",
"403 643 CURVE SMOOTH",
"579 643 OFFCURVE",
"703 514 OFFCURVE",
"703 330 CURVE SMOOTH",
"703 146 OFFCURVE",
"579 17 OFFCURVE",
"403 17 CURVE SMOOTH"
);
}
);
width = 806;
}
);
unicode = 00A9;
},
{
glyphname = ordfeminine;
lastChange = "2015-09-23 01:10:39 +0000";
layers = (
{
layerId = UUID0;
name = Regular;
paths = (
{
closed = 1;
nodes = (
"168 396 OFFCURVE",
"188 413 OFFCURVE",
"200 426 CURVE",
"203 426 LINE",
"222 401 LINE",
"268 401 LINE",
"268 547 LINE SMOOTH",
"268 644 OFFCURVE",
"219 660 OFFCURVE",
"160 660 CURVE SMOOTH",
"123 660 OFFCURVE",
"88 656 OFFCURVE",
"75 641 CURVE",
"60 626 OFFCURVE",
"61 602 OFFCURVE",
"61 583 CURVE",
"90 583 LINE",
"97 615 OFFCURVE",
"113 635 OFFCURVE",
"150 635 CURVE SMOOTH",
"172 635 OFFCURVE",
"196 623 OFFCURVE",
"196 547 CURVE",
"180 547 LINE SMOOTH",
"88 547 OFFCURVE",
"42 517 OFFCURVE",
"42 466 CURVE SMOOTH",
"42 415 OFFCURVE",
"83 396 OFFCURVE",
"131 396 CURVE SMOOTH"
);
},
{
closed = 1;
nodes = (
"133 421 OFFCURVE",
"114 431 OFFCURVE",
"114 466 CURVE SMOOTH",
"114 499 OFFCURVE",
"141 522 OFFCURVE",
"180 522 CURVE SMOOTH",
"196 522 LINE",
"196 455 LINE",
"188 440 OFFCURVE",
"173 421 OFFCURVE",
"150 421 CURVE SMOOTH"
);
}
);
width = 324;
}
);
unicode = 00AA;
},
{
glyphname = guillemotleft;
lastChange = "2015-09-23 01:10:39 +0000";
layers = (
{
layerId = UUID0;
name = Regular;
paths = (
{
closed = 1;
nodes = (
"253 30 LINE",
"156 226 LINE",
"253 420 LINE",
"189 420 LINE",
"31 225 LINE",
"189 30 LINE"
);
},
{
closed = 1;
nodes = (
"372 80 LINE",
"310 225 LINE",
"372 370 LINE",
"308 370 LINE",
"206 225 LINE",
"308 80 LINE"
);
}
);
width = 425;
}
);
leftKerningGroup = guilsinglleft;
unicode = 00AB;
},
{
glyphname = logicalnot;
lastChange = "2015-09-23 01:10:40 +0000";
layers = (
{
layerId = UUID0;
name = Regular;
paths = (
{
closed = 1;
nodes = (
"603 115 LINE",
"603 290 LINE",
"58 290 LINE",
"58 220 LINE",
"513 220 LINE",
"513 115 LINE"
);
}
);
width = 662;
}
);
unicode = 00AC;
},
{
glyphname = registered;
lastChange = "2015-09-23 01:10:40 +0000";
layers = (
{
layerId = UUID0;
name = Regular;
paths = (
{
closed = 1;
nodes = (
"617 -25 OFFCURVE",
"773 123 OFFCURVE",
"773 330 CURVE SMOOTH",
"773 537 OFFCURVE",
"617 685 OFFCURVE",
"403 685 CURVE SMOOTH",
"189 685 OFFCURVE",
"33 537 OFFCURVE",
"33 330 CURVE SMOOTH",
"33 123 OFFCURVE",
"189 -25 OFFCURVE",
"403 -25 CURVE SMOOTH"
);
},
{
closed = 1;
nodes = (
"227 20 OFFCURVE",
"103 146 OFFCURVE",
"103 330 CURVE SMOOTH",
"103 514 OFFCURVE",
"227 640 OFFCURVE",
"403 640 CURVE SMOOTH",
"579 640 OFFCURVE",
"703 514 OFFCURVE",
"703 330 CURVE SMOOTH",
"703 146 OFFCURVE",
"579 20 OFFCURVE",
"403 20 CURVE SMOOTH"
);
},
{
closed = 1;
nodes = (
"590 118 OFFCURVE",
"607 124 OFFCURVE",
"607 125 CURVE SMOOTH",
"607 139 LINE",
"575 143 OFFCURVE",
"554 168 OFFCURVE",
"523 216 CURVE SMOOTH",
"455 326 LINE",
"503 337 OFFCURVE",
"558 365 OFFCURVE",
"558 434 CURVE SMOOTH",
"558 530 OFFCURVE",
"472 555 OFFCURVE",
"381 555 CURVE SMOOTH",
"208 555 LINE",
"208 539 LINE",
"226 539 LINE SMOOTH",
"253 539 OFFCURVE",
"256 514 OFFCURVE",
"256 477 CURVE SMOOTH",
"256 125 LINE",
"344 125 LINE",
"344 320 LINE",
"364 320 LINE",
"431 212 LINE SMOOTH",
"475 141 OFFCURVE",
"504 118 OFFCURVE",
"555 118 CURVE SMOOTH"
);
},
{
closed = 1;
nodes = (
"369 349 OFFCURVE",
"362 349 OFFCURVE",
"355 350 CURVE SMOOTH",
"352 350 OFFCURVE",
"348 350 OFFCURVE",
"344 351 CURVE",
"344 524 LINE",
"347 524 OFFCURVE",
"351 524 OFFCURVE",
"354 525 CURVE",
"361 525 OFFCURVE",
"367 526 OFFCURVE",
"378 526 CURVE SMOOTH",
"427 526 OFFCURVE",
"463 502 OFFCURVE",
"463 438 CURVE SMOOTH",
"463 373 OFFCURVE",
"427 349 OFFCURVE",
"378 349 CURVE SMOOTH"
);
}
);
width = 806;
}
);
unicode = 00AE;
},
{
glyphname = degree;
lastChange = "2015-09-23 01:10:40 +0000";
layers = (
{
layerId = UUID0;
name = Regular;
paths = (
{
closed = 1;
nodes = (
"318 360 OFFCURVE",
"378 430 OFFCURVE",
"378 520 CURVE SMOOTH",
"378 610 OFFCURVE",
"318 680 OFFCURVE",
"208 680 CURVE SMOOTH",
"98 680 OFFCURVE",
"38 610 OFFCURVE",
"38 520 CURVE SMOOTH",
"38 430 OFFCURVE",
"98 360 OFFCURVE",
"208 360 CURVE SMOOTH"
);
},
{
closed = 1;
nodes = (
"157 420 OFFCURVE",
"118 460 OFFCURVE",
"118 520 CURVE SMOOTH",
"118 580 OFFCURVE",
"157 620 OFFCURVE",
"208 620 CURVE SMOOTH",
"259 620 OFFCURVE",
"298 580 OFFCURVE",
"298 520 CURVE SMOOTH",
"298 460 OFFCURVE",
"259 420 OFFCURVE",
"208 420 CURVE SMOOTH"
);
}
);
width = 416;
}
);
unicode = 00B0;
},
{
glyphname = plusminus;
lastChange = "2015-09-23 01:10:39 +0000";
layers = (
{
layerId = UUID0;
name = Regular;
paths = (
{
closed = 1;
nodes = (
"533 55 LINE",
"533 125 LINE",
"336 125 LINE",
"336 295 LINE",
"533 295 LINE",
"533 365 LINE",
"336 365 LINE",
"336 560 LINE",
"246 560 LINE",
"246 365 LINE",
"49 365 LINE",
"49 295 LINE",
"246 295 LINE",
"246 125 LINE",
"49 125 LINE",
"49 55 LINE"
);
}
);
width = 582;
}
);
unicode = 00B1;
},
{
glyphname = twosuperior;
lastChange = "2015-09-23 01:10:40 +0000";
layers = (
{
layerId = UUID0;
name = Regular;
paths = (
{
closed = 1;
nodes = (
"224 377 LINE SMOOTH",
"256 377 OFFCURVE",
"263 394 OFFCURVE",
"263 413 CURVE SMOOTH",
"263 448 LINE",
"248 448 LINE",
"248 416 OFFCURVE",
"228 404 OFFCURVE",
"191 404 CURVE SMOOTH",
"110 404 LINE",
"192 484 OFFCURVE",
"264 524 OFFCURVE",
"264 602 CURVE SMOOTH",
"264 671 OFFCURVE",
"208 689 OFFCURVE",
"160 689 CURVE SMOOTH",
"120 689 OFFCURVE",
"86 673 OFFCURVE",
"69 653 CURVE",
"58 638 OFFCURVE",
"58 606 OFFCURVE",
"58 583 CURVE",
"74 583 LINE",
"83 634 OFFCURVE",
"106 662 OFFCURVE",
"147 662 CURVE SMOOTH",
"175 662 OFFCURVE",
"192 649 OFFCURVE",
"192 602 CURVE SMOOTH",
"192 532 OFFCURVE",
"146 496 OFFCURVE",
"53 400 CURVE",
"53 377 LINE"
);
}
);
width = 318;
}
);
unicode = 00B2;
},
{
glyphname = threesuperior;
lastChange = "2015-09-23 01:10:40 +0000";
layers = (
{
layerId = UUID0;
name = Regular;
paths = (
{
closed = 1;
nodes = (
"192 367 OFFCURVE",
"266 385 OFFCURVE",
"266 462 CURVE SMOOTH",
"266 525 OFFCURVE",
"207 551 OFFCURVE",
"155 551 CURVE SMOOTH",
"148 551 OFFCURVE",
"132 551 OFFCURVE",
"116 547 CURVE",
"244 662 LINE",
"244 680 LINE",
"91 680 LINE SMOOTH",
"59 680 OFFCURVE",
"52 662 OFFCURVE",
"52 643 CURVE SMOOTH",
"52 610 LINE",
"65 610 LINE",
"65 639 OFFCURVE",
"82 653 OFFCURVE",
"115 653 CURVE SMOOTH",
"193 653 LINE",
"75 546 LINE",
"91 518 LINE",
"110 523 OFFCURVE",
"119 524 OFFCURVE",
"134 524 CURVE SMOOTH",
"165 524 OFFCURVE",
"194 510 OFFCURVE",
"194 462 CURVE SMOOTH",
"194 413 OFFCURVE",
"167 394 OFFCURVE",
"140 394 CURVE SMOOTH",
"107 394 OFFCURVE",
"79 406 OFFCURVE",
"57 430 CURVE",
"43 418 LINE",
"68 387 OFFCURVE",
"98 367 OFFCURVE",
"154 367 CURVE SMOOTH"
);
}
);
width = 304;
}
);
unicode = 00B3;
},
{
glyphname = acute;
lastChange = "2015-09-23 01:10:40 +0000";
layers = (
{
layerId = UUID0;
name = Regular;
paths = (
{
closed = 1;
nodes = (
"75 700 LINE",
"181 840 LINE",
"62 840 LINE",
"20 700 LINE"
);
}
);
width = 201;
}
);
unicode = 00B4;
},
{
glyphname = mu;
lastChange = "2015-09-23 01:10:40 +0000";
layers = (
{
layerId = UUID0;
name = Regular;
paths = (
{
closed = 1;
nodes = (
"173 -190 LINE",
"173 35 LINE",
"204 4 OFFCURVE",
"233 -10 OFFCURVE",
"273 -10 CURVE SMOOTH",
"308 -10 OFFCURVE",
"333 2 OFFCURVE",
"352 17 CURVE SMOOTH",
"362 25 OFFCURVE",
"371 34 OFFCURVE",
"378 45 CURVE",
"383 45 LINE",
"418 0 LINE",
"503 0 LINE",
"503 470 LINE",
"373 470 LINE",
"373 100 LINE",
"358 65 OFFCURVE",
"333 35 OFFCURVE",
"288 35 CURVE SMOOTH",
"228 35 OFFCURVE",
"193 99 OFFCURVE",
"193 235 CURVE SMOOTH",
"193 470 LINE",
"63 470 LINE",
"63 -190 LINE"
);
}
);
width = 550;
}
);
unicode = 00B5;
},
{
glyphname = paragraph;
lastChange = "2015-09-23 01:10:40 +0000";
layers = (
{
layerId = UUID0;
name = Regular;
paths = (
{
closed = 1;
nodes = (
"376 -190 LINE",
"376 615 LINE",
"421 615 LINE",
"421 -190 LINE",
"541 -190 LINE",
"541 615 LINE",
"596 615 LINE",
"596 660 LINE",
"256 660 LINE SMOOTH",
"125 660 OFFCURVE",
"26 580 OFFCURVE",
"26 465 CURVE SMOOTH",
"26 350 OFFCURVE",
"125 270 OFFCURVE",
"256 270 CURVE",
"256 -190 LINE"
);
}
);
width = 634;
}
);
unicode = 00B6;
},
{
glyphname = periodcentered;
lastChange = "2015-09-23 01:10:40 +0000";
layers = (
{
layerId = UUID0;
name = Regular;
paths = (
{
closed = 1;
nodes = (
"152 270 OFFCURVE",
"174 295 OFFCURVE",
"174 331 CURVE SMOOTH",
"174 367 OFFCURVE",
"152 392 OFFCURVE",
"113 392 CURVE SMOOTH",
"74 392 OFFCURVE",
"52 367 OFFCURVE",
"52 331 CURVE SMOOTH",
"52 295 OFFCURVE",
"74 270 OFFCURVE",
"113 270 CURVE SMOOTH"
);
}
);
width = 226;
}
);
unicode = 00B7;
},
{
glyphname = cedilla;
lastChange = "2015-09-23 01:10:39 +0000";
layers = (
{
layerId = UUID0;
name = Regular;
paths = (
{
closed = 1;
nodes = (
"110 -206 LINE SMOOTH",
"166 -206 OFFCURVE",
"200 -175 OFFCURVE",
"200 -128 CURVE SMOOTH",
"200 -80 OFFCURVE",
"166 -50 OFFCURVE",
"110 -50 CURVE",
"110 0 LINE",
"45 0 LINE",
"45 -95 LINE",
"90 -95 LINE SMOOTH",
"115 -95 OFFCURVE",
"130 -109 OFFCURVE",
"130 -128 CURVE SMOOTH",
"130 -145 OFFCURVE",
"115 -160 OFFCURVE",
"90 -160 CURVE SMOOTH",
"40 -160 LINE",
"40 -206 LINE"
);
}
);
width = 200;
}
);
unicode = 00B8;
},
{
glyphname = onesuperior;
lastChange = "2015-09-23 01:10:39 +0000";
layers = (
{
layerId = UUID0;
name = Regular;
paths = (
{
closed = 1;
nodes = (
"152 377 LINE",
"152 680 LINE",
"98 680 LINE",
"30 616 LINE",
"46 594 LINE",
"80 614 LINE",
"80 377 LINE"
);
}
);
width = 214;
}
);
unicode = 00B9;
},
{
glyphname = ordmasculine;
lastChange = "2015-09-23 01:10:40 +0000";
layers = (
{
layerId = UUID0;
name = Regular;
paths = (
{
closed = 1;
nodes = (
"259 367 OFFCURVE",
"294 442 OFFCURVE",
"294 528 CURVE SMOOTH",
"294 615 OFFCURVE",
"259 689 OFFCURVE",
"168 689 CURVE SMOOTH",
"79 689 OFFCURVE",
"43 615 OFFCURVE",
"43 528 CURVE SMOOTH",
"43 442 OFFCURVE",
"79 367 OFFCURVE",
"168 367 CURVE SMOOTH"
);
},
{
closed = 1;
nodes = (
"138 392 OFFCURVE",
"115 422 OFFCURVE",
"115 528 CURVE SMOOTH",
"115 636 OFFCURVE",
"138 664 OFFCURVE",
"168 664 CURVE SMOOTH",
"199 664 OFFCURVE",
"222 636 OFFCURVE",
"222 528 CURVE SMOOTH",
"222 422 OFFCURVE",
"200 392 OFFCURVE",
"168 392 CURVE SMOOTH"
);
}
);
width = 337;
}
);
unicode = 00BA;
},
{
glyphname = guillemotright;
lastChange = "2015-09-23 01:10:40 +0000";
layers = (
{
layerId = UUID0;
name = Regular;
paths = (
{
closed = 1;
nodes = (
"236 30 LINE",
"394 225 LINE",
"236 420 LINE",
"172 420 LINE",
"269 226 LINE",
"172 30 LINE"
);
},
{
closed = 1;
nodes = (
"117 80 LINE",
"219 225 LINE",
"117 370 LINE",
"53 370 LINE",
"115 225 LINE",
"53 80 LINE"
);
}
);
width = 425;
}
);
leftKerningGroup = guilsinglright;
rightKerningGroup = guilsinglright;
unicode = 00BB;
},
{
glyphname = onequarter;
lastChange = "2015-09-23 01:10:39 +0000";
layers = (
{
layerId = UUID0;
name = Regular;
paths = (
{
closed = 1;
nodes = (
"121 0 LINE",
"576 660 LINE",
"481 660 LINE",
"26 0 LINE"
);
},
{
closed = 1;
nodes = (
"467 246 LINE",
"467 100 LINE",
"361 100 LINE"
);
},
{
closed = 1;
nodes = (
"539 0 LINE",
"539 73 LINE",
"573 73 LINE",
"573 100 LINE",
"539 100 LINE",
"539 304 LINE",
"472 304 LINE",
"322 97 LINE",
"322 73 LINE",
"467 73 LINE",
"467 0 LINE"
);
},
{
closed = 1;
nodes = (
"185 377 LINE",
"185 680 LINE",
"131 680 LINE",
"63 616 LINE",
"79 594 LINE",
"113 614 LINE",
"113 377 LINE"
);
}
);
width = 617;
}
);
unicode = 00BC;
},
{
glyphname = onehalf;
lastChange = "2015-09-23 01:10:40 +0000";
layers = (
{
layerId = UUID0;
name = Regular;
paths = (
{
closed = 1;
nodes = (
"121 0 LINE",
"576 660 LINE",
"481 660 LINE",
"26 0 LINE"
);
},
{
closed = 1;
nodes = (
"543 0 LINE SMOOTH",
"575 0 OFFCURVE",
"582 17 OFFCURVE",
"582 36 CURVE SMOOTH",
"582 71 LINE",
"567 71 LINE",
"567 39 OFFCURVE",
"547 27 OFFCURVE",
"510 27 CURVE SMOOTH",
"429 27 LINE",
"511 107 OFFCURVE",
"583 147 OFFCURVE",
"583 225 CURVE SMOOTH",
"583 294 OFFCURVE",
"527 312 OFFCURVE",
"479 312 CURVE SMOOTH",
"439 312 OFFCURVE",
"405 296 OFFCURVE",
"388 276 CURVE",
"377 261 OFFCURVE",
"377 229 OFFCURVE",
"377 206 CURVE",
"393 206 LINE",
"402 257 OFFCURVE",
"425 285 OFFCURVE",
"466 285 CURVE SMOOTH",
"494 285 OFFCURVE",
"511 272 OFFCURVE",
"511 225 CURVE SMOOTH",
"511 155 OFFCURVE",
"465 119 OFFCURVE",
"372 23 CURVE",
"372 0 LINE"
);
},
{
closed = 1;
nodes = (
"185 377 LINE",
"185 680 LINE",
"131 680 LINE",
"63 616 LINE",
"79 594 LINE",
"113 614 LINE",
"113 377 LINE"
);
}
);
width = 632;
}
);
unicode = 00BD;
},
{
glyphname = threequarters;
lastChange = "2015-09-23 01:10:39 +0000";
layers = (
{
layerId = UUID0;
name = Regular;
paths = (
{
closed = 1;
nodes = (
"140 0 LINE",
"595 660 LINE",
"500 660 LINE",
"45 0 LINE"
);
},
{
closed = 1;
nodes = (
"476 246 LINE",
"476 100 LINE",
"370 100 LINE"
);
},
{
closed = 1;
nodes = (
"548 0 LINE",
"548 73 LINE",
"582 73 LINE",
"582 100 LINE",
"548 100 LINE",
"548 304 LINE",
"481 304 LINE",
"331 97 LINE",
"331 73 LINE",
"476 73 LINE",
"476 0 LINE"
);
},
{
closed = 1;
nodes = (
"186 367 OFFCURVE",
"260 385 OFFCURVE",
"260 462 CURVE SMOOTH",
"260 525 OFFCURVE",
"201 551 OFFCURVE",
"149 551 CURVE SMOOTH",
"142 551 OFFCURVE",
"126 551 OFFCURVE",
"110 547 CURVE",
"238 662 LINE",
"238 680 LINE",
"85 680 LINE SMOOTH",
"53 680 OFFCURVE",
"46 662 OFFCURVE",
"46 643 CURVE SMOOTH",
"46 610 LINE",
"59 610 LINE",
"59 639 OFFCURVE",
"76 653 OFFCURVE",
"109 653 CURVE SMOOTH",
"187 653 LINE",
"69 546 LINE",
"85 518 LINE",
"104 523 OFFCURVE",
"113 524 OFFCURVE",
"128 524 CURVE SMOOTH",
"159 524 OFFCURVE",
"188 510 OFFCURVE",
"188 462 CURVE SMOOTH",
"188 413 OFFCURVE",
"161 394 OFFCURVE",
"134 394 CURVE SMOOTH",
"101 394 OFFCURVE",
"73 406 OFFCURVE",
"51 430 CURVE",
"37 418 LINE",
"62 387 OFFCURVE",
"92 367 OFFCURVE",
"148 367 CURVE SMOOTH"
);
}
);
width = 626;
}
);
unicode = 00BE;
},
{
glyphname = questiondown;
lastChange = "2015-09-23 01:10:40 +0000";
layers = (
{
layerId = UUID0;
name = Regular;
paths = (
{
closed = 1;
nodes = (
"323 -212 OFFCURVE",
"403 -174 OFFCURVE",
"440 -131 CURVE",
"467 -96 OFFCURVE",
"466 -38 OFFCURVE",
"466 21 CURVE",
"436 21 LINE",
"412 -114 OFFCURVE",
"346 -167 OFFCURVE",
"270 -167 CURVE SMOOTH",
"210 -167 OFFCURVE",
"166 -132 OFFCURVE",
"166 -19 CURVE SMOOTH",
"166 130 OFFCURVE",
"285 164 OFFCURVE",
"293 312 CURVE",
"225 312 LINE",
"213 169 OFFCURVE",
"26 149 OFFCURVE",
"26 -19 CURVE SMOOTH",
"26 -142 OFFCURVE",
"118 -212 OFFCURVE",
"240 -212 CURVE SMOOTH"
);
},
{
closed = 1;
nodes = (
"298 360 OFFCURVE",
"320 385 OFFCURVE",
"320 421 CURVE SMOOTH",
"320 457 OFFCURVE",
"298 482 OFFCURVE",
"259 482 CURVE SMOOTH",
"220 482 OFFCURVE",
"198 457 OFFCURVE",
"198 421 CURVE SMOOTH",
"198 385 OFFCURVE",
"220 360 OFFCURVE",
"259 360 CURVE SMOOTH"
);
}
);
width = 492;
}
);
unicode = 00BF;
},
{
glyphname = Aring;
lastChange = "2015-09-23 01:10:40 +0000";
layers = (
{
layerId = UUID0;
name = Regular;
paths = (
{
closed = 1;
nodes = (
"643 -4 OFFCURVE",
"665 -2 OFFCURVE",
"676 1 CURVE",
"676 26 LINE",
"631 31 OFFCURVE",
"596 67 OFFCURVE",
"572 126 CURVE SMOOTH",
"365 619 LINE",
"389 630 OFFCURVE",
"420 661 OFFCURVE",
"420 705 CURVE SMOOTH",
"420 761 OFFCURVE",
"381 800 OFFCURVE",
"325 800 CURVE SMOOTH",
"269 800 OFFCURVE",
"230 761 OFFCURVE",
"230 705 CURVE SMOOTH",
"230 661 OFFCURVE",
"260 631 OFFCURVE",
"284 619 CURVE",
"8 0 LINE",
"60 0 LINE",
"142 182 LINE",
"408 182 LINE",
"431 126 LINE SMOOTH",
"479 12 OFFCURVE",
"562 -4 OFFCURVE",
"628 -4 CURVE SMOOTH"
);
},
{
closed = 1;
nodes = (
"279 488 LINE",
"389 227 LINE",
"163 227 LINE"
);
},
{
closed = 1;
nodes = (
"288 670 OFFCURVE",
"280 685 OFFCURVE",
"280 705 CURVE SMOOTH",
"280 736 OFFCURVE",
"300 755 OFFCURVE",
"325 755 CURVE SMOOTH",
"350 755 OFFCURVE",
"370 736 OFFCURVE",
"370 705 CURVE SMOOTH",
"370 685 OFFCURVE",
"363 670 OFFCURVE",
"348 660 CURVE",
"303 660 LINE"
);
}
);
width = 647;
}
);
leftKerningGroup = A;
rightKerningGroup = A;
unicode = 00C5;
},
{
glyphname = AE;
lastChange = "2015-09-23 01:10:40 +0000";
layers = (
{
layerId = UUID0;
name = Regular;
paths = (
{
closed = 1;
nodes = (
"38 0 LINE",
"145 190 LINE",
"363 190 LINE",
"363 0 LINE",
"733 0 LINE SMOOTH",
"788 0 OFFCURVE",
"805 27 OFFCURVE",
"820 70 CURVE SMOOTH",
"849 149 LINE",
"822 159 LINE",
"787 72 OFFCURVE",
"737 45 OFFCURVE",
"664 45 CURVE SMOOTH",
"493 45 LINE",
"493 320 LINE",
"753 320 LINE",
"753 365 LINE",
"493 365 LINE",
"493 615 LINE",
"654 615 LINE SMOOTH",
"734 615 OFFCURVE",
"779 580 OFFCURVE",
"779 495 CURVE",
"809 495 LINE",
"809 580 LINE SMOOTH",
"809 620 OFFCURVE",
"793 660 OFFCURVE",
"724 660 CURVE SMOOTH",
"348 660 LINE",
"-22 0 LINE"
);
},
{
closed = 1;
nodes = (
"363 579 LINE",
"363 235 LINE",
"170 235 LINE"
);
}
);
width = 868;
}
);
rightKerningGroup = E;
unicode = 00C6;
},
{
glyphname = Ccedilla;
lastChange = "2015-09-23 01:10:39 +0000";
layers = (
{
layerId = UUID0;
name = Regular;
paths = (
{
closed = 1;
nodes = (
"387 -206 LINE SMOOTH",
"443 -206 OFFCURVE",
"477 -175 OFFCURVE",
"477 -128 CURVE SMOOTH",
"477 -80 OFFCURVE",
"443 -50 OFFCURVE",
"387 -50 CURVE",
"387 -19 LINE",
"515 -15 OFFCURVE",
"595 34 OFFCURVE",
"655 141 CURVE",
"620 168 LINE",
"572 75 OFFCURVE",
"489 25 OFFCURVE",
"397 25 CURVE SMOOTH",
"238 25 OFFCURVE",
"177 167 OFFCURVE",
"177 320 CURVE SMOOTH",
"177 563 OFFCURVE",
"274 635 OFFCURVE",
"397 635 CURVE SMOOTH",
"508 635 OFFCURVE",
"575 568 OFFCURVE",
"600 447 CURVE",
"630 447 LINE",
"630 506 OFFCURVE",
"631 564 OFFCURVE",
"604 599 CURVE",
"567 642 OFFCURVE",
"492 680 OFFCURVE",
"367 680 CURVE SMOOTH",
"178 680 OFFCURVE",
"37 522 OFFCURVE",
"37 320 CURVE SMOOTH",
"37 142 OFFCURVE",
"141 2 OFFCURVE",
"322 -17 CURVE",
"322 -95 LINE",
"367 -95 LINE SMOOTH",
"392 -95 OFFCURVE",
"407 -109 OFFCURVE",
"407 -128 CURVE SMOOTH",
"407 -145 OFFCURVE",
"392 -160 OFFCURVE",
"367 -160 CURVE SMOOTH",
"317 -160 LINE",
"317 -206 LINE"
);
}
);
width = 679;
}
);
leftKerningGroup = C;
rightKerningGroup = C;
unicode = 00C7;
},
{
glyphname = Idieresis;
lastChange = "2015-09-23 01:10:39 +0000";
layers = (
{
layerId = UUID0;
name = Regular;
paths = (
{
closed = 1;
nodes = (
"289 0 LINE",
"289 30 LINE",
"279 30 LINE SMOOTH",
"219 30 OFFCURVE",
"209 70 OFFCURVE",
"209 130 CURVE SMOOTH",
"209 660 LINE",
"79 660 LINE",
"79 130 LINE SMOOTH",
"79 29 OFFCURVE",
"99 0 OFFCURVE",
"169 0 CURVE SMOOTH"
);
},
{
closed = 1;
nodes = (
"96 715 OFFCURVE",
"117 740 OFFCURVE",
"117 771 CURVE SMOOTH",
"117 802 OFFCURVE",
"96 827 OFFCURVE",
"61 827 CURVE SMOOTH",
"26 827 OFFCURVE",
"5 802 OFFCURVE",
"5 771 CURVE SMOOTH",
"5 740 OFFCURVE",
"26 715 OFFCURVE",
"61 715 CURVE SMOOTH"
);
},
{
closed = 1;
nodes = (
"262 715 OFFCURVE",
"283 740 OFFCURVE",
"283 771 CURVE SMOOTH",
"283 802 OFFCURVE",
"262 827 OFFCURVE",
"227 827 CURVE SMOOTH",
"192 827 OFFCURVE",
"171 802 OFFCURVE",
"171 771 CURVE SMOOTH",
"171 740 OFFCURVE",
"192 715 OFFCURVE",
"227 715 CURVE SMOOTH"
);
}
);
width = 304;
}
);
leftKerningGroup = I;
rightKerningGroup = H;
unicode = 00CF;
},
{
glyphname = Eth;
lastChange = "2015-09-23 01:10:40 +0000";
layers = (
{
layerId = UUID0;
name = Regular;
paths = (
{
closed = 1;
nodes = (
"313 0 LINE SMOOTH",
"565 0 OFFCURVE",
"700 137 OFFCURVE",
"700 334 CURVE SMOOTH",
"700 537 OFFCURVE",
"561 660 OFFCURVE",
"287 660 CURVE SMOOTH",
"15 660 LINE",
"15 630 LINE",
"25 630 LINE SMOOTH",
"85 630 OFFCURVE",
"95 590 OFFCURVE",
"95 530 CURVE SMOOTH",
"95 355 LINE",
"25 355 LINE",
"25 305 LINE",
"95 305 LINE",
"95 0 LINE"
);
},
{
closed = 1;
nodes = (
"279 40 OFFCURVE",
"261 41 OFFCURVE",
"247 43 CURVE SMOOTH",
"225 47 LINE",
"225 305 LINE",
"300 305 LINE",
"300 355 LINE",
"225 355 LINE",
"225 613 LINE",
"247 616 LINE SMOOTH",
"262 619 OFFCURVE",
"280 620 OFFCURVE",
"300 620 CURVE SMOOTH",
"308 620 LINE SMOOTH",
"452 620 OFFCURVE",
"550 506 OFFCURVE",
"550 330 CURVE SMOOTH",
"550 150 OFFCURVE",
"449 40 OFFCURVE",
"310 40 CURVE SMOOTH",
"300 40 LINE SMOOTH"
);
}
);
width = 736;
}
);
leftKerningGroup = B;
rightKerningGroup = D;
unicode = 00D0;
},
{
glyphname = multiply;
lastChange = "2015-09-23 01:10:40 +0000";
layers = (
{
layerId = UUID0;
name = Regular;
paths = (
{
closed = 1;
nodes = (
"245 271 LINE",
"382 133 LINE",
"446 196 LINE",
"308 334 LINE",
"448 474 LINE",
"384 537 LINE",
"245 398 LINE",
"107 536 LINE",
"43 472 LINE",
"181 334 LINE",
"42 195 LINE",
"105 132 LINE"
);
}
);
width = 489;
}
);
unicode = 00D7;
},
{
glyphname = Oslash;
lastChange = "2015-09-23 01:10:40 +0000";
layers = (
{
layerId = UUID0;
name = Regular;
paths = (
{
closed = 1;
nodes = (
"199 -20 LINE",
"219 13 LINE",
"262 -8 OFFCURVE",
"311 -20 OFFCURVE",
"367 -20 CURVE SMOOTH",
"566 -20 OFFCURVE",
"696 133 OFFCURVE",
"696 330 CURVE SMOOTH",
"696 446 OFFCURVE",
"652 543 OFFCURVE",
"576 607 CURVE",
"620 680 LINE",
"528 680 LINE",
"510 649 LINE",
"467 670 OFFCURVE",
"419 680 OFFCURVE",
"367 680 CURVE SMOOTH",
"168 680 OFFCURVE",
"37 527 OFFCURVE",
"37 330 CURVE SMOOTH",
"37 217 OFFCURVE",
"79 120 OFFCURVE",
"152 56 CURVE",
"107 -20 LINE"
);
},
{
closed = 1;
nodes = (
"321 25 OFFCURVE",
"283 40 OFFCURVE",
"253 70 CURVE",
"525 522 LINE",
"546 471 OFFCURVE",
"558 409 OFFCURVE",
"558 330 CURVE SMOOTH",
"558 135 OFFCURVE",
"488 25 OFFCURVE",
"367 25 CURVE SMOOTH"
);
},
{
closed = 1;
nodes = (
"187 195 OFFCURVE",
"177 257 OFFCURVE",
"177 330 CURVE SMOOTH",
"177 525 OFFCURVE",
"246 635 OFFCURVE",
"367 635 CURVE SMOOTH",
"408 635 OFFCURVE",
"445 621 OFFCURVE",
"476 593 CURVE",
"206 145 LINE"
);
}
);
width = 733;
}
);
leftKerningGroup = C;
rightKerningGroup = O;
unicode = 00D8;
},
{
glyphname = Thorn;
lastChange = "2015-09-23 01:10:40 +0000";
layers = (
{
layerId = UUID0;
name = Regular;
paths = (
{
closed = 1;
nodes = (
"227 -30 LINE",
"227 80 LINE",
"434 84 OFFCURVE",
"537 162 OFFCURVE",
"537 315 CURVE SMOOTH",
"537 466 OFFCURVE",
"434 545 OFFCURVE",
"227 550 CURVE",
"227 560 LINE SMOOTH",
"227 659 OFFCURVE",
"207 690 OFFCURVE",
"137 690 CURVE SMOOTH",
"17 690 LINE",
"17 660 LINE",
"27 660 LINE SMOOTH",
"87 660 OFFCURVE",
"97 620 OFFCURVE",
"97 560 CURVE SMOOTH",
"97 -30 LINE"
);
},
{
closed = 1;
nodes = (
"227 504 LINE",
"343 497 OFFCURVE",
"397 424 OFFCURVE",
"397 315 CURVE SMOOTH",
"397 206 OFFCURVE",
"344 133 OFFCURVE",
"227 125 CURVE"
);
}
);
width = 555;
}
);
leftKerningGroup = B;
unicode = 00DE;
},
{
glyphname = germandbls;
lastChange = "2015-09-23 01:10:40 +0000";
layers = (
{
layerId = UUID0;
name = Regular;
paths = (
{
closed = 1;
nodes = (
"465 -10 OFFCURVE",
"555 29 OFFCURVE",
"555 120 CURVE SMOOTH",
"555 255 OFFCURVE",
"340 260 OFFCURVE",
"340 370 CURVE SMOOTH",
"340 439 OFFCURVE",
"465 461 OFFCURVE",
"465 570 CURVE SMOOTH",
"465 630 OFFCURVE",
"406 670 OFFCURVE",
"275 670 CURVE SMOOTH",
"150 670 OFFCURVE",
"60 640 OFFCURVE",
"60 500 CURVE SMOOTH",
"60 0 LINE",
"190 0 LINE",
"190 500 LINE SMOOTH",
"190 595 OFFCURVE",
"225 625 OFFCURVE",
"270 625 CURVE SMOOTH",
"310 625 OFFCURVE",
"340 601 OFFCURVE",
"340 550 CURVE SMOOTH",
"340 459 OFFCURVE",
"235 460 OFFCURVE",
"235 350 CURVE SMOOTH",
"235 215 OFFCURVE",
"430 210 OFFCURVE",
"430 100 CURVE SMOOTH",
"430 65 OFFCURVE",
"405 35 OFFCURVE",
"360 35 CURVE SMOOTH",
"300 35 OFFCURVE",
"265 80 OFFCURVE",
"260 120 CURVE",
"230 120 LINE",
"230 95 OFFCURVE",
"230 55 OFFCURVE",
"255 30 CURVE SMOOTH",
"280 5 OFFCURVE",
"329 -10 OFFCURVE",
"380 -10 CURVE SMOOTH"
);
}
);
width = 573;
}
);
unicode = 00DF;
},
{
glyphname = ae;
lastChange = "2015-09-23 01:10:40 +0000";
layers = (
{
layerId = UUID0;
name = Regular;
paths = (
{
closed = 1;
nodes = (
"302 -10 OFFCURVE",
"359 35 OFFCURVE",
"383 80 CURVE",
"423 20 OFFCURVE",
"480 -10 OFFCURVE",
"553 -10 CURVE SMOOTH",
"662 -10 OFFCURVE",
"713 50 OFFCURVE",
"742 95 CURVE",
"711 118 LINE",
"676 71 OFFCURVE",
"637 35 OFFCURVE",
"568 35 CURVE SMOOTH",
"504 35 OFFCURVE",
"459 83 OFFCURVE",
"458 207 CURVE SMOOTH",
"458 217 LINE",
"759 217 LINE",
"761 237 LINE SMOOTH",
"762 249 OFFCURVE",
"763 265 OFFCURVE",
"763 280 CURVE SMOOTH",
"763 400 OFFCURVE",
"669 480 OFFCURVE",
"553 480 CURVE SMOOTH",
"489 480 OFFCURVE",
"432 450 OFFCURVE",
"393 389 CURVE",
"362 445 OFFCURVE",
"303 480 OFFCURVE",
"218 480 CURVE SMOOTH",
"173 480 OFFCURVE",
"111 471 OFFCURVE",
"88 445 CURVE SMOOTH",
"64 418 OFFCURVE",
"63 380 OFFCURVE",
"63 345 CURVE",
"118 345 LINE",
"134 420 OFFCURVE",
"173 435 OFFCURVE",
"218 435 CURVE SMOOTH",
"283 435 OFFCURVE",
"318 383 OFFCURVE",
"318 262 CURVE",
"303 262 LINE SMOOTH",
"87 262 OFFCURVE",
"28 205 OFFCURVE",
"28 120 CURVE SMOOTH",
"28 45 OFFCURVE",
"88 -10 OFFCURVE",
"208 -10 CURVE SMOOTH"
);
},
{
closed = 1;
nodes = (
"188 40 OFFCURVE",
"163 75 OFFCURVE",
"163 120 CURVE SMOOTH",
"163 180 OFFCURVE",
"187 217 OFFCURVE",
"303 217 CURVE SMOOTH",
"318 217 LINE",
"318 105 LINE",
"312 92 OFFCURVE",
"305 81 OFFCURVE",
"297 72 CURVE SMOOTH",
"282 56 OFFCURVE",
"260 40 OFFCURVE",
"228 40 CURVE SMOOTH"
);
},
{
closed = 1;
nodes = (
"458 385 OFFCURVE",
"498 435 OFFCURVE",
"543 435 CURVE SMOOTH",
"592 435 OFFCURVE",
"628 385 OFFCURVE",
"628 262 CURVE",
"458 262 LINE"
);
}
);
width = 795;
}
);
leftKerningGroup = a;
rightKerningGroup = e;
unicode = 00E6;
},
{
glyphname = ccedilla;
lastChange = "2015-09-23 01:10:40 +0000";
layers = (
{
layerId = UUID0;
name = Regular;
paths = (
{
closed = 1;
nodes = (
"296 -188 LINE SMOOTH",
"347 -188 OFFCURVE",
"382 -157 OFFCURVE",
"382 -110 CURVE SMOOTH",
"382 -62 OFFCURVE",
"347 -32 OFFCURVE",
"296 -32 CURVE",
"296 -9 LINE",
"399 -4 OFFCURVE",
"442 53 OFFCURVE",
"471 95 CURVE",
"440 118 LINE",
"405 71 OFFCURVE",
"366 35 OFFCURVE",
"297 35 CURVE SMOOTH",
"214 35 OFFCURVE",
"172 102 OFFCURVE",
"172 235 CURVE SMOOTH",
"172 371 OFFCURVE",
"221 435 OFFCURVE",
"292 435 CURVE SMOOTH",
"372 435 OFFCURVE",
"422 390 OFFCURVE",
"427 305 CURVE",
"457 305 LINE",
"457 381 OFFCURVE",
"457 420 OFFCURVE",
"432 445 CURVE SMOOTH",
"407 470 OFFCURVE",
"353 480 OFFCURVE",
"277 480 CURVE SMOOTH",
"117 480 OFFCURVE",
"37 368 OFFCURVE",
"37 235 CURVE SMOOTH",
"37 112 OFFCURVE",
"104 9 OFFCURVE",
"237 -7 CURVE",
"237 -77 LINE",
"276 -77 LINE SMOOTH",
"301 -77 OFFCURVE",
"316 -91 OFFCURVE",
"316 -110 CURVE SMOOTH",
"316 -127 OFFCURVE",
"301 -142 OFFCURVE",
"276 -142 CURVE SMOOTH",
"236 -142 LINE",
"236 -188 LINE"
);
}
);
width = 498;
}
);
leftKerningGroup = c;
rightKerningGroup = c;
unicode = 00E7;
},
{
glyphname = idieresis;
lastChange = "2015-09-23 01:10:39 +0000";
layers = (
{
layerId = UUID0;
name = Regular;
paths = (
{
closed = 1;
nodes = (
"209 0 LINE",
"209 340 LINE SMOOTH",
"209 439 OFFCURVE",
"189 470 OFFCURVE",
"119 470 CURVE SMOOTH",
"-1 470 LINE",
"-1 440 LINE",
"9 440 LINE SMOOTH",
"69 440 OFFCURVE",
"79 400 OFFCURVE",
"79 340 CURVE SMOOTH",
"79 0 LINE"
);
},
{
closed = 1;
nodes = (
"85 534 OFFCURVE",
"109 555 OFFCURVE",
"109 590 CURVE SMOOTH",
"109 630 OFFCURVE",
"85 666 OFFCURVE",
"34 666 CURVE SMOOTH",
"3 666 OFFCURVE",
"-21 645 OFFCURVE",
"-21 610 CURVE SMOOTH",
"-21 570 OFFCURVE",
"3 534 OFFCURVE",
"54 534 CURVE SMOOTH"
);
},
{
closed = 1;
nodes = (
"270 534 OFFCURVE",
"294 555 OFFCURVE",
"294 590 CURVE SMOOTH",
"294 630 OFFCURVE",
"270 666 OFFCURVE",
"219 666 CURVE SMOOTH",
"188 666 OFFCURVE",
"164 645 OFFCURVE",
"164 610 CURVE SMOOTH",
"164 570 OFFCURVE",
"188 534 OFFCURVE",
"239 534 CURVE SMOOTH"
);
}
);
width = 267;
}
);
leftKerningGroup = i;
rightKerningGroup = i;
unicode = 00EF;
},
{
glyphname = eth;
lastChange = "2015-09-23 01:10:40 +0000";
layers = (
{
layerId = UUID0;
name = Regular;
paths = (
{
closed = 1;
nodes = (
"436 -10 OFFCURVE",
"516 100 OFFCURVE",
"516 270 CURVE SMOOTH",
"516 418 OFFCURVE",
"460 533 OFFCURVE",
"385 600 CURVE",
"427 642 LINE",
"387 680 LINE",
"344 634 LINE",
"311 657 OFFCURVE",
"273 670 OFFCURVE",
"216 670 CURVE SMOOTH",
"191 670 OFFCURVE",
"153 663 OFFCURVE",
"129 648 CURVE",
"143 616 LINE",
"147 617 OFFCURVE",
"152 619 OFFCURVE",
"158 620 CURVE SMOOTH",
"167 623 OFFCURVE",
"181 625 OFFCURVE",
"196 625 CURVE SMOOTH",
"233 625 OFFCURVE",
"272 622 OFFCURVE",
"300 595 CURVE",
"253 548 LINE",
"293 508 LINE",
"340 555 LINE",
"372 516 OFFCURVE",
"391 468 OFFCURVE",
"406 400 CURVE",
"381 451 OFFCURVE",
"331 480 OFFCURVE",
"266 480 CURVE SMOOTH",
"117 480 OFFCURVE",
"36 370 OFFCURVE",
"36 235 CURVE SMOOTH",
"36 100 OFFCURVE",
"116 -10 OFFCURVE",
"276 -10 CURVE SMOOTH"
);
},
{
closed = 1;
nodes = (
"220 35 OFFCURVE",
"171 100 OFFCURVE",
"171 235 CURVE SMOOTH",
"171 330 OFFCURVE",
"201 435 OFFCURVE",
"276 435 CURVE SMOOTH",
"351 435 OFFCURVE",
"381 330 OFFCURVE",
"381 235 CURVE SMOOTH",
"381 100 OFFCURVE",
"332 35 OFFCURVE",
"276 35 CURVE SMOOTH"
);
}
);
width = 557;
}
);
leftKerningGroup = c;
unicode = 00F0;
},
{
glyphname = divide;
lastChange = "2015-09-23 01:10:40 +0000";
layers = (
{
layerId = UUID0;
name = Regular;
paths = (
{
closed = 1;
nodes = (
"504 297 LINE",
"504 362 LINE",
"44 362 LINE",
"44 297 LINE"
);
},
{
closed = 1;
nodes = (
"309 123 OFFCURVE",
"330 148 OFFCURVE",
"330 179 CURVE SMOOTH",
"330 210 OFFCURVE",
"309 235 OFFCURVE",
"274 235 CURVE SMOOTH",
"239 235 OFFCURVE",
"218 210 OFFCURVE",
"218 179 CURVE SMOOTH",
"218 148 OFFCURVE",
"239 123 OFFCURVE",
"274 123 CURVE SMOOTH"
);
},
{
closed = 1;
nodes = (
"309 425 OFFCURVE",
"330 450 OFFCURVE",
"330 481 CURVE SMOOTH",
"330 512 OFFCURVE",
"309 537 OFFCURVE",
"274 537 CURVE SMOOTH",
"239 537 OFFCURVE",
"218 512 OFFCURVE",
"218 481 CURVE SMOOTH",
"218 450 OFFCURVE",
"239 425 OFFCURVE",
"274 425 CURVE SMOOTH"
);
}
);
width = 548;
}
);
unicode = 00F7;
},
{
glyphname = oslash;
lastChange = "2015-09-23 01:10:40 +0000";
layers = (
{
layerId = UUID0;
name = Regular;
paths = (
{
closed = 1;
nodes = (
"425 -10 OFFCURVE",
"516 98 OFFCURVE",
"516 235 CURVE SMOOTH",
"516 304 OFFCURVE",
"494 366 OFFCURVE",
"451 410 CURVE",
"496 470 LINE",
"404 470 LINE",
"392 454 LINE",
"359 470 OFFCURVE",
"320 480 OFFCURVE",
"276 480 CURVE SMOOTH",
"127 480 OFFCURVE",
"36 372 OFFCURVE",
"36 235 CURVE SMOOTH",
"36 166 OFFCURVE",
"59 104 OFFCURVE",
"100 60 CURVE",
"56 0 LINE",
"148 0 LINE",
"160 16 LINE",
"193 0 OFFCURVE",
"232 -10 OFFCURVE",
"276 -10 CURVE SMOOTH"
);
},
{
closed = 1;
nodes = (
"245 35 OFFCURVE",
"222 50 OFFCURVE",
"205 77 CURVE",
"375 307 LINE",
"379 285 OFFCURVE",
"381 261 OFFCURVE",
"381 235 CURVE SMOOTH",
"381 120 OFFCURVE",
"346 35 OFFCURVE",
"276 35 CURVE SMOOTH"
);
},
{
closed = 1;
nodes = (
"172 185 OFFCURVE",
"171 208 OFFCURVE",
"171 235 CURVE SMOOTH",
"171 350 OFFCURVE",
"206 435 OFFCURVE",
"276 435 CURVE SMOOTH",
"307 435 OFFCURVE",
"329 419 OFFCURVE",
"346 392 CURVE",
"176 162 LINE"
);
}
);
width = 552;
}
);
leftKerningGroup = c;
rightKerningGroup = b;
unicode = 00F8;
},
{
glyphname = thorn;
lastChange = "2015-09-23 01:10:40 +0000";
layers = (
{
layerId = UUID0;
name = Regular;
paths = (
{
closed = 1;
nodes = (
"190 -190 LINE",
"190 10 LINE",
"217 -1 OFFCURVE",
"251 -10 OFFCURVE",
"294 -10 CURVE SMOOTH",
"439 -10 OFFCURVE",
"504 90 OFFCURVE",
"504 235 CURVE SMOOTH",
"504 380 OFFCURVE",
"439 480 OFFCURVE",
"304 480 CURVE SMOOTH",
"248 480 OFFCURVE",
"213 464 OFFCURVE",
"190 445 CURVE",
"190 530 LINE SMOOTH",
"190 629 OFFCURVE",
"170 660 OFFCURVE",
"100 660 CURVE SMOOTH",
"-20 660 LINE",
"-20 630 LINE",
"-10 630 LINE SMOOTH",
"50 630 OFFCURVE",
"60 590 OFFCURVE",
"60 530 CURVE SMOOTH",
"60 -190 LINE"
);
},
{
closed = 1;
nodes = (
"239 35 OFFCURVE",
"214 41 OFFCURVE",
"190 50 CURVE",
"190 405 LINE",
"209 422 OFFCURVE",
"234 435 OFFCURVE",
"269 435 CURVE SMOOTH",
"329 435 OFFCURVE",
"369 360 OFFCURVE",
"369 235 CURVE SMOOTH",
"369 110 OFFCURVE",
"330 35 OFFCURVE",
"259 35 CURVE SMOOTH"
);
}
);
width = 542;
}
);
leftKerningGroup = b;
rightKerningGroup = b;
unicode = 00FE;
},
{
glyphname = Idotaccent;
lastChange = "2015-09-23 01:10:40 +0000";
layers = (
{
layerId = UUID0;
name = Regular;
paths = (
{
closed = 1;
nodes = (
"289 0 LINE",
"289 30 LINE",
"279 30 LINE SMOOTH",
"219 30 OFFCURVE",
"209 70 OFFCURVE",
"209 130 CURVE SMOOTH",
"209 660 LINE",
"79 660 LINE",
"79 130 LINE SMOOTH",
"79 29 OFFCURVE",
"99 0 OFFCURVE",
"169 0 CURVE SMOOTH"
);
},
{
closed = 1;
nodes = (
"180 714 OFFCURVE",
"204 735 OFFCURVE",
"204 770 CURVE SMOOTH",
"204 810 OFFCURVE",
"180 846 OFFCURVE",
"129 846 CURVE SMOOTH",
"98 846 OFFCURVE",
"74 825 OFFCURVE",
"74 790 CURVE SMOOTH",
"74 750 OFFCURVE",
"98 714 OFFCURVE",
"149 714 CURVE SMOOTH"
);
}
);
width = 304;
}
);
leftKerningGroup = I;
rightKerningGroup = H;
unicode = 0130;
},
{
glyphname = dotlessi;
lastChange = "2015-09-23 01:10:40 +0000";
layers = (
{
layerId = UUID0;
name = Regular;
paths = (
{
closed = 1;
nodes = (
"209 0 LINE",
"209 340 LINE SMOOTH",
"209 439 OFFCURVE",
"189 470 OFFCURVE",
"119 470 CURVE SMOOTH",
"-1 470 LINE",
"-1 440 LINE",
"9 440 LINE SMOOTH",
"69 440 OFFCURVE",
"79 400 OFFCURVE",
"79 340 CURVE SMOOTH",
"79 0 LINE"
);
}
);
width = 267;
}
);
leftKerningGroup = i;
rightKerningGroup = i;
unicode = 0131;
},
{
glyphname = OE;
lastChange = "2015-09-23 01:10:40 +0000";
layers = (
{
layerId = UUID0;
name = Regular;
paths = (
{
closed = 1;
nodes = (
"412 -20 OFFCURVE",
"447 -15 OFFCURVE",
"482 0 CURVE",
"822 0 LINE SMOOTH",
"877 0 OFFCURVE",
"894 27 OFFCURVE",
"909 70 CURVE SMOOTH",
"938 149 LINE",
"911 159 LINE",
"876 72 OFFCURVE",
"826 45 OFFCURVE",
"753 45 CURVE SMOOTH",
"582 45 LINE",
"582 320 LINE",
"842 320 LINE",
"842 365 LINE",
"582 365 LINE",
"582 615 LINE",
"743 615 LINE SMOOTH",
"823 615 OFFCURVE",
"868 580 OFFCURVE",
"868 495 CURVE",
"898 495 LINE",
"898 580 LINE SMOOTH",
"898 620 OFFCURVE",
"882 660 OFFCURVE",
"813 660 CURVE SMOOTH",
"482 660 LINE",
"451 671 OFFCURVE",
"423 680 OFFCURVE",
"367 680 CURVE SMOOTH",
"168 680 OFFCURVE",
"37 527 OFFCURVE",
"37 330 CURVE SMOOTH",
"37 133 OFFCURVE",
"168 -20 OFFCURVE",
"367 -20 CURVE SMOOTH"
);
},
{
closed = 1;
nodes = (
"246 25 OFFCURVE",
"177 135 OFFCURVE",
"177 330 CURVE SMOOTH",
"177 525 OFFCURVE",
"246 635 OFFCURVE",
"367 635 CURVE SMOOTH",
"398 635 OFFCURVE",
"427 627 OFFCURVE",
"452 611 CURVE",
"452 48 LINE",
"427 33 OFFCURVE",
"398 25 OFFCURVE",
"367 25 CURVE SMOOTH"
);
}
);
width = 957;
}
);
leftKerningGroup = C;
rightKerningGroup = E;
unicode = 0152;
},
{
glyphname = oe;
lastChange = "2015-09-23 01:10:40 +0000";
layers = (
{
layerId = UUID0;
name = Regular;
paths = (
{
closed = 1;
nodes = (
"348 -10 OFFCURVE",
"406 15 OFFCURVE",
"447 56 CURVE",
"487 13 OFFCURVE",
"543 -10 OFFCURVE",
"611 -10 CURVE SMOOTH",
"720 -10 OFFCURVE",
"771 50 OFFCURVE",
"800 95 CURVE",
"769 118 LINE",
"734 71 OFFCURVE",
"695 35 OFFCURVE",
"626 35 CURVE SMOOTH",
"561 35 OFFCURVE",
"516 85 OFFCURVE",
"516 217 CURVE",
"817 217 LINE",
"819 237 LINE SMOOTH",
"820 249 OFFCURVE",
"821 265 OFFCURVE",
"821 280 CURVE SMOOTH",
"821 400 OFFCURVE",
"725 480 OFFCURVE",
"601 480 CURVE SMOOTH",
"536 480 OFFCURVE",
"484 459 OFFCURVE",
"444 417 CURVE",
"403 456 OFFCURVE",
"347 480 OFFCURVE",
"276 480 CURVE SMOOTH",
"127 480 OFFCURVE",
"36 372 OFFCURVE",
"36 235 CURVE SMOOTH",
"36 98 OFFCURVE",
"127 -10 OFFCURVE",
"276 -10 CURVE SMOOTH"
);
},
{
closed = 1;
nodes = (
"206 35 OFFCURVE",
"171 120 OFFCURVE",
"171 235 CURVE SMOOTH",
"171 350 OFFCURVE",
"206 435 OFFCURVE",
"276 435 CURVE SMOOTH",
"346 435 OFFCURVE",
"381 350 OFFCURVE",
"381 235 CURVE SMOOTH",
"381 120 OFFCURVE",
"346 35 OFFCURVE",
"276 35 CURVE SMOOTH"
);
},
{
closed = 1;
nodes = (
"516 394 OFFCURVE",
"556 435 OFFCURVE",
"601 435 CURVE SMOOTH",
"651 435 OFFCURVE",
"686 394 OFFCURVE",
"686 262 CURVE",
"516 262 LINE"
);
}
);
width = 853;
}
);
leftKerningGroup = c;
rightKerningGroup = e;
unicode = 0153;
},
{
glyphname = Scedilla;
lastChange = "2015-09-23 01:10:40 +0000";
layers = (
{
layerId = UUID0;
name = Regular;
paths = (
{
closed = 1;
nodes = (
"306 -206 LINE SMOOTH",
"362 -206 OFFCURVE",
"396 -175 OFFCURVE",
"396 -128 CURVE SMOOTH",
"396 -80 OFFCURVE",
"362 -50 OFFCURVE",
"306 -50 CURVE",
"306 -16 LINE",
"447 -7 OFFCURVE",
"525 62 OFFCURVE",
"525 169 CURVE SMOOTH",
"525 242 OFFCURVE",
"485 288 OFFCURVE",
"394 341 CURVE SMOOTH",
"271 414 LINE SMOOTH",
"208 451 OFFCURVE",
"167 480 OFFCURVE",
"167 536 CURVE SMOOTH",
"167 596 OFFCURVE",
"212 633 OFFCURVE",
"284 633 CURVE SMOOTH",
"385 633 OFFCURVE",
"448 580 OFFCURVE",
"471 441 CURVE",
"499 441 LINE",
"499 558 LINE SMOOTH",
"499 634 OFFCURVE",
"382 678 OFFCURVE",
"273 678 CURVE SMOOTH",
"136 678 OFFCURVE",
"49 612 OFFCURVE",
"49 507 CURVE SMOOTH",
"49 434 OFFCURVE",
"82 381 OFFCURVE",
"173 328 CURVE SMOOTH",
"296 254 LINE SMOOTH",
"360 215 OFFCURVE",
"399 182 OFFCURVE",
"399 125 CURVE SMOOTH",
"399 61 OFFCURVE",
"349 28 OFFCURVE",
"273 28 CURVE SMOOTH",
"161 28 OFFCURVE",
"97 81 OFFCURVE",
"76 220 CURVE",
"48 220 LINE",
"48 103 LINE SMOOTH",
"48 34 OFFCURVE",
"141 -7 OFFCURVE",
"241 -15 CURVE",
"241 -95 LINE",
"286 -95 LINE SMOOTH",
"311 -95 OFFCURVE",
"326 -109 OFFCURVE",
"326 -128 CURVE SMOOTH",
"326 -145 OFFCURVE",
"311 -160 OFFCURVE",
"286 -160 CURVE SMOOTH",
"236 -160 LINE",
"236 -206 LINE"
);
}
);
width = 563;
}
);
leftKerningGroup = S;
rightKerningGroup = S;
unicode = 015E;
},
{
glyphname = scedilla;
lastChange = "2015-09-23 01:10:40 +0000";
layers = (
{
layerId = UUID0;
name = Regular;
paths = (
{
closed = 1;
nodes = (
"256 -186 LINE SMOOTH",
"312 -186 OFFCURVE",
"346 -155 OFFCURVE",
"346 -108 CURVE SMOOTH",
"346 -60 OFFCURVE",
"312 -30 OFFCURVE",
"256 -30 CURVE",
"256 -9 LINE",
"360 -2 OFFCURVE",
"434 43 OFFCURVE",
"434 123 CURVE SMOOTH",
"434 194 OFFCURVE",
"387 229 OFFCURVE",
"295 268 CURVE SMOOTH",
"235 293 LINE SMOOTH",
"191 312 OFFCURVE",
"164 331 OFFCURVE",
"164 367 CURVE SMOOTH",
"164 406 OFFCURVE",
"189 435 OFFCURVE",
"249 435 CURVE SMOOTH",
"329 435 OFFCURVE",
"368 384 OFFCURVE",
"379 320 CURVE",
"414 320 LINE",
"414 371 OFFCURVE",
"414 416 OFFCURVE",
"390 439 CURVE SMOOTH",
"363 464 OFFCURVE",
"312 480 OFFCURVE",
"229 480 CURVE SMOOTH",
"119 480 OFFCURVE",
"39 434 OFFCURVE",
"39 347 CURVE SMOOTH",
"39 282 OFFCURVE",
"87 241 OFFCURVE",
"167 206 CURVE SMOOTH",
"219 184 LINE SMOOTH",
"270 161 OFFCURVE",
"309 142 OFFCURVE",
"309 103 CURVE SMOOTH",
"309 64 OFFCURVE",
"284 35 OFFCURVE",
"209 35 CURVE SMOOTH",
"129 35 OFFCURVE",
"90 86 OFFCURVE",
"79 150 CURVE",
"44 150 LINE",
"44 99 OFFCURVE",
"44 54 OFFCURVE",
"68 31 CURVE SMOOTH",
"91 10 OFFCURVE",
"130 -4 OFFCURVE",
"191 -8 CURVE",
"191 -75 LINE",
"236 -75 LINE SMOOTH",
"261 -75 OFFCURVE",
"276 -89 OFFCURVE",
"276 -108 CURVE SMOOTH",
"276 -125 OFFCURVE",
"261 -140 OFFCURVE",
"236 -140 CURVE SMOOTH",
"186 -140 LINE",
"186 -186 LINE"
);
}
);
width = 468;
}
);
leftKerningGroup = s;
rightKerningGroup = s;
unicode = 015F;
},
{
glyphname = circumflex;
lastChange = "2015-09-23 01:10:40 +0000";
layers = (
{
layerId = UUID0;
name = Regular;
paths = (
{
closed = 1;
nodes = (
"80 660 LINE",
"165 740 LINE",
"250 660 LINE",
"310 660 LINE",
"230 785 LINE",
"100 785 LINE",
"20 660 LINE"
);
}
);
width = 330;
}
);
unicode = 02C6;
},
{
glyphname = caron;
lastChange = "2015-09-23 01:10:39 +0000";
layers = (
{
layerId = UUID0;
name = Regular;
paths = (
{
closed = 1;
nodes = (
"230 520 LINE",
"310 645 LINE",
"240 645 LINE",
"165 565 LINE",
"90 645 LINE",
"20 645 LINE",
"100 520 LINE"
);
}
);
width = 330;
}
);
unicode = 02C7;
},
{
glyphname = breve;
lastChange = "2015-09-23 01:10:39 +0000";
layers = (
{
layerId = UUID0;
name = Regular;
paths = (
{
closed = 1;
nodes = (
"226 510 OFFCURVE",
"277 548 OFFCURVE",
"302 604 CURVE",
"274 625 LINE",
"254 600 OFFCURVE",
"217 575 OFFCURVE",
"161 575 CURVE SMOOTH",
"105 575 OFFCURVE",
"68 600 OFFCURVE",
"48 625 CURVE",
"20 604 LINE",
"45 548 OFFCURVE",
"96 510 OFFCURVE",
"161 510 CURVE SMOOTH"
);
}
);
width = 322;
}
);
unicode = 02D8;
},
{
glyphname = ring;
lastChange = "2015-09-23 01:10:40 +0000";
layers = (
{
layerId = UUID0;
name = Regular;
paths = (
{
closed = 1;
nodes = (
"171 520 OFFCURVE",
"210 559 OFFCURVE",
"210 615 CURVE SMOOTH",
"210 671 OFFCURVE",
"171 710 OFFCURVE",
"115 710 CURVE SMOOTH",
"59 710 OFFCURVE",
"20 671 OFFCURVE",
"20 615 CURVE SMOOTH",
"20 559 OFFCURVE",
"59 520 OFFCURVE",
"115 520 CURVE SMOOTH"
);
},
{
closed = 1;
nodes = (
"90 565 OFFCURVE",
"70 584 OFFCURVE",
"70 615 CURVE SMOOTH",
"70 646 OFFCURVE",
"90 665 OFFCURVE",
"115 665 CURVE SMOOTH",
"140 665 OFFCURVE",
"160 646 OFFCURVE",
"160 615 CURVE SMOOTH",
"160 584 OFFCURVE",
"140 565 OFFCURVE",
"115 565 CURVE SMOOTH"
);
}
);
width = 230;
}
);
unicode = 02DA;
},
{
glyphname = tilde;
lastChange = "2015-09-23 01:10:39 +0000";
layers = (
{
layerId = UUID0;
name = Regular;
paths = (
{
closed = 1;
nodes = (
"60 680 LINE",
"60 700 OFFCURVE",
"72 720 OFFCURVE",
"95 720 CURVE SMOOTH",
"123 720 OFFCURVE",
"143 680 OFFCURVE",
"188 680 CURVE SMOOTH",
"228 680 OFFCURVE",
"255 700 OFFCURVE",
"255 780 CURVE",
"215 780 LINE",
"215 760 OFFCURVE",
"203 740 OFFCURVE",
"180 740 CURVE SMOOTH",
"153 740 OFFCURVE",
"133 780 OFFCURVE",
"88 780 CURVE SMOOTH",
"48 780 OFFCURVE",
"20 760 OFFCURVE",
"20 680 CURVE"
);
}
);
width = 275;
}
);
unicode = 02DC;
},
{
glyphname = afii10051;
lastChange = "2015-09-23 01:10:39 +0000";
layers = (
{
layerId = UUID0;
name = Regular;
paths = (
{
closed = 1;
nodes = (
"534 -40 OFFCURVE",
"614 25 OFFCURVE",
"614 200 CURVE SMOOTH",
"614 385 OFFCURVE",
"518 430 OFFCURVE",
"394 430 CURVE SMOOTH",
"333 430 OFFCURVE",
"275 410 OFFCURVE",
"244 390 CURVE",
"244 615 LINE",
"364 615 LINE",
"364 660 LINE",
"-6 660 LINE",
"-6 615 LINE",
"114 615 LINE",
"114 0 LINE",
"244 0 LINE",
"244 345 LINE",
"275 365 OFFCURVE",
"323 380 OFFCURVE",
"374 380 CURVE SMOOTH",
"429 380 OFFCURVE",
"484 340 OFFCURVE",
"484 200 CURVE SMOOTH",
"484 52 OFFCURVE",
"452 -15 OFFCURVE",
"399 -15 CURVE",
"399 -40 LINE"
);
}
);
width = 638;
}
);
leftKerningGroup = afii10060;
unicode = 0402;
},
{
glyphname = afii10053;
lastChange = "2015-09-23 01:10:40 +0000";
layers = (
{
layerId = UUID0;
name = Regular;
paths = (
{
closed = 1;
nodes = (
"507 -20 OFFCURVE",
"592 30 OFFCURVE",
"655 141 CURVE",
"620 168 LINE",
"572 75 OFFCURVE",
"489 25 OFFCURVE",
"397 25 CURVE SMOOTH",
"242 25 OFFCURVE",
"180 161 OFFCURVE",
"177 310 CURVE",
"487 310 LINE",
"487 355 LINE",
"178 355 LINE",
"186 570 OFFCURVE",
"282 635 OFFCURVE",
"397 635 CURVE SMOOTH",
"508 635 OFFCURVE",
"575 568 OFFCURVE",
"600 447 CURVE",
"630 447 LINE",
"630 506 OFFCURVE",
"631 564 OFFCURVE",
"604 599 CURVE",
"567 642 OFFCURVE",
"492 680 OFFCURVE",
"367 680 CURVE SMOOTH",
"178 680 OFFCURVE",
"37 522 OFFCURVE",
"37 320 CURVE SMOOTH",
"37 128 OFFCURVE",
"156 -20 OFFCURVE",
"367 -20 CURVE SMOOTH"
);
}
);
width = 679;
}
);
leftKerningGroup = afii10032;
rightKerningGroup = afii10035;
unicode = 0404;
},
{
glyphname = afii10058;
lastChange = "2015-09-23 01:10:40 +0000";
layers = (
{
layerId = UUID0;
name = Regular;
paths = (
{
closed = 1;
nodes = (
"172 -15 OFFCURVE",
"260 105 OFFCURVE",
"260 530 CURVE SMOOTH",
"260 615 LINE",
"466 615 LINE",
"466 0 LINE",
"686 0 LINE SMOOTH",
"820 0 OFFCURVE",
"971 39 OFFCURVE",
"971 195 CURVE SMOOTH",
"971 351 OFFCURVE",
"820 390 OFFCURVE",
"686 390 CURVE SMOOTH",
"596 390 LINE",
"596 660 LINE",
"71 660 LINE",
"71 630 LINE",
"81 630 LINE SMOOTH",
"141 630 OFFCURVE",
"150 590 OFFCURVE",
"150 530 CURVE SMOOTH",
"150 121 OFFCURVE",
"77 43 OFFCURVE",
"-8 25 CURVE",
"-8 -6 LINE",
"7 -11 OFFCURVE",
"27 -15 OFFCURVE",
"52 -15 CURVE SMOOTH"
);
},
{
closed = 1;
nodes = (
"646 40 OFFCURVE",
"629 42 OFFCURVE",
"616 45 CURVE SMOOTH",
"609 46 OFFCURVE",
"602 48 OFFCURVE",
"596 50 CURVE",
"596 340 LINE",
"616 345 LINE SMOOTH",
"628 348 OFFCURVE",
"646 350 OFFCURVE",
"666 350 CURVE SMOOTH",
"671 350 LINE SMOOTH",
"780 350 OFFCURVE",
"831 295 OFFCURVE",
"831 195 CURVE SMOOTH",
"831 95 OFFCURVE",
"780 40 OFFCURVE",
"671 40 CURVE SMOOTH",
"666 40 LINE SMOOTH"
);
}
);
width = 988;
}
);
leftKerningGroup = afii10029;
rightKerningGroup = afii10044;
unicode = 0409;
},
{
glyphname = afii10059;
lastChange = "2015-09-23 01:10:40 +0000";
layers = (
{
layerId = UUID0;
name = Regular;
paths = (
{
closed = 1;
nodes = (
"225 0 LINE",
"225 320 LINE",
"476 320 LINE",
"476 0 LINE",
"695 0 LINE SMOOTH",
"839 0 OFFCURVE",
"990 40 OFFCURVE",
"990 185 CURVE SMOOTH",
"990 330 OFFCURVE",
"839 370 OFFCURVE",
"695 370 CURVE SMOOTH",
"606 370 LINE",
"606 660 LINE",
"476 660 LINE",
"476 365 LINE",
"225 365 LINE",
"225 530 LINE SMOOTH",
"225 629 OFFCURVE",
"205 660 OFFCURVE",
"135 660 CURVE SMOOTH",
"15 660 LINE",
"15 630 LINE",
"25 630 LINE SMOOTH",
"85 630 OFFCURVE",
"95 590 OFFCURVE",
"95 530 CURVE SMOOTH",
"95 0 LINE"
);
},
{
closed = 1;
nodes = (
"655 40 OFFCURVE",
"638 42 OFFCURVE",
"625 45 CURVE SMOOTH",
"618 46 OFFCURVE",
"611 48 OFFCURVE",
"605 50 CURVE",
"605 320 LINE",
"610 323 OFFCURVE",
"639 330 OFFCURVE",
"675 330 CURVE SMOOTH",
"680 330 LINE SMOOTH",
"800 330 OFFCURVE",
"850 276 OFFCURVE",
"850 185 CURVE SMOOTH",
"850 94 OFFCURVE",
"800 40 OFFCURVE",
"680 40 CURVE SMOOTH",
"675 40 LINE SMOOTH"
);
}
);
width = 1004;
}
);
leftKerningGroup = afii10018;
unicode = 040A;
},
{
glyphname = afii10060;
lastChange = "2015-09-23 01:10:40 +0000";
layers = (
{
layerId = UUID0;
name = Regular;
paths = (
{
closed = 1;
nodes = (
"244 0 LINE",
"244 345 LINE",
"275 365 OFFCURVE",
"323 380 OFFCURVE",
"374 380 CURVE SMOOTH",
"439 380 OFFCURVE",
"484 349 OFFCURVE",
"484 250 CURVE SMOOTH",
"484 0 LINE",
"614 0 LINE",
"614 250 LINE SMOOTH",
"614 395 OFFCURVE",
"499 430 OFFCURVE",
"394 430 CURVE SMOOTH",
"333 430 OFFCURVE",
"275 410 OFFCURVE",
"244 390 CURVE",
"244 615 LINE",
"364 615 LINE",
"364 660 LINE",
"-6 660 LINE",
"-6 615 LINE",
"114 615 LINE",
"114 0 LINE"
);
}
);
width = 650;
}
);
leftKerningGroup = afii10060;
unicode = 040B;
},
{
glyphname = afii10145;
lastChange = "2015-09-23 01:10:40 +0000";
layers = (
{
layerId = UUID0;
name = Regular;
paths = (
{
closed = 1;
nodes = (
"390 -175 LINE",
"405 0 LINE",
"615 0 LINE",
"615 660 LINE",
"485 660 LINE",
"485 45 LINE",
"225 45 LINE",
"225 530 LINE SMOOTH",
"225 629 OFFCURVE",
"205 660 OFFCURVE",
"135 660 CURVE SMOOTH",
"15 660 LINE",
"15 630 LINE",
"25 630 LINE SMOOTH",
"85 630 OFFCURVE",
"95 590 OFFCURVE",
"95 530 CURVE SMOOTH",
"95 0 LINE",
"305 0 LINE",
"320 -175 LINE"
);
}
);
width = 689;
}
);
leftKerningGroup = afii10018;
rightKerningGroup = afii10026;
unicode = 040F;
},
{
glyphname = afii10018;
lastChange = "2015-09-23 01:10:40 +0000";
layers = (
{
layerId = UUID0;
name = Regular;
paths = (
{
closed = 1;
nodes = (
"315 0 LINE SMOOTH",
"459 0 OFFCURVE",
"610 30 OFFCURVE",
"610 190 CURVE SMOOTH",
"610 350 OFFCURVE",
"459 380 OFFCURVE",
"315 380 CURVE SMOOTH",
"225 380 LINE",
"225 615 LINE",
"384 615 LINE SMOOTH",
"464 615 OFFCURVE",
"509 582 OFFCURVE",
"509 495 CURVE",
"539 495 LINE",
"539 580 LINE SMOOTH",
"539 620 OFFCURVE",
"523 660 OFFCURVE",
"454 660 CURVE SMOOTH",
"15 660 LINE",
"15 630 LINE",
"25 630 LINE SMOOTH",
"85 630 OFFCURVE",
"95 590 OFFCURVE",
"95 530 CURVE SMOOTH",
"95 0 LINE"
);
},
{
closed = 1;
nodes = (
"275 40 OFFCURVE",
"258 42 OFFCURVE",
"245 45 CURVE SMOOTH",
"238 46 OFFCURVE",
"231 48 OFFCURVE",
"225 50 CURVE",
"225 330 LINE",
"245 335 LINE SMOOTH",
"257 338 OFFCURVE",
"275 340 OFFCURVE",
"295 340 CURVE SMOOTH",
"300 340 LINE SMOOTH",
"420 340 OFFCURVE",
"470 295 OFFCURVE",
"470 190 CURVE SMOOTH",
"470 85 OFFCURVE",
"420 40 OFFCURVE",
"300 40 CURVE SMOOTH",
"295 40 LINE SMOOTH"
);
}
);
width = 635;
}
);
leftKerningGroup = afii10018;
unicode = 0411;
},
{
glyphname = afii10020;
lastChange = "2015-09-23 01:10:40 +0000";
layers = (
{
layerId = UUID0;
name = Regular;
paths = (
{
closed = 1;
nodes = (
"225 0 LINE",
"225 615 LINE",
"374 615 LINE SMOOTH",
"454 615 OFFCURVE",
"499 582 OFFCURVE",
"499 495 CURVE",
"529 495 LINE",
"529 580 LINE SMOOTH",
"529 620 OFFCURVE",
"513 660 OFFCURVE",
"444 660 CURVE SMOOTH",
"15 660 LINE",
"15 630 LINE",
"25 630 LINE SMOOTH",
"85 630 OFFCURVE",
"95 590 OFFCURVE",
"95 530 CURVE SMOOTH",
"95 0 LINE"
);
}
);
width = 544;
}
);
leftKerningGroup = afii10018;
rightKerningGroup = afii10020;
unicode = 0413;
},
{
glyphname = afii10021;
lastChange = "2015-09-23 01:10:40 +0000";
layers = (
{
layerId = UUID0;
name = Regular;
paths = (
{
closed = 1;
nodes = (
"49 -184 LINE",
"65 -40 OFFCURVE",
"102 0 OFFCURVE",
"174 0 CURVE SMOOTH",
"498 0 LINE SMOOTH",
"570 0 OFFCURVE",
"607 -40 OFFCURVE",
"623 -184 CURVE",
"673 -184 LINE",
"673 10 LINE SMOOTH",
"673 30 OFFCURVE",
"658 45 OFFCURVE",
"638 45 CURVE SMOOTH",
"603 45 LINE",
"603 660 LINE",
"74 660 LINE",
"74 630 LINE",
"84 630 LINE SMOOTH",
"144 630 OFFCURVE",
"154 590 OFFCURVE",
"154 530 CURVE SMOOTH",
"154 349 OFFCURVE",
"134 186 OFFCURVE",
"69 45 CURVE",
"34 45 LINE SMOOTH",
"14 45 OFFCURVE",
"-1 30 OFFCURVE",
"-1 10 CURVE SMOOTH",
"-1 -184 LINE"
);
},
{
closed = 1;
nodes = (
"232 182 OFFCURVE",
"253 343 OFFCURVE",
"253 615 CURVE",
"473 615 LINE",
"473 45 LINE",
"173 45 LINE"
);
}
);
width = 694;
}
);
rightKerningGroup = afii10021;
unicode = 0414;
},
{
glyphname = afii10024;
lastChange = "2015-09-23 01:10:40 +0000";
layers = (
{
layerId = UUID0;
name = Regular;
paths = (
{
closed = 1;
nodes = (
"139 -10 OFFCURVE",
"212 10 OFFCURVE",
"298 120 CURVE SMOOTH",
"429 285 LINE",
"429 0 LINE",
"560 0 LINE",
"560 285 LINE",
"691 120 LINE SMOOTH",
"777 10 OFFCURVE",
"850 -10 OFFCURVE",
"935 -10 CURVE SMOOTH",
"964 -10 OFFCURVE",
"984 -5 OFFCURVE",
"999 0 CURVE",
"999 24 LINE",
"959 31 OFFCURVE",
"898 71 OFFCURVE",
"849 130 CURVE SMOOTH",
"648 370 LINE",
"787 554 LINE",
"832 609 OFFCURVE",
"874 625 OFFCURVE",
"960 625 CURVE",
"960 660 LINE",
"900 660 LINE SMOOTH",
"820 660 OFFCURVE",
"766 611 OFFCURVE",
"723 555 CURVE SMOOTH",
"560 340 LINE",
"560 660 LINE",
"429 660 LINE",
"429 340 LINE",
"266 555 LINE SMOOTH",
"223 611 OFFCURVE",
"169 660 OFFCURVE",
"89 660 CURVE SMOOTH",
"29 660 LINE",
"29 625 LINE",
"115 625 OFFCURVE",
"157 609 OFFCURVE",
"202 554 CURVE",
"341 370 LINE",
"140 130 LINE SMOOTH",
"91 71 OFFCURVE",
"30 31 OFFCURVE",
"-10 24 CURVE",
"-10 0 LINE",
"5 -5 OFFCURVE",
"25 -10 OFFCURVE",
"54 -10 CURVE SMOOTH"
);
}
);
width = 989;
}
);
unicode = 0416;
},
{
glyphname = afii10025;
lastChange = "2015-09-23 01:10:40 +0000";
layers = (
{
layerId = UUID0;
name = Regular;
paths = (
{
closed = 1;
nodes = (
"400 -20 OFFCURVE",
"549 26 OFFCURVE",
"549 170 CURVE SMOOTH",
"549 246 OFFCURVE",
"501 329 OFFCURVE",
"370 345 CURVE",
"470 369 OFFCURVE",
"524 441 OFFCURVE",
"524 505 CURVE SMOOTH",
"524 654 OFFCURVE",
"385 680 OFFCURVE",
"265 680 CURVE SMOOTH",
"195 680 OFFCURVE",
"109 653 OFFCURVE",
"74 610 CURVE SMOOTH",
"49 579 OFFCURVE",
"49 530 OFFCURVE",
"49 470 CURVE",
"80 470 LINE",
"105 570 OFFCURVE",
"169 635 OFFCURVE",
"260 635 CURVE SMOOTH",
"315 635 OFFCURVE",
"389 596 OFFCURVE",
"389 500 CURVE SMOOTH",
"389 405 OFFCURVE",
"310 360 OFFCURVE",
"239 360 CURVE SMOOTH",
"154 360 LINE",
"154 315 LINE",
"239 315 LINE SMOOTH",
"344 315 OFFCURVE",
"409 261 OFFCURVE",
"409 165 CURVE SMOOTH",
"409 74 OFFCURVE",
"340 25 OFFCURVE",
"255 25 CURVE SMOOTH",
"154 25 OFFCURVE",
"94 80 OFFCURVE",
"49 140 CURVE",
"19 115 LINE",
"79 24 OFFCURVE",
"159 -20 OFFCURVE",
"280 -20 CURVE SMOOTH"
);
}
);
width = 580;
}
);
unicode = 0417;
},
{
glyphname = afii10026;
lastChange = "2015-09-23 01:10:40 +0000";
layers = (
{
layerId = UUID0;
name = Regular;
paths = (
{
closed = 1;
nodes = (
"215 0 LINE",
"505 530 LINE",
"505 0 LINE",
"635 0 LINE",
"635 660 LINE",
"515 660 LINE",
"225 130 LINE",
"225 530 LINE SMOOTH",
"225 629 OFFCURVE",
"205 660 OFFCURVE",
"135 660 CURVE SMOOTH",
"15 660 LINE",
"15 630 LINE",
"25 630 LINE SMOOTH",
"85 630 OFFCURVE",
"95 590 OFFCURVE",
"95 530 CURVE SMOOTH",
"95 0 LINE"
);
}
);
width = 709;
}
);
leftKerningGroup = afii10018;
rightKerningGroup = afii10026;
unicode = 0418;
},
{
glyphname = afii10029;
lastChange = "2015-09-23 01:10:40 +0000";
layers = (
{
layerId = UUID0;
name = Regular;
paths = (
{
closed = 1;
nodes = (
"172 -15 OFFCURVE",
"259 105 OFFCURVE",
"259 530 CURVE SMOOTH",
"259 615 LINE",
"475 615 LINE",
"475 0 LINE",
"605 0 LINE",
"605 660 LINE",
"70 660 LINE",
"70 630 LINE",
"80 630 LINE SMOOTH",
"140 630 OFFCURVE",
"150 590 OFFCURVE",
"150 530 CURVE SMOOTH",
"150 121 OFFCURVE",
"77 43 OFFCURVE",
"-8 25 CURVE",
"-8 -6 LINE",
"7 -11 OFFCURVE",
"27 -15 OFFCURVE",
"52 -15 CURVE SMOOTH"
);
}
);
width = 679;
}
);
leftKerningGroup = afii10029;
rightKerningGroup = afii10026;
unicode = 041B;
},
{
glyphname = afii10033;
lastChange = "2015-09-23 01:10:40 +0000";
layers = (
{
layerId = UUID0;
name = Regular;
paths = (
{
closed = 1;
nodes = (
"225 0 LINE",
"225 615 LINE",
"485 615 LINE",
"485 0 LINE",
"615 0 LINE",
"615 660 LINE",
"15 660 LINE",
"15 630 LINE",
"25 630 LINE SMOOTH",
"85 630 OFFCURVE",
"95 590 OFFCURVE",
"95 530 CURVE SMOOTH",
"95 0 LINE"
);
}
);
width = 689;
}
);
leftKerningGroup = afii10018;
rightKerningGroup = afii10026;
unicode = 041F;
},
{
glyphname = afii10037;
lastChange = "2015-09-23 01:10:40 +0000";
layers = (
{
layerId = UUID0;
name = Regular;
paths = (
{
closed = 1;
nodes = (
"192 -10 LINE SMOOTH",
"272 -10 OFFCURVE",
"328 30 OFFCURVE",
"356 95 CURVE SMOOTH",
"612 660 LINE",
"547 660 LINE",
"370 268 LINE",
"232 550 LINE SMOOTH",
"203 614 OFFCURVE",
"145 660 OFFCURVE",
"69 660 CURVE SMOOTH",
"-31 660 LINE",
"-31 640 LINE",
"22 635 OFFCURVE",
"64 594 OFFCURVE",
"93 530 CURVE SMOOTH",
"298 110 LINE",
"291 95 LINE SMOOTH",
"264 36 OFFCURVE",
"201 26 OFFCURVE",
"142 26 CURVE",
"142 -10 LINE"
);
}
);
width = 618;
}
);
leftKerningGroup = afii10037;
rightKerningGroup = afii10037;
unicode = 0423;
},
{
glyphname = afii10038;
lastChange = "2015-09-23 01:10:40 +0000";
layers = (
{
layerId = UUID0;
name = Regular;
paths = (
{
closed = 1;
nodes = (
"476 -40 LINE",
"476 35 LINE",
"686 35 OFFCURVE",
"796 145 OFFCURVE",
"796 315 CURVE SMOOTH",
"796 485 OFFCURVE",
"686 595 OFFCURVE",
"476 595 CURVE",
"476 671 OFFCURVE",
"455 700 OFFCURVE",
"386 700 CURVE SMOOTH",
"266 700 LINE",
"266 670 LINE",
"276 670 LINE SMOOTH",
"336 670 OFFCURVE",
"346 630 OFFCURVE",
"346 595 CURVE",
"136 595 OFFCURVE",
"26 485 OFFCURVE",
"26 315 CURVE SMOOTH",
"26 145 OFFCURVE",
"136 35 OFFCURVE",
"346 35 CURVE",
"346 -40 LINE"
);
},
{
closed = 1;
nodes = (
"225 80 OFFCURVE",
"166 184 OFFCURVE",
"166 315 CURVE SMOOTH",
"166 446 OFFCURVE",
"225 550 OFFCURVE",
"346 550 CURVE",
"346 80 LINE"
);
},
{
closed = 1;
nodes = (
"476 550 LINE",
"595 550 OFFCURVE",
"656 446 OFFCURVE",
"656 315 CURVE SMOOTH",
"656 184 OFFCURVE",
"595 80 OFFCURVE",
"476 80 CURVE"
);
}
);
width = 821;
}
);
unicode = 0424;
},
{
glyphname = afii10040;
lastChange = "2015-09-23 01:10:40 +0000";
layers = (
{
layerId = UUID0;
name = Regular;
paths = (
{
closed = 1;
nodes = (
"685 -185 LINE",
"685 10 LINE SMOOTH",
"685 30 OFFCURVE",
"670 45 OFFCURVE",
"650 45 CURVE SMOOTH",
"615 45 LINE",
"615 660 LINE",
"485 660 LINE",
"485 45 LINE",
"225 45 LINE",
"225 530 LINE SMOOTH",
"225 629 OFFCURVE",
"205 660 OFFCURVE",
"135 660 CURVE SMOOTH",
"15 660 LINE",
"15 630 LINE",
"25 630 LINE SMOOTH",
"85 630 OFFCURVE",
"95 590 OFFCURVE",
"95 530 CURVE SMOOTH",
"95 0 LINE",
"510 0 LINE SMOOTH",
"582 0 OFFCURVE",
"619 -40 OFFCURVE",
"635 -185 CURVE"
);
}
);
width = 706;
}
);
leftKerningGroup = afii10018;
rightKerningGroup = afii10021;
unicode = 0426;
},
{
glyphname = afii10041;
lastChange = "2015-09-23 01:10:40 +0000";
layers = (
{
layerId = UUID0;
name = Regular;
paths = (
{
closed = 1;
nodes = (
"589 0 LINE",
"589 660 LINE",
"459 660 LINE",
"459 305 LINE",
"428 293 OFFCURVE",
"390 285 OFFCURVE",
"349 285 CURVE SMOOTH",
"269 285 OFFCURVE",
"209 339 OFFCURVE",
"209 450 CURVE SMOOTH",
"209 530 LINE SMOOTH",
"209 629 OFFCURVE",
"189 660 OFFCURVE",
"119 660 CURVE SMOOTH",
"-1 660 LINE",
"-1 630 LINE",
"9 630 LINE SMOOTH",
"69 630 OFFCURVE",
"79 590 OFFCURVE",
"79 530 CURVE SMOOTH",
"79 460 LINE SMOOTH",
"79 309 OFFCURVE",
"169 240 OFFCURVE",
"330 240 CURVE SMOOTH",
"379 240 OFFCURVE",
"428 247 OFFCURVE",
"459 260 CURVE",
"459 0 LINE"
);
}
);
width = 663;
}
);
rightKerningGroup = afii10026;
unicode = 0427;
},
{
glyphname = afii10042;
lastChange = "2015-09-23 01:10:40 +0000";
layers = (
{
layerId = UUID0;
name = Regular;
paths = (
{
closed = 1;
nodes = (
"875 0 LINE",
"875 660 LINE",
"745 660 LINE",
"745 45 LINE",
"550 45 LINE",
"550 660 LINE",
"420 660 LINE",
"420 45 LINE",
"225 45 LINE",
"225 530 LINE SMOOTH",
"225 629 OFFCURVE",
"205 660 OFFCURVE",
"135 660 CURVE SMOOTH",
"15 660 LINE",
"15 630 LINE",
"25 630 LINE SMOOTH",
"85 630 OFFCURVE",
"95 590 OFFCURVE",
"95 530 CURVE SMOOTH",
"95 0 LINE"
);
}
);
width = 949;
}
);
leftKerningGroup = afii10018;
rightKerningGroup = afii10026;
unicode = 0428;
},
{
glyphname = afii10043;
lastChange = "2015-09-23 01:10:39 +0000";
layers = (
{
layerId = UUID0;
name = Regular;
paths = (
{
closed = 1;
nodes = (
"945 -185 LINE",
"945 10 LINE SMOOTH",
"945 30 OFFCURVE",
"930 45 OFFCURVE",
"910 45 CURVE SMOOTH",
"875 45 LINE",
"875 660 LINE",
"745 660 LINE",
"745 45 LINE",
"550 45 LINE",
"550 660 LINE",
"420 660 LINE",
"420 45 LINE",
"225 45 LINE",
"225 530 LINE SMOOTH",
"225 629 OFFCURVE",
"205 660 OFFCURVE",
"135 660 CURVE SMOOTH",
"15 660 LINE",
"15 630 LINE",
"25 630 LINE SMOOTH",
"85 630 OFFCURVE",
"95 590 OFFCURVE",
"95 530 CURVE SMOOTH",
"95 0 LINE",
"770 0 LINE SMOOTH",
"842 0 OFFCURVE",
"879 -40 OFFCURVE",
"895 -185 CURVE"
);
}
);
width = 966;
}
);
leftKerningGroup = afii10018;
rightKerningGroup = afii10021;
unicode = 0429;
},
{
glyphname = afii10044;
lastChange = "2015-09-23 01:10:40 +0000";
layers = (
{
layerId = UUID0;
name = Regular;
paths = (
{
closed = 1;
nodes = (
"410 0 LINE SMOOTH",
"554 0 OFFCURVE",
"705 39 OFFCURVE",
"705 195 CURVE SMOOTH",
"705 351 OFFCURVE",
"554 390 OFFCURVE",
"410 390 CURVE SMOOTH",
"320 390 LINE",
"320 660 LINE",
"59 660 LINE SMOOTH",
"39 660 OFFCURVE",
"24 645 OFFCURVE",
"24 625 CURVE SMOOTH",
"24 460 LINE",
"64 460 LINE",
"69 571 OFFCURVE",
"103 615 OFFCURVE",
"179 615 CURVE SMOOTH",
"190 615 LINE",
"190 0 LINE"
);
},
{
closed = 1;
nodes = (
"370 40 OFFCURVE",
"353 42 OFFCURVE",
"340 45 CURVE SMOOTH",
"333 46 OFFCURVE",
"326 48 OFFCURVE",
"320 50 CURVE",
"320 340 LINE",
"340 345 LINE SMOOTH",
"352 348 OFFCURVE",
"370 350 OFFCURVE",
"390 350 CURVE SMOOTH",
"395 350 LINE SMOOTH",
"515 350 OFFCURVE",
"565 295 OFFCURVE",
"565 195 CURVE SMOOTH",
"565 95 OFFCURVE",
"515 40 OFFCURVE",
"395 40 CURVE SMOOTH",
"390 40 LINE SMOOTH"
);
}
);
width = 722;
}
);
rightKerningGroup = afii10044;
unicode = 042A;
},
{
glyphname = afii10045;
lastChange = "2015-09-23 01:10:40 +0000";
layers = (
{
layerId = UUID0;
name = Regular;
paths = (
{
closed = 1;
nodes = (
"305 0 LINE SMOOTH",
"449 0 OFFCURVE",
"600 39 OFFCURVE",
"600 195 CURVE SMOOTH",
"600 351 OFFCURVE",
"449 390 OFFCURVE",
"305 390 CURVE SMOOTH",
"225 390 LINE",
"225 530 LINE SMOOTH",
"225 629 OFFCURVE",
"205 660 OFFCURVE",
"135 660 CURVE SMOOTH",
"15 660 LINE",
"15 630 LINE",
"25 630 LINE SMOOTH",
"85 630 OFFCURVE",
"95 590 OFFCURVE",
"95 530 CURVE SMOOTH",
"95 0 LINE"
);
},
{
closed = 1;
nodes = (
"273 40 OFFCURVE",
"257 42 OFFCURVE",
"244 45 CURVE SMOOTH",
"237 46 OFFCURVE",
"230 48 OFFCURVE",
"225 50 CURVE",
"225 340 LINE",
"244 345 LINE SMOOTH",
"256 348 OFFCURVE",
"271 350 OFFCURVE",
"290 350 CURVE SMOOTH",
"410 350 OFFCURVE",
"460 295 OFFCURVE",
"460 195 CURVE SMOOTH",
"460 95 OFFCURVE",
"410 40 OFFCURVE",
"290 40 CURVE SMOOTH"
);
},
{
closed = 1;
nodes = (
"879 0 LINE",
"879 30 LINE",
"869 30 LINE SMOOTH",
"809 30 OFFCURVE",
"799 70 OFFCURVE",
"799 130 CURVE SMOOTH",
"799 660 LINE",
"669 660 LINE",
"669 130 LINE SMOOTH",
"669 29 OFFCURVE",
"689 0 OFFCURVE",
"759 0 CURVE SMOOTH"
);
}
);
width = 894;
}
);
leftKerningGroup = afii10018;
rightKerningGroup = afii10031;
unicode = 042B;
},
{
glyphname = afii10046;
lastChange = "2015-09-23 01:10:40 +0000";
layers = (
{
layerId = UUID0;
name = Regular;
paths = (
{
closed = 1;
nodes = (
"315 0 LINE SMOOTH",
"459 0 OFFCURVE",
"610 39 OFFCURVE",
"610 195 CURVE SMOOTH",
"610 351 OFFCURVE",
"459 390 OFFCURVE",
"315 390 CURVE SMOOTH",
"225 390 LINE",
"225 530 LINE SMOOTH",
"225 629 OFFCURVE",
"205 660 OFFCURVE",
"135 660 CURVE SMOOTH",
"15 660 LINE",
"15 630 LINE",
"25 630 LINE SMOOTH",
"85 630 OFFCURVE",
"95 590 OFFCURVE",
"95 530 CURVE SMOOTH",
"95 0 LINE"
);
},
{
closed = 1;
nodes = (
"275 40 OFFCURVE",
"258 42 OFFCURVE",
"245 45 CURVE SMOOTH",
"238 46 OFFCURVE",
"231 48 OFFCURVE",
"225 50 CURVE",
"225 340 LINE",
"245 345 LINE SMOOTH",
"257 348 OFFCURVE",
"275 350 OFFCURVE",
"295 350 CURVE SMOOTH",
"300 350 LINE SMOOTH",
"420 350 OFFCURVE",
"470 295 OFFCURVE",
"470 195 CURVE SMOOTH",
"470 95 OFFCURVE",
"420 40 OFFCURVE",
"300 40 CURVE SMOOTH",
"295 40 LINE SMOOTH"
);
}
);
width = 627;
}
);
leftKerningGroup = afii10018;
rightKerningGroup = afii10044;
unicode = 042C;
},
{
glyphname = afii10047;
lastChange = "2015-09-23 01:10:40 +0000";
layers = (
{
layerId = UUID0;
name = Regular;
paths = (
{
closed = 1;
nodes = (
"524 -20 OFFCURVE",
"643 128 OFFCURVE",
"643 320 CURVE SMOOTH",
"643 522 OFFCURVE",
"502 680 OFFCURVE",
"313 680 CURVE SMOOTH",
"188 680 OFFCURVE",
"113 642 OFFCURVE",
"76 599 CURVE",
"49 564 OFFCURVE",
"50 506 OFFCURVE",
"50 447 CURVE",
"80 447 LINE",
"105 568 OFFCURVE",
"172 635 OFFCURVE",
"283 635 CURVE SMOOTH",
"398 635 OFFCURVE",
"494 570 OFFCURVE",
"502 355 CURVE",
"193 355 LINE",
"193 310 LINE",
"503 310 LINE",
"500 161 OFFCURVE",
"438 25 OFFCURVE",
"283 25 CURVE SMOOTH",
"191 25 OFFCURVE",
"108 75 OFFCURVE",
"60 168 CURVE",
"25 141 LINE",
"88 30 OFFCURVE",
"173 -20 OFFCURVE",
"313 -20 CURVE SMOOTH"
);
}
);
width = 680;
}
);
rightKerningGroup = afii10032;
unicode = 042D;
},
{
glyphname = afii10048;
lastChange = "2015-09-23 01:10:40 +0000";
layers = (
{
layerId = UUID0;
name = Regular;
paths = (
{
closed = 1;
nodes = (
"749 -20 OFFCURVE",
"879 122 OFFCURVE",
"879 330 CURVE SMOOTH",
"879 538 OFFCURVE",
"749 680 OFFCURVE",
"580 680 CURVE SMOOTH",
"420 680 OFFCURVE",
"297 554 OFFCURVE",
"281 365 CURVE",
"225 365 LINE",
"225 530 LINE SMOOTH",
"225 629 OFFCURVE",
"205 660 OFFCURVE",
"135 660 CURVE SMOOTH",
"15 660 LINE",
"15 630 LINE",
"25 630 LINE SMOOTH",
"85 630 OFFCURVE",
"95 590 OFFCURVE",
"95 530 CURVE SMOOTH",
"95 0 LINE",
"225 0 LINE",
"225 320 LINE",
"280 320 LINE",
"283 117 OFFCURVE",
"416 -20 OFFCURVE",
"580 -20 CURVE SMOOTH"
);
},
{
closed = 1;
nodes = (
"488 25 OFFCURVE",
"420 127 OFFCURVE",
"420 330 CURVE SMOOTH",
"420 533 OFFCURVE",
"488 635 OFFCURVE",
"580 635 CURVE SMOOTH",
"671 635 OFFCURVE",
"741 533 OFFCURVE",
"741 330 CURVE SMOOTH",
"741 127 OFFCURVE",
"671 25 OFFCURVE",
"580 25 CURVE SMOOTH"
);
}
);
width = 917;
}
);
leftKerningGroup = afii10018;
rightKerningGroup = afii10032;
unicode = 042E;
},
{
glyphname = afii10049;
lastChange = "2015-09-23 01:10:39 +0000";
layers = (
{
layerId = UUID0;
name = Regular;
paths = (
{
closed = 1;
nodes = (
"142 -16 OFFCURVE",
"199 21 OFFCURVE",
"267 129 CURVE SMOOTH",
"357 272 LINE",
"401 272 LINE",
"401 0 LINE",
"532 0 LINE",
"532 530 LINE SMOOTH",
"532 590 OFFCURVE",
"542 630 OFFCURVE",
"602 630 CURVE SMOOTH",
"612 630 LINE",
"612 660 LINE",
"336 660 LINE SMOOTH",
"228 660 OFFCURVE",
"66 625 OFFCURVE",
"66 461 CURVE SMOOTH",
"66 355 OFFCURVE",
"154 296 OFFCURVE",
"228 280 CURVE",
"133 129 LINE SMOOTH",
"79 46 OFFCURVE",
"40 25 OFFCURVE",
"9 19 CURVE",
"9 -6 LINE",
"20 -11 OFFCURVE",
"52 -16 OFFCURVE",
"77 -16 CURVE SMOOTH"
);
},
{
closed = 1;
nodes = (
"277 312 OFFCURVE",
"206 359 OFFCURVE",
"206 466 CURVE SMOOTH",
"206 570 OFFCURVE",
"277 620 OFFCURVE",
"336 620 CURVE SMOOTH",
"352 620 OFFCURVE",
"369 619 OFFCURVE",
"381 616 CURVE",
"401 613 LINE",
"401 312 LINE",
"341 312 LINE SMOOTH"
);
}
);
width = 627;
}
);
unicode = 042F;
},
{
glyphname = afii10066;
lastChange = "2015-09-23 01:10:40 +0000";
layers = (
{
layerId = UUID0;
name = Regular;
paths = (
{
closed = 1;
nodes = (
"415 -10 OFFCURVE",
"505 60 OFFCURVE",
"505 215 CURVE SMOOTH",
"505 370 OFFCURVE",
"415 440 OFFCURVE",
"295 440 CURVE SMOOTH",
"199 440 OFFCURVE",
"146 390 OFFCURVE",
"115 310 CURVE",
"110 310 LINE",
"115 435 OFFCURVE",
"181 494 OFFCURVE",
"261 513 CURVE SMOOTH",
"425 550 LINE SMOOTH",
"474 561 OFFCURVE",
"485 590 OFFCURVE",
"485 615 CURVE SMOOTH",
"485 695 LINE",
"455 695 LINE",
"450 670 OFFCURVE",
"416 658 OFFCURVE",
"360 645 CURVE SMOOTH",
"221 613 LINE SMOOTH",
"116 589 OFFCURVE",
"45 525 OFFCURVE",
"45 270 CURVE SMOOTH",
"45 240 LINE SMOOTH",
"45 80 OFFCURVE",
"135 -10 OFFCURVE",
"275 -10 CURVE SMOOTH"
);
},
{
closed = 1;
nodes = (
"235 35 OFFCURVE",
"180 70 OFFCURVE",
"180 215 CURVE SMOOTH",
"180 355 OFFCURVE",
"235 395 OFFCURVE",
"275 395 CURVE SMOOTH",
"315 395 OFFCURVE",
"370 355 OFFCURVE",
"370 215 CURVE SMOOTH",
"370 70 OFFCURVE",
"315 35 OFFCURVE",
"275 35 CURVE SMOOTH"
);
}
);
width = 545;
}
);
unicode = 0431;
},
{
glyphname = afii10067;
lastChange = "2015-09-23 01:10:40 +0000";
layers = (
{
layerId = UUID0;
name = Regular;
paths = (
{
closed = 1;
nodes = (
"267 0 LINE SMOOTH",
"408 0 OFFCURVE",
"489 39 OFFCURVE",
"489 130 CURVE SMOOTH",
"489 195 OFFCURVE",
"427 234 OFFCURVE",
"342 245 CURVE",
"422 256 OFFCURVE",
"469 290 OFFCURVE",
"469 350 CURVE SMOOTH",
"469 430 OFFCURVE",
"387 470 OFFCURVE",
"267 470 CURVE SMOOTH",
"-1 470 LINE",
"-1 440 LINE",
"4 440 LINE SMOOTH",
"64 440 OFFCURVE",
"74 400 OFFCURVE",
"74 340 CURVE SMOOTH",
"74 0 LINE"
);
},
{
closed = 1;
nodes = (
"238 40 OFFCURVE",
"219 42 OFFCURVE",
"204 47 CURVE",
"204 225 LINE",
"239 225 LINE SMOOTH",
"310 225 OFFCURVE",
"354 194 OFFCURVE",
"354 130 CURVE SMOOTH",
"354 70 OFFCURVE",
"309 40 OFFCURVE",
"249 40 CURVE SMOOTH"
);
},
{
closed = 1;
nodes = (
"204 423 LINE",
"219 428 OFFCURVE",
"238 430 OFFCURVE",
"249 430 CURVE SMOOTH",
"289 430 OFFCURVE",
"334 406 OFFCURVE",
"334 350 CURVE SMOOTH",
"334 299 OFFCURVE",
"290 270 OFFCURVE",
"239 270 CURVE SMOOTH",
"204 270 LINE"
);
}
);
width = 524;
}
);
leftKerningGroup = afii10067;
unicode = 0432;
},
{
glyphname = afii10068;
lastChange = "2015-09-23 01:10:40 +0000";
layers = (
{
layerId = UUID0;
name = Regular;
paths = (
{
closed = 1;
nodes = (
"204 0 LINE",
"204 425 LINE",
"294 425 LINE SMOOTH",
"354 425 OFFCURVE",
"389 396 OFFCURVE",
"389 320 CURVE",
"419 320 LINE",
"419 390 LINE SMOOTH",
"419 430 OFFCURVE",
"404 470 OFFCURVE",
"344 470 CURVE SMOOTH",
"-1 470 LINE",
"-1 440 LINE",
"4 440 LINE SMOOTH",
"64 440 OFFCURVE",
"74 400 OFFCURVE",
"74 340 CURVE SMOOTH",
"74 0 LINE"
);
}
);
width = 440;
}
);
leftKerningGroup = afii10067;
rightKerningGroup = afii10068;
unicode = 0433;
},
{
glyphname = afii10069;
lastChange = "2015-09-23 01:10:40 +0000";
layers = (
{
layerId = UUID0;
name = Regular;
paths = (
{
closed = 1;
nodes = (
"59 -160 LINE",
"70 -29 OFFCURVE",
"107 0 OFFCURVE",
"171 0 CURVE SMOOTH",
"413 0 LINE SMOOTH",
"477 0 OFFCURVE",
"514 -29 OFFCURVE",
"525 -160 CURVE",
"575 -160 LINE",
"575 10 LINE SMOOTH",
"575 30 OFFCURVE",
"560 45 OFFCURVE",
"540 45 CURVE SMOOTH",
"510 45 LINE",
"510 470 LINE",
"65 470 LINE",
"65 440 LINE",
"130 440 OFFCURVE",
"140 401 OFFCURVE",
"140 350 CURVE SMOOTH",
"140 259 OFFCURVE",
"125 145 OFFCURVE",
"80 45 CURVE",
"44 45 LINE SMOOTH",
"24 45 OFFCURVE",
"9 30 OFFCURVE",
"9 10 CURVE SMOOTH",
"9 -160 LINE"
);
},
{
closed = 1;
nodes = (
"224 145 OFFCURVE",
"239 254 OFFCURVE",
"239 425 CURVE",
"380 425 LINE",
"380 45 LINE",
"184 45 LINE"
);
}
);
width = 583;
}
);
unicode = 0434;
},
{
glyphname = afii10072;
lastChange = "2015-09-23 01:10:40 +0000";
layers = (
{
layerId = UUID0;
name = Regular;
paths = (
{
closed = 1;
nodes = (
"126 -10 OFFCURVE",
"172 12 OFFCURVE",
"219 80 CURVE SMOOTH",
"305 203 LINE",
"305 0 LINE",
"435 0 LINE",
"435 203 LINE",
"521 80 LINE SMOOTH",
"568 12 OFFCURVE",
"614 -10 OFFCURVE",
"670 -10 CURVE SMOOTH",
"695 -10 OFFCURVE",
"728 -5 OFFCURVE",
"739 0 CURVE",
"739 24 LINE",
"711 31 OFFCURVE",
"679 53 OFFCURVE",
"646 100 CURVE SMOOTH",
"522 276 LINE",
"610 394 LINE SMOOTH",
"637 430 OFFCURVE",
"670 444 OFFCURVE",
"710 444 CURVE",
"710 470 LINE",
"690 470 LINE SMOOTH",
"619 470 OFFCURVE",
"585 444 OFFCURVE",
"546 393 CURVE SMOOTH",
"435 245 LINE",
"435 470 LINE",
"305 470 LINE",
"305 245 LINE",
"194 393 LINE SMOOTH",
"155 444 OFFCURVE",
"121 470 OFFCURVE",
"50 470 CURVE SMOOTH",
"30 470 LINE",
"30 444 LINE",
"70 444 OFFCURVE",
"103 430 OFFCURVE",
"130 394 CURVE SMOOTH",
"218 276 LINE",
"94 100 LINE SMOOTH",
"61 53 OFFCURVE",
"29 31 OFFCURVE",
"1 24 CURVE",
"1 0 LINE",
"12 -5 OFFCURVE",
"45 -10 OFFCURVE",
"70 -10 CURVE SMOOTH"
);
}
);
width = 740;
}
);
unicode = 0436;
},
{
glyphname = afii10073;
lastChange = "2015-09-23 01:10:40 +0000";
layers = (
{
layerId = UUID0;
name = Regular;
paths = (
{
closed = 1;
nodes = (
"342 -10 OFFCURVE",
"425 29 OFFCURVE",
"425 125 CURVE SMOOTH",
"425 185 OFFCURVE",
"373 229 OFFCURVE",
"290 240 CURVE",
"362 251 OFFCURVE",
"410 290 OFFCURVE",
"410 350 CURVE SMOOTH",
"410 439 OFFCURVE",
"330 480 OFFCURVE",
"210 480 CURVE SMOOTH",
"150 480 OFFCURVE",
"95 470 OFFCURVE",
"70 445 CURVE SMOOTH",
"45 420 OFFCURVE",
"45 381 OFFCURVE",
"45 325 CURVE",
"75 325 LINE",
"79 390 OFFCURVE",
"125 435 OFFCURVE",
"185 435 CURVE SMOOTH",
"231 435 OFFCURVE",
"275 410 OFFCURVE",
"275 350 CURVE SMOOTH",
"275 290 OFFCURVE",
"250 265 OFFCURVE",
"170 265 CURVE SMOOTH",
"120 265 LINE",
"120 220 LINE",
"170 220 LINE SMOOTH",
"263 220 OFFCURVE",
"290 188 OFFCURVE",
"290 125 CURVE SMOOTH",
"290 60 OFFCURVE",
"245 35 OFFCURVE",
"185 35 CURVE SMOOTH",
"116 35 OFFCURVE",
"79 71 OFFCURVE",
"60 95 CURVE",
"30 70 LINE",
"65 25 OFFCURVE",
"120 -10 OFFCURVE",
"215 -10 CURVE SMOOTH"
);
}
);
width = 460;
}
);
unicode = 0437;
},
{
glyphname = afii10074;
lastChange = "2015-09-23 01:10:40 +0000";
layers = (
{
layerId = UUID0;
name = Regular;
paths = (
{
closed = 1;
nodes = (
"199 0 LINE",
"379 345 LINE",
"379 0 LINE",
"509 0 LINE",
"509 470 LINE",
"389 470 LINE",
"209 125 LINE",
"209 340 LINE SMOOTH",
"209 439 OFFCURVE",
"189 470 OFFCURVE",
"119 470 CURVE SMOOTH",
"-1 470 LINE",
"-1 440 LINE",
"9 440 LINE SMOOTH",
"69 440 OFFCURVE",
"79 400 OFFCURVE",
"79 340 CURVE SMOOTH",
"79 0 LINE"
);
}
);
width = 569;
}
);
leftKerningGroup = afii10067;
rightKerningGroup = afii10074;
unicode = 0438;
},
{
glyphname = afii10076;
lastChange = "2015-09-23 01:10:40 +0000";
layers = (
{
layerId = UUID0;
name = Regular;
paths = (
{
closed = 1;
nodes = (
"479 -10 OFFCURVE",
"512 -5 OFFCURVE",
"523 0 CURVE",
"523 24 LINE",
"495 31 OFFCURVE",
"465 53 OFFCURVE",
"430 100 CURVE SMOOTH",
"297 276 LINE",
"394 394 LINE SMOOTH",
"423 429 OFFCURVE",
"454 444 OFFCURVE",
"494 444 CURVE",
"494 470 LINE",
"474 470 LINE SMOOTH",
"403 470 OFFCURVE",
"371 442 OFFCURVE",
"330 393 CURVE SMOOTH",
"209 245 LINE",
"209 340 LINE SMOOTH",
"209 439 OFFCURVE",
"189 470 OFFCURVE",
"119 470 CURVE SMOOTH",
"-1 470 LINE",
"-1 440 LINE",
"9 440 LINE SMOOTH",
"69 440 OFFCURVE",
"79 400 OFFCURVE",
"79 340 CURVE SMOOTH",
"79 0 LINE",
"209 0 LINE",
"209 196 LINE",
"305 70 LINE SMOOTH",
"349 10 OFFCURVE",
"398 -10 OFFCURVE",
"454 -10 CURVE SMOOTH"
);
}
);
width = 524;
}
);
leftKerningGroup = afii10067;
rightKerningGroup = afii10076;
unicode = 043A;
},
{
glyphname = afii10077;
lastChange = "2015-09-23 01:10:40 +0000";
layers = (
{
layerId = UUID0;
name = Regular;
paths = (
{
closed = 1;
nodes = (
"166 -15 OFFCURVE",
"236 80 OFFCURVE",
"236 350 CURVE SMOOTH",
"236 425 LINE",
"377 425 LINE",
"377 0 LINE",
"507 0 LINE",
"507 470 LINE",
"57 470 LINE",
"57 440 LINE",
"121 440 OFFCURVE",
"132 401 OFFCURVE",
"132 350 CURVE SMOOTH",
"132 90 OFFCURVE",
"75 34 OFFCURVE",
"6 23 CURVE",
"6 -6 LINE",
"17 -10 OFFCURVE",
"45 -15 OFFCURVE",
"66 -15 CURVE SMOOTH"
);
}
);
width = 567;
}
);
leftKerningGroup = afii10077;
rightKerningGroup = afii10074;
unicode = 043B;
},
{
glyphname = afii10078;
lastChange = "2015-09-23 01:10:40 +0000";
layers = (
{
layerId = UUID0;
name = Regular;
paths = (
{
closed = 1;
nodes = (
"664 0 LINE",
"609 9 OFFCURVE",
"591 59 OFFCURVE",
"591 170 CURVE SMOOTH",
"591 480 LINE",
"460 480 LINE",
"330 169 LINE",
"182 470 LINE",
"60 470 LINE",
"60 1 LINE",
"110 1 LINE",
"110 354 LINE",
"284 0 LINE",
"317 0 LINE",
"461 344 LINE",
"461 170 LINE SMOOTH",
"461 39 OFFCURVE",
"519 -25 OFFCURVE",
"664 -25 CURVE"
);
}
);
width = 666;
}
);
unicode = 043C;
},
{
glyphname = afii10079;
lastChange = "2015-09-23 01:10:40 +0000";
layers = (
{
layerId = UUID0;
name = Regular;
paths = (
{
closed = 1;
nodes = (
"209 0 LINE",
"209 215 LINE",
"369 215 LINE",
"369 130 LINE SMOOTH",
"369 29 OFFCURVE",
"389 0 OFFCURVE",
"459 0 CURVE SMOOTH",
"579 0 LINE",
"579 30 LINE",
"569 30 LINE SMOOTH",
"509 30 OFFCURVE",
"499 70 OFFCURVE",
"499 130 CURVE SMOOTH",
"499 470 LINE",
"369 470 LINE",
"369 260 LINE",
"209 260 LINE",
"209 340 LINE SMOOTH",
"209 439 OFFCURVE",
"189 470 OFFCURVE",
"119 470 CURVE SMOOTH",
"-1 470 LINE",
"-1 440 LINE",
"9 440 LINE SMOOTH",
"69 440 OFFCURVE",
"79 400 OFFCURVE",
"79 340 CURVE SMOOTH",
"79 0 LINE"
);
}
);
width = 578;
}
);
leftKerningGroup = afii10067;
rightKerningGroup = afii10079;
unicode = 043D;
},
{
glyphname = afii10081;
lastChange = "2015-09-23 01:10:39 +0000";
layers = (
{
layerId = UUID0;
name = Regular;
paths = (
{
closed = 1;
nodes = (
"204 0 LINE",
"204 425 LINE",
"364 425 LINE",
"364 0 LINE",
"494 0 LINE",
"494 470 LINE",
"-1 470 LINE",
"-1 440 LINE",
"4 440 LINE SMOOTH",
"64 440 OFFCURVE",
"74 400 OFFCURVE",
"74 340 CURVE SMOOTH",
"74 0 LINE"
);
}
);
width = 554;
}
);
leftKerningGroup = afii10067;
rightKerningGroup = afii10074;
unicode = 043F;
},
{
glyphname = afii10084;
lastChange = "2015-09-23 01:10:40 +0000";
layers = (
{
layerId = UUID0;
name = Regular;
paths = (
{
closed = 1;
nodes = (
"307 0 LINE",
"307 425 LINE",
"458 425 LINE",
"458 470 LINE",
"97 470 LINE SMOOTH",
"37 470 OFFCURVE",
"22 430 OFFCURVE",
"22 390 CURVE SMOOTH",
"22 320 LINE",
"52 320 LINE",
"52 396 OFFCURVE",
"87 425 OFFCURVE",
"147 425 CURVE SMOOTH",
"177 425 LINE",
"177 0 LINE"
);
}
);
width = 467;
}
);
unicode = 0442;
},
{
glyphname = afii10086;
lastChange = "2015-09-23 01:10:40 +0000";
layers = (
{
layerId = UUID0;
name = Regular;
paths = (
{
closed = 1;
nodes = (
"417 -190 LINE",
"417 -10 LINE",
"577 1 OFFCURVE",
"667 99 OFFCURVE",
"667 235 CURVE SMOOTH",
"667 371 OFFCURVE",
"577 469 OFFCURVE",
"417 480 CURVE",
"417 530 LINE SMOOTH",
"417 629 OFFCURVE",
"397 660 OFFCURVE",
"327 660 CURVE SMOOTH",
"207 660 LINE",
"207 630 LINE",
"217 630 LINE SMOOTH",
"277 630 OFFCURVE",
"287 590 OFFCURVE",
"287 530 CURVE SMOOTH",
"287 480 LINE",
"127 469 OFFCURVE",
"37 371 OFFCURVE",
"37 235 CURVE SMOOTH",
"37 99 OFFCURVE",
"127 1 OFFCURVE",
"287 -10 CURVE",
"287 -190 LINE"
);
},
{
closed = 1;
nodes = (
"231 36 OFFCURVE",
"172 104 OFFCURVE",
"172 235 CURVE SMOOTH",
"172 366 OFFCURVE",
"231 434 OFFCURVE",
"292 445 CURVE",
"292 25 LINE"
);
},
{
closed = 1;
nodes = (
"412 445 LINE",
"473 434 OFFCURVE",
"532 366 OFFCURVE",
"532 235 CURVE SMOOTH",
"532 104 OFFCURVE",
"473 36 OFFCURVE",
"412 25 CURVE"
);
}
);
width = 704;
}
);
leftKerningGroup = afii10070;
rightKerningGroup = afii10080;
unicode = 0444;
},
{
glyphname = afii10088;
lastChange = "2015-09-23 01:10:40 +0000";
layers = (
{
layerId = UUID0;
name = Regular;
paths = (
{
closed = 1;
nodes = (
"564 -160 LINE",
"564 10 LINE SMOOTH",
"564 30 OFFCURVE",
"549 45 OFFCURVE",
"529 45 CURVE SMOOTH",
"499 45 LINE",
"499 470 LINE",
"369 470 LINE",
"369 45 LINE",
"209 45 LINE",
"209 340 LINE SMOOTH",
"209 439 OFFCURVE",
"189 470 OFFCURVE",
"119 470 CURVE SMOOTH",
"-1 470 LINE",
"-1 440 LINE",
"9 440 LINE SMOOTH",
"69 440 OFFCURVE",
"79 400 OFFCURVE",
"79 340 CURVE SMOOTH",
"79 0 LINE",
"407 0 LINE SMOOTH",
"471 0 OFFCURVE",
"508 -29 OFFCURVE",
"519 -160 CURVE"
);
}
);
width = 572;
}
);
leftKerningGroup = afii10067;
unicode = 0446;
},
{
glyphname = afii10089;
lastChange = "2015-09-23 01:10:40 +0000";
layers = (
{
layerId = UUID0;
name = Regular;
paths = (
{
closed = 1;
nodes = (
"494 0 LINE",
"494 470 LINE",
"364 470 LINE",
"364 221 LINE",
"344 210 OFFCURVE",
"328 205 OFFCURVE",
"297 205 CURVE SMOOTH",
"246 205 OFFCURVE",
"214 234 OFFCURVE",
"214 310 CURVE SMOOTH",
"214 340 LINE SMOOTH",
"214 439 OFFCURVE",
"194 470 OFFCURVE",
"124 470 CURVE SMOOTH",
"4 470 LINE",
"4 440 LINE",
"14 440 LINE SMOOTH",
"74 440 OFFCURVE",
"84 400 OFFCURVE",
"84 340 CURVE SMOOTH",
"84 310 LINE SMOOTH",
"84 201 OFFCURVE",
"169 160 OFFCURVE",
"274 160 CURVE SMOOTH",
"309 160 OFFCURVE",
"344 169 OFFCURVE",
"364 178 CURVE",
"364 0 LINE"
);
}
);
width = 554;
}
);
rightKerningGroup = afii10074;
unicode = 0447;
},
{
glyphname = afii10090;
lastChange = "2015-09-23 01:10:40 +0000";
layers = (
{
layerId = UUID0;
name = Regular;
paths = (
{
closed = 1;
nodes = (
"699 0 LINE",
"699 470 LINE",
"569 470 LINE",
"569 45 LINE",
"454 45 LINE",
"454 470 LINE",
"324 470 LINE",
"324 45 LINE",
"209 45 LINE",
"209 340 LINE SMOOTH",
"209 439 OFFCURVE",
"189 470 OFFCURVE",
"119 470 CURVE SMOOTH",
"-1 470 LINE",
"-1 440 LINE",
"9 440 LINE SMOOTH",
"69 440 OFFCURVE",
"79 400 OFFCURVE",
"79 340 CURVE SMOOTH",
"79 0 LINE"
);
}
);
width = 759;
}
);
leftKerningGroup = afii10067;
rightKerningGroup = afii10074;
unicode = 0448;
},
{
glyphname = afii10091;
lastChange = "2015-09-23 01:10:40 +0000";
layers = (
{
layerId = UUID0;
name = Regular;
paths = (
{
closed = 1;
nodes = (
"764 -160 LINE",
"764 10 LINE SMOOTH",
"764 30 OFFCURVE",
"749 45 OFFCURVE",
"729 45 CURVE SMOOTH",
"699 45 LINE",
"699 470 LINE",
"569 470 LINE",
"569 45 LINE",
"454 45 LINE",
"454 470 LINE",
"324 470 LINE",
"324 45 LINE",
"209 45 LINE",
"209 340 LINE SMOOTH",
"209 439 OFFCURVE",
"189 470 OFFCURVE",
"119 470 CURVE SMOOTH",
"-1 470 LINE",
"-1 440 LINE",
"9 440 LINE SMOOTH",
"69 440 OFFCURVE",
"79 400 OFFCURVE",
"79 340 CURVE SMOOTH",
"79 0 LINE",
"607 0 LINE SMOOTH",
"671 0 OFFCURVE",
"708 -29 OFFCURVE",
"719 -160 CURVE"
);
}
);
width = 772;
}
);
leftKerningGroup = afii10067;
unicode = 0449;
},
{
glyphname = afii10092;
lastChange = "2015-09-23 01:10:40 +0000";
layers = (
{
layerId = UUID0;
name = Regular;
paths = (
{
closed = 1;
nodes = (
"373 0 LINE SMOOTH",
"498 0 OFFCURVE",
"578 49 OFFCURVE",
"578 140 CURVE SMOOTH",
"578 231 OFFCURVE",
"498 280 OFFCURVE",
"373 280 CURVE SMOOTH",
"298 280 LINE",
"298 470 LINE",
"63 470 LINE SMOOTH",
"43 470 OFFCURVE",
"28 455 OFFCURVE",
"28 435 CURVE SMOOTH",
"28 290 LINE",
"68 290 LINE",
"73 377 OFFCURVE",
"97 420 OFFCURVE",
"168 425 CURVE",
"168 0 LINE"
);
},
{
closed = 1;
nodes = (
"332 40 OFFCURVE",
"313 42 OFFCURVE",
"298 47 CURVE",
"298 233 LINE",
"313 238 OFFCURVE",
"332 240 OFFCURVE",
"343 240 CURVE SMOOTH",
"398 240 OFFCURVE",
"443 216 OFFCURVE",
"443 140 CURVE SMOOTH",
"443 64 OFFCURVE",
"398 40 OFFCURVE",
"343 40 CURVE SMOOTH"
);
}
);
width = 598;
}
);
unicode = 044A;
},
{
glyphname = afii10093;
lastChange = "2015-09-23 01:10:40 +0000";
layers = (
{
layerId = UUID0;
name = Regular;
paths = (
{
closed = 1;
nodes = (
"274 0 LINE SMOOTH",
"399 0 OFFCURVE",
"479 49 OFFCURVE",
"479 140 CURVE SMOOTH",
"479 231 OFFCURVE",
"399 280 OFFCURVE",
"274 280 CURVE SMOOTH",
"209 280 LINE",
"209 340 LINE SMOOTH",
"209 439 OFFCURVE",
"189 470 OFFCURVE",
"119 470 CURVE SMOOTH",
"-1 470 LINE",
"-1 440 LINE",
"9 440 LINE SMOOTH",
"69 440 OFFCURVE",
"79 400 OFFCURVE",
"79 340 CURVE SMOOTH",
"79 0 LINE"
);
},
{
closed = 1;
nodes = (
"243 40 OFFCURVE",
"224 42 OFFCURVE",
"209 47 CURVE",
"209 233 LINE",
"224 238 OFFCURVE",
"243 240 OFFCURVE",
"254 240 CURVE SMOOTH",
"299 240 OFFCURVE",
"344 216 OFFCURVE",
"344 140 CURVE SMOOTH",
"344 64 OFFCURVE",
"299 40 OFFCURVE",
"254 40 CURVE SMOOTH"
);
},
{
closed = 1;
nodes = (
"739 0 LINE",
"739 30 LINE",
"729 30 LINE SMOOTH",
"669 30 OFFCURVE",
"659 70 OFFCURVE",
"659 130 CURVE SMOOTH",
"659 470 LINE",
"529 470 LINE",
"529 130 LINE SMOOTH",
"529 29 OFFCURVE",
"549 0 OFFCURVE",
"619 0 CURVE SMOOTH"
);
}
);
width = 738;
}
);
leftKerningGroup = afii10067;
rightKerningGroup = afii10079;
unicode = 044B;
},
{
glyphname = afii10094;
lastChange = "2015-09-23 01:10:39 +0000";
layers = (
{
layerId = UUID0;
name = Regular;
paths = (
{
closed = 1;
nodes = (
"284 0 LINE SMOOTH",
"409 0 OFFCURVE",
"489 49 OFFCURVE",
"489 140 CURVE SMOOTH",
"489 231 OFFCURVE",
"409 280 OFFCURVE",
"284 280 CURVE SMOOTH",
"209 280 LINE",
"209 340 LINE SMOOTH",
"209 439 OFFCURVE",
"189 470 OFFCURVE",
"119 470 CURVE SMOOTH",
"-1 470 LINE",
"-1 440 LINE",
"9 440 LINE SMOOTH",
"69 440 OFFCURVE",
"79 400 OFFCURVE",
"79 340 CURVE SMOOTH",
"79 0 LINE"
);
},
{
closed = 1;
nodes = (
"243 40 OFFCURVE",
"224 42 OFFCURVE",
"209 47 CURVE",
"209 233 LINE",
"224 238 OFFCURVE",
"243 240 OFFCURVE",
"254 240 CURVE SMOOTH",
"309 240 OFFCURVE",
"354 216 OFFCURVE",
"354 140 CURVE SMOOTH",
"354 64 OFFCURVE",
"309 40 OFFCURVE",
"254 40 CURVE SMOOTH"
);
}
);
width = 509;
}
);
leftKerningGroup = afii10067;
unicode = 044C;
},
{
glyphname = afii10095;
lastChange = "2015-09-23 01:10:39 +0000";
layers = (
{
layerId = UUID0;
name = Regular;
paths = (
{
closed = 1;
nodes = (
"385 -10 OFFCURVE",
"465 102 OFFCURVE",
"465 235 CURVE SMOOTH",
"465 368 OFFCURVE",
"385 480 OFFCURVE",
"225 480 CURVE SMOOTH",
"149 480 OFFCURVE",
"95 470 OFFCURVE",
"70 445 CURVE SMOOTH",
"45 420 OFFCURVE",
"45 381 OFFCURVE",
"45 305 CURVE",
"75 305 LINE",
"80 390 OFFCURVE",
"130 435 OFFCURVE",
"210 435 CURVE SMOOTH",
"277 435 OFFCURVE",
"324 376 OFFCURVE",
"329 255 CURVE",
"140 255 LINE",
"140 210 LINE",
"329 210 LINE",
"324 91 OFFCURVE",
"281 35 OFFCURVE",
"205 35 CURVE SMOOTH",
"134 35 OFFCURVE",
"97 72 OFFCURVE",
"62 118 CURVE",
"31 95 LINE",
"60 50 OFFCURVE",
"110 -10 OFFCURVE",
"225 -10 CURVE SMOOTH"
);
}
);
width = 501;
}
);
rightKerningGroup = afii10080;
unicode = 044D;
},
{
glyphname = afii10096;
lastChange = "2015-09-23 01:10:40 +0000";
layers = (
{
layerId = UUID0;
name = Regular;
paths = (
{
closed = 1;
nodes = (
"610 -10 OFFCURVE",
"699 98 OFFCURVE",
"699 235 CURVE SMOOTH",
"699 372 OFFCURVE",
"610 480 OFFCURVE",
"474 480 CURVE SMOOTH",
"346 480 OFFCURVE",
"261 384 OFFCURVE",
"250 260 CURVE",
"209 260 LINE",
"209 340 LINE SMOOTH",
"209 439 OFFCURVE",
"189 470 OFFCURVE",
"119 470 CURVE SMOOTH",
"-1 470 LINE",
"-1 440 LINE",
"9 440 LINE SMOOTH",
"69 440 OFFCURVE",
"79 400 OFFCURVE",
"79 340 CURVE SMOOTH",
"79 0 LINE",
"209 0 LINE",
"209 215 LINE",
"249 215 LINE",
"257 87 OFFCURVE",
"346 -10 OFFCURVE",
"474 -10 CURVE SMOOTH"
);
},
{
closed = 1;
nodes = (
"414 35 OFFCURVE",
"384 120 OFFCURVE",
"384 235 CURVE SMOOTH",
"384 350 OFFCURVE",
"414 435 OFFCURVE",
"474 435 CURVE SMOOTH",
"534 435 OFFCURVE",
"564 350 OFFCURVE",
"564 235 CURVE SMOOTH",
"564 120 OFFCURVE",
"534 35 OFFCURVE",
"474 35 CURVE SMOOTH"
);
}
);
width = 735;
}
);
leftKerningGroup = afii10067;
rightKerningGroup = afii10080;
unicode = 044E;
},
{
glyphname = afii10097;
lastChange = "2015-09-23 01:10:40 +0000";
layers = (
{
layerId = UUID0;
name = Regular;
paths = (
{
closed = 1;
nodes = (
"152 -15 OFFCURVE",
"187 15 OFFCURVE",
"216 75 CURVE SMOOTH",
"276 194 LINE",
"320 194 LINE",
"320 0 LINE",
"450 0 LINE",
"450 340 LINE SMOOTH",
"450 400 OFFCURVE",
"460 440 OFFCURVE",
"520 440 CURVE SMOOTH",
"525 440 LINE",
"525 470 LINE",
"265 470 LINE SMOOTH",
"136 470 OFFCURVE",
"45 430 OFFCURVE",
"45 325 CURVE SMOOTH",
"45 260 OFFCURVE",
"89 210 OFFCURVE",
"160 199 CURVE",
"100 95 LINE SMOOTH",
"79 59 OFFCURVE",
"51 26 OFFCURVE",
"15 21 CURVE",
"15 -5 LINE",
"30 -10 OFFCURVE",
"55 -15 OFFCURVE",
"80 -15 CURVE SMOOTH"
);
},
{
closed = 1;
nodes = (
"224 235 OFFCURVE",
"180 264 OFFCURVE",
"180 335 CURVE SMOOTH",
"180 406 OFFCURVE",
"225 430 OFFCURVE",
"275 430 CURVE SMOOTH",
"300 430 OFFCURVE",
"320 422 OFFCURVE",
"320 423 CURVE",
"320 242 LINE",
"320 243 OFFCURVE",
"300 235 OFFCURVE",
"275 235 CURVE SMOOTH"
);
}
);
width = 528;
}
);
unicode = 044F;
},
{
glyphname = afii10099;
lastChange = "2015-09-23 01:10:40 +0000";
layers = (
{
layerId = UUID0;
name = Regular;
paths = (
{
closed = 1;
nodes = (
"422 -140 OFFCURVE",
"490 -76 OFFCURVE",
"490 55 CURVE SMOOTH",
"490 250 LINE SMOOTH",
"490 395 OFFCURVE",
"405 430 OFFCURVE",
"310 430 CURVE SMOOTH",
"265 430 OFFCURVE",
"221 411 OFFCURVE",
"190 380 CURVE",
"190 495 LINE",
"290 495 LINE",
"290 540 LINE",
"190 540 LINE",
"190 660 LINE",
"110 660 LINE",
"60 600 LINE",
"60 540 LINE",
"-10 540 LINE",
"-10 495 LINE",
"60 495 LINE",
"60 0 LINE",
"190 0 LINE",
"190 332 LINE",
"215 360 OFFCURVE",
"249 380 OFFCURVE",
"280 380 CURVE SMOOTH",
"325 380 OFFCURVE",
"360 349 OFFCURVE",
"360 250 CURVE SMOOTH",
"360 55 LINE SMOOTH",
"360 -56 OFFCURVE",
"333 -104 OFFCURVE",
"277 -115 CURVE",
"277 -140 LINE"
);
}
);
width = 546;
}
);
leftKerningGroup = afii10108;
unicode = 0452;
},
{
glyphname = afii10101;
lastChange = "2015-09-23 01:10:39 +0000";
layers = (
{
layerId = UUID0;
name = Regular;
paths = (
{
closed = 1;
nodes = (
"391 -10 OFFCURVE",
"441 50 OFFCURVE",
"470 95 CURVE",
"439 118 LINE",
"404 71 OFFCURVE",
"365 35 OFFCURVE",
"296 35 CURVE SMOOTH",
"220 35 OFFCURVE",
"177 91 OFFCURVE",
"172 210 CURVE",
"361 210 LINE",
"361 255 LINE",
"172 255 LINE",
"177 376 OFFCURVE",
"224 435 OFFCURVE",
"291 435 CURVE SMOOTH",
"371 435 OFFCURVE",
"421 390 OFFCURVE",
"426 305 CURVE",
"456 305 LINE",
"456 381 OFFCURVE",
"456 420 OFFCURVE",
"431 445 CURVE SMOOTH",
"406 470 OFFCURVE",
"352 480 OFFCURVE",
"276 480 CURVE SMOOTH",
"116 480 OFFCURVE",
"36 368 OFFCURVE",
"36 235 CURVE SMOOTH",
"36 102 OFFCURVE",
"116 -10 OFFCURVE",
"276 -10 CURVE SMOOTH"
);
}
);
width = 501;
}
);
leftKerningGroup = afii10070;
unicode = 0454;
},
{
glyphname = afii10106;
lastChange = "2015-09-23 01:10:40 +0000";
layers = (
{
layerId = UUID0;
name = Regular;
paths = (
{
closed = 1;
nodes = (
"166 -15 OFFCURVE",
"236 80 OFFCURVE",
"236 350 CURVE SMOOTH",
"236 425 LINE",
"365 425 LINE",
"365 0 LINE",
"570 0 LINE SMOOTH",
"695 0 OFFCURVE",
"775 49 OFFCURVE",
"775 140 CURVE SMOOTH",
"775 231 OFFCURVE",
"695 280 OFFCURVE",
"570 280 CURVE SMOOTH",
"495 280 LINE",
"495 470 LINE",
"57 470 LINE",
"57 440 LINE",
"121 440 OFFCURVE",
"132 401 OFFCURVE",
"132 350 CURVE SMOOTH",
"132 90 OFFCURVE",
"75 34 OFFCURVE",
"6 23 CURVE",
"6 -6 LINE",
"17 -10 OFFCURVE",
"45 -15 OFFCURVE",
"66 -15 CURVE SMOOTH"
);
},
{
closed = 1;
nodes = (
"529 40 OFFCURVE",
"510 42 OFFCURVE",
"495 47 CURVE",
"495 233 LINE",
"510 238 OFFCURVE",
"529 240 OFFCURVE",
"540 240 CURVE SMOOTH",
"595 240 OFFCURVE",
"640 216 OFFCURVE",
"640 140 CURVE SMOOTH",
"640 64 OFFCURVE",
"595 40 OFFCURVE",
"540 40 CURVE SMOOTH"
);
}
);
width = 795;
}
);
leftKerningGroup = afii10077;
unicode = 0459;
},
{
glyphname = afii10107;
lastChange = "2015-09-23 01:10:40 +0000";
layers = (
{
layerId = UUID0;
name = Regular;
paths = (
{
closed = 1;
nodes = (
"209 0 LINE",
"209 225 LINE",
"359 225 LINE",
"359 0 LINE",
"564 0 LINE SMOOTH",
"689 0 OFFCURVE",
"769 50 OFFCURVE",
"769 135 CURVE SMOOTH",
"769 220 OFFCURVE",
"689 270 OFFCURVE",
"564 270 CURVE SMOOTH",
"489 270 LINE",
"489 470 LINE",
"359 470 LINE",
"359 270 LINE",
"209 270 LINE",
"209 340 LINE SMOOTH",
"209 439 OFFCURVE",
"189 470 OFFCURVE",
"119 470 CURVE SMOOTH",
"-1 470 LINE",
"-1 440 LINE",
"9 440 LINE SMOOTH",
"69 440 OFFCURVE",
"79 400 OFFCURVE",
"79 340 CURVE SMOOTH",
"79 0 LINE"
);
},
{
closed = 1;
nodes = (
"523 40 OFFCURVE",
"504 42 OFFCURVE",
"489 47 CURVE",
"489 223 LINE",
"504 228 OFFCURVE",
"523 230 OFFCURVE",
"534 230 CURVE SMOOTH",
"589 230 OFFCURVE",
"634 206 OFFCURVE",
"634 135 CURVE SMOOTH",
"634 64 OFFCURVE",
"589 40 OFFCURVE",
"534 40 CURVE SMOOTH"
);
}
);
width = 788;
}
);
leftKerningGroup = afii10067;
unicode = 045A;
},
{
glyphname = afii10108;
lastChange = "2015-09-23 01:10:40 +0000";
layers = (
{
layerId = UUID0;
name = Regular;
paths = (
{
closed = 1;
nodes = (
"190 0 LINE",
"190 332 LINE",
"215 360 OFFCURVE",
"249 380 OFFCURVE",
"280 380 CURVE SMOOTH",
"325 380 OFFCURVE",
"360 349 OFFCURVE",
"360 250 CURVE SMOOTH",
"360 0 LINE",
"490 0 LINE",
"490 250 LINE SMOOTH",
"490 395 OFFCURVE",
"405 430 OFFCURVE",
"310 430 CURVE SMOOTH",
"265 430 OFFCURVE",
"221 411 OFFCURVE",
"190 380 CURVE",
"190 495 LINE",
"290 495 LINE",
"290 540 LINE",
"190 540 LINE",
"190 660 LINE",
"110 660 LINE",
"60 600 LINE",
"60 540 LINE",
"-10 540 LINE",
"-10 495 LINE",
"60 495 LINE",
"60 0 LINE"
);
}
);
width = 546;
}
);
leftKerningGroup = afii10108;
unicode = 045B;
},
{
glyphname = afii10193;
lastChange = "2015-09-23 01:10:40 +0000";
layers = (
{
layerId = UUID0;
name = Regular;
paths = (
{
closed = 1;
nodes = (
"319 -150 LINE",
"334 0 LINE",
"499 0 LINE",
"499 470 LINE",
"369 470 LINE",
"369 45 LINE",
"209 45 LINE",
"209 340 LINE SMOOTH",
"209 439 OFFCURVE",
"189 470 OFFCURVE",
"119 470 CURVE SMOOTH",
"-1 470 LINE",
"-1 440 LINE",
"9 440 LINE SMOOTH",
"69 440 OFFCURVE",
"79 400 OFFCURVE",
"79 340 CURVE SMOOTH",
"79 0 LINE",
"244 0 LINE",
"259 -150 LINE"
);
}
);
width = 559;
}
);
leftKerningGroup = afii10067;
rightKerningGroup = afii10074;
unicode = 045F;
},
{
glyphname = afii10050;
lastChange = "2015-09-23 01:10:40 +0000";
layers = (
{
layerId = UUID0;
name = Regular;
paths = (
{
closed = 1;
nodes = (
"225 0 LINE",
"225 615 LINE",
"444 615 LINE SMOOTH",
"513 615 OFFCURVE",
"529 655 OFFCURVE",
"529 695 CURVE SMOOTH",
"529 780 LINE",
"499 780 LINE",
"499 693 OFFCURVE",
"454 660 OFFCURVE",
"374 660 CURVE SMOOTH",
"15 660 LINE",
"15 630 LINE",
"25 630 LINE SMOOTH",
"85 630 OFFCURVE",
"95 590 OFFCURVE",
"95 530 CURVE SMOOTH",
"95 0 LINE"
);
}
);
width = 538;
}
);
leftKerningGroup = afii10018;
unicode = 0490;
},
{
glyphname = afii10098;
lastChange = "2015-09-23 01:10:39 +0000";
layers = (
{
layerId = UUID0;
name = Regular;
paths = (
{
closed = 1;
nodes = (
"204 0 LINE",
"204 425 LINE",
"344 425 LINE SMOOTH",
"404 425 OFFCURVE",
"419 465 OFFCURVE",
"419 505 CURVE SMOOTH",
"419 575 LINE",
"389 575 LINE",
"389 499 OFFCURVE",
"354 470 OFFCURVE",
"294 470 CURVE SMOOTH",
"-1 470 LINE",
"-1 440 LINE",
"4 440 LINE SMOOTH",
"64 440 OFFCURVE",
"74 400 OFFCURVE",
"74 340 CURVE SMOOTH",
"74 0 LINE"
);
}
);
width = 433;
}
);
leftKerningGroup = afii10067;
unicode = 0491;
},
{
glyphname = endash;
lastChange = "2015-09-23 01:10:39 +0000";
layers = (
{
layerId = UUID0;
name = Regular;
paths = (
{
closed = 1;
nodes = (
"558 227 LINE",
"558 292 LINE",
"64 292 LINE",
"64 227 LINE"
);
}
);
width = 622;
}
);
leftKerningGroup = emdash;
rightKerningGroup = emdash;
unicode = 2013;
},
{
glyphname = emdash;
lastChange = "2015-09-23 01:10:40 +0000";
layers = (
{
layerId = UUID0;
name = Regular;
paths = (
{
closed = 1;
nodes = (
"828 227 LINE",
"828 292 LINE",
"64 292 LINE",
"64 227 LINE"
);
}
);
width = 892;
}
);
leftKerningGroup = emdash;
rightKerningGroup = emdash;
unicode = 2014;
},
{
glyphname = quoteleft;
lastChange = "2015-09-23 01:10:39 +0000";
layers = (
{
layerId = UUID0;
name = Regular;
paths = (
{
closed = 1;
nodes = (
"148 420 OFFCURVE",
"170 445 OFFCURVE",
"170 481 CURVE SMOOTH",
"170 517 OFFCURVE",
"148 542 OFFCURVE",
"109 542 CURVE",
"94 539 LINE",
"94 599 OFFCURVE",
"143 642 OFFCURVE",
"176 664 CURVE",
"158 688 LINE",
"73 632 OFFCURVE",
"43 574 OFFCURVE",
"43 498 CURVE SMOOTH",
"43 458 OFFCURVE",
"65 420 OFFCURVE",
"109 420 CURVE SMOOTH"
);
}
);
width = 216;
}
);
leftKerningGroup = quotedblleft;
rightKerningGroup = quotedblleft;
unicode = 2018;
},
{
glyphname = quoteright;
lastChange = "2015-09-23 01:10:40 +0000";
layers = (
{
layerId = UUID0;
name = Regular;
paths = (
{
closed = 1;
nodes = (
"151 468 OFFCURVE",
"181 526 OFFCURVE",
"181 602 CURVE SMOOTH",
"181 642 OFFCURVE",
"159 680 OFFCURVE",
"115 680 CURVE SMOOTH",
"76 680 OFFCURVE",
"54 655 OFFCURVE",
"54 619 CURVE SMOOTH",
"54 583 OFFCURVE",
"76 558 OFFCURVE",
"115 558 CURVE",
"130 561 LINE",
"130 501 OFFCURVE",
"81 458 OFFCURVE",
"48 436 CURVE",
"66 412 LINE"
);
}
);
width = 218;
}
);
leftKerningGroup = quotedblright;
rightKerningGroup = quotedblright;
unicode = 2019;
},
{
glyphname = quotesinglbase;
lastChange = "2015-09-23 01:10:40 +0000";
layers = (
{
layerId = UUID0;
name = Regular;
paths = (
{
closed = 1;
nodes = (
"148 -104 OFFCURVE",
"178 -46 OFFCURVE",
"178 30 CURVE SMOOTH",
"178 70 OFFCURVE",
"156 108 OFFCURVE",
"112 108 CURVE SMOOTH",
"73 108 OFFCURVE",
"51 83 OFFCURVE",
"51 47 CURVE SMOOTH",
"51 11 OFFCURVE",
"73 -14 OFFCURVE",
"112 -14 CURVE",
"127 -11 LINE",
"127 -71 OFFCURVE",
"78 -114 OFFCURVE",
"45 -136 CURVE",
"63 -160 LINE"
);
}
);
width = 228;
}
);
leftKerningGroup = quotedblbase;
rightKerningGroup = quotedblbase;
unicode = 201A;
},
{
glyphname = quotedblleft;
lastChange = "2015-09-23 01:10:40 +0000";
layers = (
{
layerId = UUID0;
name = Regular;
paths = (
{
closed = 1;
nodes = (
"330 420 OFFCURVE",
"352 445 OFFCURVE",
"352 481 CURVE SMOOTH",
"352 517 OFFCURVE",
"330 542 OFFCURVE",
"291 542 CURVE",
"276 539 LINE",
"276 599 OFFCURVE",
"325 642 OFFCURVE",
"358 664 CURVE",
"340 688 LINE",
"255 632 OFFCURVE",
"225 574 OFFCURVE",
"225 498 CURVE SMOOTH",
"225 458 OFFCURVE",
"247 420 OFFCURVE",
"291 420 CURVE SMOOTH"
);
},
{
closed = 1;
nodes = (
"148 420 OFFCURVE",
"170 445 OFFCURVE",
"170 481 CURVE SMOOTH",
"170 517 OFFCURVE",
"148 542 OFFCURVE",
"109 542 CURVE",
"94 539 LINE",
"94 599 OFFCURVE",
"143 642 OFFCURVE",
"176 664 CURVE",
"158 688 LINE",
"73 632 OFFCURVE",
"43 574 OFFCURVE",
"43 498 CURVE SMOOTH",
"43 458 OFFCURVE",
"65 420 OFFCURVE",
"109 420 CURVE SMOOTH"
);
}
);
width = 398;
}
);
leftKerningGroup = quotedblleft;
rightKerningGroup = quotedblleft;
unicode = 201C;
},
{
glyphname = quotedblright;
lastChange = "2015-09-23 01:10:40 +0000";
layers = (
{
layerId = UUID0;
name = Regular;
paths = (
{
closed = 1;
nodes = (
"333 468 OFFCURVE",
"363 526 OFFCURVE",
"363 602 CURVE SMOOTH",
"363 642 OFFCURVE",
"341 680 OFFCURVE",
"297 680 CURVE SMOOTH",
"258 680 OFFCURVE",
"236 655 OFFCURVE",
"236 619 CURVE SMOOTH",
"236 583 OFFCURVE",
"258 558 OFFCURVE",
"297 558 CURVE",
"312 561 LINE",
"312 501 OFFCURVE",
"263 458 OFFCURVE",
"230 436 CURVE",
"248 412 LINE"
);
},
{
closed = 1;
nodes = (
"151 468 OFFCURVE",
"181 526 OFFCURVE",
"181 602 CURVE SMOOTH",
"181 642 OFFCURVE",
"159 680 OFFCURVE",
"115 680 CURVE SMOOTH",
"76 680 OFFCURVE",
"54 655 OFFCURVE",
"54 619 CURVE SMOOTH",
"54 583 OFFCURVE",
"76 558 OFFCURVE",
"115 558 CURVE",
"130 561 LINE",
"130 501 OFFCURVE",
"81 458 OFFCURVE",
"48 436 CURVE",
"66 412 LINE"
);
}
);
width = 400;
}
);
leftKerningGroup = quotedblright;
rightKerningGroup = quotedblright;
unicode = 201D;
},
{
glyphname = quotedblbase;
lastChange = "2015-09-23 01:10:40 +0000";
layers = (
{
layerId = UUID0;
name = Regular;
paths = (
{
closed = 1;
nodes = (
"330 -104 OFFCURVE",
"360 -46 OFFCURVE",
"360 30 CURVE SMOOTH",
"360 70 OFFCURVE",
"338 108 OFFCURVE",
"294 108 CURVE SMOOTH",
"255 108 OFFCURVE",
"233 83 OFFCURVE",
"233 47 CURVE SMOOTH",
"233 11 OFFCURVE",
"255 -14 OFFCURVE",
"294 -14 CURVE",
"309 -11 LINE",
"309 -71 OFFCURVE",
"260 -114 OFFCURVE",
"227 -136 CURVE",
"245 -160 LINE"
);
},
{
closed = 1;
nodes = (
"148 -104 OFFCURVE",
"178 -46 OFFCURVE",
"178 30 CURVE SMOOTH",
"178 70 OFFCURVE",
"156 108 OFFCURVE",
"112 108 CURVE SMOOTH",
"73 108 OFFCURVE",
"51 83 OFFCURVE",
"51 47 CURVE SMOOTH",
"51 11 OFFCURVE",
"73 -14 OFFCURVE",
"112 -14 CURVE",
"127 -11 LINE",
"127 -71 OFFCURVE",
"78 -114 OFFCURVE",
"45 -136 CURVE",
"63 -160 LINE"
);
}
);
width = 410;
}
);
leftKerningGroup = quotedblbase;
rightKerningGroup = quotedblbase;
unicode = 201E;
},
{
glyphname = dagger;
lastChange = "2015-09-23 01:10:40 +0000";
layers = (
{
layerId = UUID0;
name = Regular;
paths = (
{
closed = 1;
nodes = (
"334 -190 LINE",
"334 405 LINE",
"514 405 LINE",
"514 475 LINE",
"334 475 LINE",
"334 680 LINE",
"204 680 LINE",
"204 475 LINE",
"25 475 LINE",
"25 405 LINE",
"204 405 LINE",
"204 -190 LINE"
);
}
);
width = 539;
}
);
unicode = 2020;
},
{
glyphname = daggerdbl;
lastChange = "2015-09-23 01:10:39 +0000";
layers = (
{
layerId = UUID0;
name = Regular;
paths = (
{
closed = 1;
nodes = (
"345 -190 LINE",
"345 15 LINE",
"525 15 LINE",
"525 85 LINE",
"345 85 LINE",
"345 405 LINE",
"525 405 LINE",
"525 475 LINE",
"345 475 LINE",
"345 680 LINE",
"215 680 LINE",
"215 475 LINE",
"36 475 LINE",
"36 405 LINE",
"215 405 LINE",
"215 85 LINE",
"36 85 LINE",
"36 15 LINE",
"215 15 LINE",
"215 -190 LINE"
);
}
);
width = 561;
}
);
unicode = 2021;
},
{
glyphname = bullet;
lastChange = "2015-09-23 01:10:40 +0000";
layers = (
{
layerId = UUID0;
name = Regular;
paths = (
{
closed = 1;
nodes = (
"254 207 OFFCURVE",
"310 258 OFFCURVE",
"310 330 CURVE SMOOTH",
"310 402 OFFCURVE",
"254 453 OFFCURVE",
"175 453 CURVE SMOOTH",
"96 453 OFFCURVE",
"40 402 OFFCURVE",
"40 330 CURVE SMOOTH",
"40 258 OFFCURVE",
"96 207 OFFCURVE",
"175 207 CURVE SMOOTH"
);
}
);
width = 350;
}
);
unicode = 2022;
},
{
glyphname = ellipsis;
lastChange = "2015-09-23 01:10:40 +0000";
layers = (
{
layerId = UUID0;
name = Regular;
paths = (
{
closed = 1;
nodes = (
"571 -14 OFFCURVE",
"593 11 OFFCURVE",
"593 47 CURVE SMOOTH",
"593 83 OFFCURVE",
"571 108 OFFCURVE",
"532 108 CURVE SMOOTH",
"493 108 OFFCURVE",
"471 83 OFFCURVE",
"471 47 CURVE SMOOTH",
"471 11 OFFCURVE",
"493 -14 OFFCURVE",
"532 -14 CURVE SMOOTH"
);
},
{
closed = 1;
nodes = (
"151 -14 OFFCURVE",
"173 11 OFFCURVE",
"173 47 CURVE SMOOTH",
"173 83 OFFCURVE",
"151 108 OFFCURVE",
"112 108 CURVE SMOOTH",
"73 108 OFFCURVE",
"51 83 OFFCURVE",
"51 47 CURVE SMOOTH",
"51 11 OFFCURVE",
"73 -14 OFFCURVE",
"112 -14 CURVE SMOOTH"
);
},
{
closed = 1;
nodes = (
"361 -14 OFFCURVE",
"383 11 OFFCURVE",
"383 47 CURVE SMOOTH",
"383 83 OFFCURVE",
"361 108 OFFCURVE",
"322 108 CURVE SMOOTH",
"283 108 OFFCURVE",
"261 83 OFFCURVE",
"261 47 CURVE SMOOTH",
"261 11 OFFCURVE",
"283 -14 OFFCURVE",
"322 -14 CURVE SMOOTH"
);
}
);
width = 644;
}
);
leftKerningGroup = quotedblbase;
unicode = 2026;
},
{
glyphname = perthousand;
lastChange = "2015-09-23 01:10:40 +0000";
layers = (
{
layerId = UUID0;
name = Regular;
paths = (
{
closed = 1;
nodes = (
"192 0 LINE",
"676 660 LINE",
"570 660 LINE",
"86 0 LINE"
);
},
{
closed = 1;
nodes = (
"648 -5 OFFCURVE",
"709 45 OFFCURVE",
"709 133 CURVE SMOOTH",
"709 221 OFFCURVE",
"648 271 OFFCURVE",
"551 271 CURVE SMOOTH",
"451 271 OFFCURVE",
"391 221 OFFCURVE",
"391 133 CURVE SMOOTH",
"391 45 OFFCURVE",
"451 -5 OFFCURVE",
"551 -5 CURVE SMOOTH"
);
},
{
closed = 1;
nodes = (
"498 35 OFFCURVE",
"471 69 OFFCURVE",
"471 133 CURVE SMOOTH",
"471 197 OFFCURVE",
"498 231 OFFCURVE",
"549 231 CURVE SMOOTH",
"601 231 OFFCURVE",
"629 197 OFFCURVE",
"629 133 CURVE SMOOTH",
"629 69 OFFCURVE",
"602 35 OFFCURVE",
"550 35 CURVE SMOOTH"
);
},
{
closed = 1;
nodes = (
"290 389 OFFCURVE",
"351 439 OFFCURVE",
"351 527 CURVE SMOOTH",
"351 615 OFFCURVE",
"290 665 OFFCURVE",
"193 665 CURVE SMOOTH",
"93 665 OFFCURVE",
"33 615 OFFCURVE",
"33 527 CURVE SMOOTH",
"33 439 OFFCURVE",
"93 389 OFFCURVE",
"193 389 CURVE SMOOTH"
);
},
{
closed = 1;
nodes = (
"140 429 OFFCURVE",
"113 463 OFFCURVE",
"113 527 CURVE SMOOTH",
"113 591 OFFCURVE",
"140 625 OFFCURVE",
"191 625 CURVE SMOOTH",
"243 625 OFFCURVE",
"271 591 OFFCURVE",
"271 527 CURVE SMOOTH",
"271 463 OFFCURVE",
"244 429 OFFCURVE",
"192 429 CURVE SMOOTH"
);
},
{
closed = 1;
nodes = (
"982 -5 OFFCURVE",
"1043 45 OFFCURVE",
"1043 133 CURVE SMOOTH",
"1043 221 OFFCURVE",
"982 271 OFFCURVE",
"885 271 CURVE SMOOTH",
"785 271 OFFCURVE",
"725 221 OFFCURVE",
"725 133 CURVE SMOOTH",
"725 45 OFFCURVE",
"785 -5 OFFCURVE",
"885 -5 CURVE SMOOTH"
);
},
{
closed = 1;
nodes = (
"832 35 OFFCURVE",
"805 69 OFFCURVE",
"805 133 CURVE SMOOTH",
"805 197 OFFCURVE",
"832 231 OFFCURVE",
"883 231 CURVE SMOOTH",
"935 231 OFFCURVE",
"963 197 OFFCURVE",
"963 133 CURVE SMOOTH",
"963 69 OFFCURVE",
"936 35 OFFCURVE",
"884 35 CURVE SMOOTH"
);
}
);
width = 1070;
}
);
unicode = 2030;
},
{
glyphname = guilsinglleft;
lastChange = "2015-09-23 01:10:40 +0000";
layers = (
{
layerId = UUID0;
name = Regular;
paths = (
{
closed = 1;
nodes = (
"253 30 LINE",
"156 226 LINE",
"253 420 LINE",
"189 420 LINE",
"31 225 LINE",
"189 30 LINE"
);
}
);
width = 294;
}
);
leftKerningGroup = guilsinglleft;
unicode = 2039;
},
{
glyphname = guilsinglright;
lastChange = "2015-09-23 01:10:40 +0000";
layers = (
{
layerId = UUID0;
name = Regular;
paths = (
{
closed = 1;
nodes = (
"105 30 LINE",
"263 225 LINE",
"105 420 LINE",
"41 420 LINE",
"138 226 LINE",
"41 30 LINE"
);
}
);
width = 294;
}
);
leftKerningGroup = guilsinglright;
rightKerningGroup = guilsinglright;
unicode = 203A;
},
{
glyphname = Euro;
lastChange = "2015-09-23 01:10:40 +0000";
layers = (
{
layerId = UUID0;
name = Regular;
paths = (
{
closed = 1;
nodes = (
"556 -20 OFFCURVE",
"641 30 OFFCURVE",
"704 141 CURVE",
"669 168 LINE",
"621 75 OFFCURVE",
"538 25 OFFCURVE",
"446 25 CURVE SMOOTH",
"313 25 OFFCURVE",
"246 126 OFFCURVE",
"230 250 CURVE",
"398 250 LINE",
"410 295 LINE",
"226 295 LINE",
"226 355 LINE",
"413 355 LINE",
"425 400 LINE",
"230 400 LINE",
"249 579 OFFCURVE",
"338 635 OFFCURVE",
"446 635 CURVE SMOOTH",
"557 635 OFFCURVE",
"624 568 OFFCURVE",
"649 447 CURVE",
"679 447 LINE",
"679 506 OFFCURVE",
"680 564 OFFCURVE",
"653 599 CURVE",
"616 642 OFFCURVE",
"541 680 OFFCURVE",
"416 680 CURVE SMOOTH",
"254 680 OFFCURVE",
"125 562 OFFCURVE",
"93 400 CURVE",
"53 400 LINE",
"41 355 LINE",
"87 355 LINE",
"86 343 OFFCURVE",
"86 332 OFFCURVE",
"86 320 CURVE SMOOTH",
"86 295 LINE",
"38 295 LINE",
"26 250 LINE",
"91 250 LINE",
"118 93 OFFCURVE",
"231 -20 OFFCURVE",
"416 -20 CURVE SMOOTH"
);
}
);
width = 741;
}
);
unicode = 20AC;
},
{
glyphname = afii61352;
lastChange = "2015-09-23 01:10:40 +0000";
layers = (
{
layerId = UUID0;
name = Regular;
paths = (
{
closed = 1;
nodes = (
"624 -3 LINE",
"624 660 LINE",
"574 660 LINE",
"574 200 LINE",
"230 600 LINE",
"199 640 OFFCURVE",
"155 660 OFFCURVE",
"79 660 CURVE SMOOTH",
"9 660 LINE",
"9 630 LINE",
"14 630 LINE SMOOTH",
"84 630 OFFCURVE",
"104 591 OFFCURVE",
"104 540 CURVE SMOOTH",
"104 0 LINE",
"154 0 LINE",
"154 495 LINE",
"578 -3 LINE"
);
},
{
closed = 1;
nodes = (
"994 247 LINE",
"994 312 LINE",
"674 312 LINE",
"674 247 LINE"
);
},
{
closed = 1;
nodes = (
"944 360 OFFCURVE",
"1004 430 OFFCURVE",
"1004 520 CURVE SMOOTH",
"1004 610 OFFCURVE",
"944 680 OFFCURVE",
"834 680 CURVE SMOOTH",
"724 680 OFFCURVE",
"664 610 OFFCURVE",
"664 520 CURVE SMOOTH",
"664 430 OFFCURVE",
"724 360 OFFCURVE",
"834 360 CURVE SMOOTH"
);
},
{
closed = 1;
nodes = (
"783 410 OFFCURVE",
"744 449 OFFCURVE",
"744 520 CURVE SMOOTH",
"744 591 OFFCURVE",
"783 630 OFFCURVE",
"834 630 CURVE SMOOTH",
"885 630 OFFCURVE",
"924 591 OFFCURVE",
"924 520 CURVE SMOOTH",
"924 449 OFFCURVE",
"885 410 OFFCURVE",
"834 410 CURVE SMOOTH"
);
}
);
width = 1039;
}
);
unicode = 2116;
},
{
glyphname = trademark;
lastChange = "2015-09-23 01:10:39 +0000";
layers = (
{
layerId = UUID0;
name = Regular;
paths = (
{
closed = 1;
nodes = (
"897 302 LINE",
"865 310 OFFCURVE",
"849 343 OFFCURVE",
"849 438 CURVE SMOOTH",
"849 660 LINE",
"754 660 LINE",
"645 417 LINE",
"517 660 LINE",
"429 660 LINE",
"429 297 LINE",
"467 297 LINE",
"467 572 LINE",
"612 297 LINE",
"637 297 LINE",
"753 556 LINE",
"753 438 LINE SMOOTH",
"753 327 OFFCURVE",
"801 290 OFFCURVE",
"897 290 CURVE"
);
},
{
closed = 1;
nodes = (
"285 297 LINE",
"285 628 LINE",
"406 628 LINE",
"406 660 LINE",
"123 660 LINE SMOOTH",
"64 660 OFFCURVE",
"51 627 OFFCURVE",
"51 594 CURVE SMOOTH",
"51 543 LINE",
"67 543 LINE",
"67 600 OFFCURVE",
"98 628 OFFCURVE",
"143 628 CURVE SMOOTH",
"189 628 LINE",
"189 297 LINE"
);
}
);
width = 940;
}
);
unicode = 2122;
},
{
color = (0,243,255,1);
glyphname = Breve;
lastChange = "2015-09-23 01:10:40 +0000";
layers = (
{
layerId = UUID0;
name = Regular;
paths = (
{
closed = 1;
nodes = (
"226 510 OFFCURVE",
"277 548 OFFCURVE",
"302 604 CURVE",
"274 625 LINE",
"254 600 OFFCURVE",
"217 575 OFFCURVE",
"161 575 CURVE SMOOTH",
"105 575 OFFCURVE",
"68 600 OFFCURVE",
"48 625 CURVE",
"20 604 LINE",
"45 548 OFFCURVE",
"96 510 OFFCURVE",
"161 510 CURVE SMOOTH"
);
}
);
width = 322;
}
);
unicode = F406;
},
{
glyphname = dieresis.alt1;
lastChange = "2015-09-23 01:10:40 +0000";
layers = (
{
layerId = UUID0;
name = Regular;
paths = (
{
closed = 1;
nodes = (
"291 535 OFFCURVE",
"312 560 OFFCURVE",
"312 591 CURVE SMOOTH",
"312 622 OFFCURVE",
"291 647 OFFCURVE",
"256 647 CURVE SMOOTH",
"221 647 OFFCURVE",
"200 622 OFFCURVE",
"200 591 CURVE SMOOTH",
"200 560 OFFCURVE",
"221 535 OFFCURVE",
"256 535 CURVE SMOOTH"
);
},
{
closed = 1;
nodes = (
"111 535 OFFCURVE",
"132 560 OFFCURVE",
"132 591 CURVE SMOOTH",
"132 622 OFFCURVE",
"111 647 OFFCURVE",
"76 647 CURVE SMOOTH",
"41 647 OFFCURVE",
"20 622 OFFCURVE",
"20 591 CURVE SMOOTH",
"20 560 OFFCURVE",
"41 535 OFFCURVE",
"76 535 CURVE SMOOTH"
);
}
);
width = 332;
}
);
},
{
glyphname = dieresis.alt2;
lastChange = "2015-09-23 01:10:40 +0000";
layers = (
{
layerId = UUID0;
name = Regular;
paths = (
{
closed = 1;
nodes = (
"291 730 OFFCURVE",
"312 755 OFFCURVE",
"312 786 CURVE SMOOTH",
"312 817 OFFCURVE",
"291 842 OFFCURVE",
"256 842 CURVE SMOOTH",
"221 842 OFFCURVE",
"200 817 OFFCURVE",
"200 786 CURVE SMOOTH",
"200 755 OFFCURVE",
"221 730 OFFCURVE",
"256 730 CURVE SMOOTH"
);
},
{
closed = 1;
nodes = (
"111 730 OFFCURVE",
"132 755 OFFCURVE",
"132 786 CURVE SMOOTH",
"132 817 OFFCURVE",
"111 842 OFFCURVE",
"76 842 CURVE SMOOTH",
"41 842 OFFCURVE",
"20 817 OFFCURVE",
"20 786 CURVE SMOOTH",
"20 755 OFFCURVE",
"41 730 OFFCURVE",
"76 730 CURVE SMOOTH"
);
}
);
width = 332;
}
);
},
{
glyphname = grave.alt1;
lastChange = "2015-09-23 01:10:40 +0000";
layers = (
{
layerId = UUID0;
name = Regular;
paths = (
{
closed = 1;
nodes = (
"181 525 LINE",
"139 665 LINE",
"20 665 LINE",
"126 525 LINE"
);
}
);
width = 201;
}
);
},
{
color = (0,243,255,1);
glyphname = acute.alt1;
lastChange = "2015-09-23 01:10:40 +0000";
layers = (
{
layerId = UUID0;
name = Regular;
paths = (
{
closed = 1;
nodes = (
"75 525 LINE",
"181 665 LINE",
"62 665 LINE",
"20 525 LINE"
);
}
);
width = 201;
}
);
},
{
color = (0,243,255,1);
glyphname = circumflex.alt1;
lastChange = "2015-09-23 01:10:40 +0000";
layers = (
{
layerId = UUID0;
name = Regular;
paths = (
{
closed = 1;
nodes = (
"80 660 LINE",
"165 740 LINE",
"250 660 LINE",
"310 660 LINE",
"230 785 LINE",
"100 785 LINE",
"20 660 LINE"
);
}
);
width = 330;
}
);
},
{
glyphname = "hamza-ar";
lastChange = "2015-09-23 01:10:39 +0000";
layers = (
{
anchors = (
{
name = bottom;
position = "{240, -30}";
},
{
name = top;
position = "{240, 480}";
}
);
layerId = UUID0;
name = Regular;
paths = (
{
closed = 1;
nodes = (
"98 22 OFFCURVE",
"373 33 OFFCURVE",
"397 33 CURVE",
"440 35 OFFCURVE",
"444 133 OFFCURVE",
"390 133 CURVE SMOOTH",
"373 133 OFFCURVE",
"348 124 OFFCURVE",
"319 124 CURVE SMOOTH",
"245 124 OFFCURVE",
"199 181 OFFCURVE",
"199 236 CURVE SMOOTH",
"199 283 OFFCURVE",
"234 319 OFFCURVE",
"234 319 CURVE",
"286 319 OFFCURVE",
"281 250 OFFCURVE",
"281 250 CURVE SMOOTH",
"281 250 OFFCURVE",
"386 207 OFFCURVE",
"386 301 CURVE SMOOTH",
"386 366 OFFCURVE",
"335 393 OFFCURVE",
"264 393 CURVE SMOOTH",
"127 393 OFFCURVE",
"71 292 OFFCURVE",
"71 218 CURVE SMOOTH",
"71 133 OFFCURVE",
"145 98 OFFCURVE",
"145 98 CURVE SMOOTH",
"15 98 OFFCURVE",
"38 -16 OFFCURVE",
"98 -29 CURVE"
);
}
);
width = 480;
}
);
unicode = 0621;
},
{
glyphname = "alef-ar";
lastChange = "2015-09-23 01:10:39 +0000";
layers = (
{
anchors = (
{
name = bottom;
position = "{161, -30}";
},
{
name = top;
position = "{130, 750}";
}
);
layerId = UUID0;
name = Regular;
paths = (
{
closed = 1;
nodes = (
"210 0 OFFCURVE",
"226 35 OFFCURVE",
"226 66 CURVE SMOOTH",
"226 540 LINE SMOOTH",
"226 609 OFFCURVE",
"188 660 OFFCURVE",
"130 660 CURVE SMOOTH",
"70 660 OFFCURVE",
"50 610 OFFCURVE",
"50 594 CURVE",
"61 588 OFFCURVE",
"96 584 OFFCURVE",
"96 513 CURVE SMOOTH",
"96 68 LINE SMOOTH",
"96 35 OFFCURVE",
"112 0 OFFCURVE",
"161 0 CURVE SMOOTH"
);
}
);
width = 276;
}
);
unicode = 0627;
},
{
glyphname = "alef-ar.fina";
lastChange = "2015-09-23 01:10:39 +0000";
layers = (
{
anchors = (
{
name = bottom;
position = "{161, -30}";
},
{
name = entry;
position = "{319, 48}";
},
{
name = top;
position = "{130, 750}";
}
);
layerId = UUID0;
name = Regular;
paths = (
{
closed = 1;
nodes = (
"339 0 LINE",
"339 96 LINE",
"269 96 LINE SMOOTH",
"242 96 OFFCURVE",
"226 117 OFFCURVE",
"226 160 CURVE SMOOTH",
"226 540 LINE SMOOTH",
"226 609 OFFCURVE",
"188 660 OFFCURVE",
"130 660 CURVE SMOOTH",
"70 660 OFFCURVE",
"50 610 OFFCURVE",
"50 594 CURVE",
"61 588 OFFCURVE",
"96 584 OFFCURVE",
"96 513 CURVE SMOOTH",
"96 160 LINE SMOOTH",
"97 75 OFFCURVE",
"137 0 OFFCURVE",
"226 0 CURVE SMOOTH"
);
}
);
width = 319;
}
);
unicode = FE8E;
},
{
glyphname = "alef-ar.short";
lastChange = "2015-09-23 01:10:39 +0000";
layers = (
{
anchors = (
{
name = bottom;
position = "{161, -60}";
},
{
name = top;
position = "{130, 620}";
}
);
layerId = UUID0;
name = Regular;
paths = (
{
closed = 1;
nodes = (
"210 0 OFFCURVE",
"226 35 OFFCURVE",
"226 66 CURVE SMOOTH",
"226 479 LINE SMOOTH",
"226 548 OFFCURVE",
"188 599 OFFCURVE",
"130 599 CURVE SMOOTH",
"70 599 OFFCURVE",
"50 549 OFFCURVE",
"50 533 CURVE",
"61 527 OFFCURVE",
"96 523 OFFCURVE",
"96 452 CURVE SMOOTH",
"96 68 LINE SMOOTH",
"96 35 OFFCURVE",
"112 0 OFFCURVE",
"161 0 CURVE SMOOTH"
);
}
);
width = 276;
}
);
},
{
glyphname = "alef-ar.fina.short";
lastChange = "2015-09-23 01:10:39 +0000";
layers = (
{
anchors = (
{
name = bottom;
position = "{161, -60}";
},
{
name = entry;
position = "{319, 48}";
},
{
name = top;
position = "{130, 620}";
}
);
layerId = UUID0;
name = Regular;
paths = (
{
closed = 1;
nodes = (
"339 0 LINE",
"339 96 LINE",
"269 96 LINE SMOOTH",
"242 96 OFFCURVE",
"226 117 OFFCURVE",
"226 160 CURVE SMOOTH",
"226 479 LINE SMOOTH",
"226 548 OFFCURVE",
"188 599 OFFCURVE",
"130 599 CURVE SMOOTH",
"70 599 OFFCURVE",
"50 549 OFFCURVE",
"50 533 CURVE",
"61 527 OFFCURVE",
"96 523 OFFCURVE",
"96 452 CURVE SMOOTH",
"96 160 LINE SMOOTH",
"96 75 OFFCURVE",
"137 0 OFFCURVE",
"226 0 CURVE SMOOTH"
);
}
);
width = 319;
}
);
},
{
glyphname = "dotlessbeh-ar";
lastChange = "2015-09-23 01:10:39 +0000";
layers = (
{
anchors = (
{
name = bottom;
position = "{414, -60}";
},
{
name = top;
position = "{414, 480}";
}
);
layerId = UUID0;
name = Regular;
paths = (
{
closed = 1;
nodes = (
"566 0 LINE SMOOTH",
"703 0 OFFCURVE",
"763 140 OFFCURVE",
"763 285 CURVE SMOOTH",
"763 404 OFFCURVE",
"723 480 OFFCURVE",
"647 480 CURVE SMOOTH",
"588 480 OFFCURVE",
"565 440 OFFCURVE",
"565 419 CURVE",
"605 388 OFFCURVE",
"633 363 OFFCURVE",
"633 258 CURVE SMOOTH",
"633 144 OFFCURVE",
"600 96 OFFCURVE",
"564 96 CURVE SMOOTH",
"238 96 LINE SMOOTH",
"211 96 OFFCURVE",
"195 117 OFFCURVE",
"195 160 CURVE SMOOTH",
"195 365 LINE SMOOTH",
"195 398 OFFCURVE",
"179 433 OFFCURVE",
"130 433 CURVE SMOOTH",
"81 433 OFFCURVE",
"65 398 OFFCURVE",
"65 367 CURVE SMOOTH",
"65 160 LINE SMOOTH",
"65 75 OFFCURVE",
"106 0 OFFCURVE",
"195 0 CURVE SMOOTH"
);
}
);
width = 828;
}
);
unicode = 066E;
},
{
glyphname = "dotlessbeh-ar.fina";
lastChange = "2015-09-23 01:10:39 +0000";
layers = (
{
anchors = (
{
name = bottom;
position = "{414, -60}";
},
{
name = entry;
position = "{860, 48}";
},
{
name = top;
position = "{414, 480}";
}
);
layerId = UUID0;
name = Regular;
paths = (
{
closed = 1;
nodes = (
"566 0 LINE SMOOTH",
"607 0 OFFCURVE",
"641 12 OFFCURVE",
"668 34 CURVE",
"699 11 OFFCURVE",
"735 0 OFFCURVE",
"774 0 CURVE SMOOTH",
"880 0 LINE",
"880 96 LINE",
"721 96 LINE",
"750 148 OFFCURVE",
"763 216 OFFCURVE",
"763 285 CURVE SMOOTH",
"763 404 OFFCURVE",
"723 480 OFFCURVE",
"647 480 CURVE SMOOTH",
"588 480 OFFCURVE",
"565 440 OFFCURVE",
"565 419 CURVE",
"605 388 OFFCURVE",
"633 363 OFFCURVE",
"633 258 CURVE SMOOTH",
"633 144 OFFCURVE",
"600 96 OFFCURVE",
"564 96 CURVE SMOOTH",
"238 96 LINE SMOOTH",
"211 96 OFFCURVE",
"195 117 OFFCURVE",
"195 160 CURVE SMOOTH",
"195 365 LINE SMOOTH",
"195 398 OFFCURVE",
"179 433 OFFCURVE",
"130 433 CURVE SMOOTH",
"81 433 OFFCURVE",
"65 398 OFFCURVE",
"65 367 CURVE SMOOTH",
"65 160 LINE SMOOTH",
"65 75 OFFCURVE",
"106 0 OFFCURVE",
"195 0 CURVE SMOOTH"
);
}
);
width = 860;
}
);
},
{
glyphname = "dotlessbeh-ar.medi";
lastChange = "2015-09-23 01:10:39 +0000";
layers = (
{
anchors = (
{
name = bottom;
position = "{182, -60}";
},
{
name = entry;
position = "{364, 48}";
},
{
name = exit;
position = "{0, 48}";
},
{
name = top;
position = "{182, 525}";
}
);
layerId = UUID0;
name = Regular;
paths = (
{
closed = 1;
nodes = (
"33 0 LINE SMOOTH",
"74 0 OFFCURVE",
"96 13 OFFCURVE",
"123 35 CURVE",
"151 13 OFFCURVE",
"184 0 OFFCURVE",
"221 0 CURVE SMOOTH",
"384 0 LINE",
"384 96 LINE",
"290 96 LINE SMOOTH",
"263 96 OFFCURVE",
"247 117 OFFCURVE",
"247 160 CURVE SMOOTH",
"247 412 LINE SMOOTH",
"247 445 OFFCURVE",
"231 480 OFFCURVE",
"182 480 CURVE SMOOTH",
"133 480 OFFCURVE",
"117 445 OFFCURVE",
"117 414 CURVE SMOOTH",
"117 175 LINE SMOOTH",
"117 136 OFFCURVE",
"101 96 OFFCURVE",
"74 96 CURVE SMOOTH",
"-20 96 LINE",
"-20 0 LINE"
);
}
);
width = 364;
}
);
},
{
glyphname = "dotlessbeh-ar.init";
lastChange = "2015-09-23 01:10:39 +0000";
layers = (
{
anchors = (
{
name = bottom;
position = "{171, -60}";
},
{
name = exit;
position = "{0, 48}";
},
{
name = top;
position = "{175, 525}";
}
);
layerId = UUID0;
name = Regular;
paths = (
{
closed = 1;
nodes = (
"94 0 LINE SMOOTH",
"231 0 OFFCURVE",
"291 140 OFFCURVE",
"291 285 CURVE SMOOTH",
"291 404 OFFCURVE",
"251 480 OFFCURVE",
"175 480 CURVE SMOOTH",
"116 480 OFFCURVE",
"93 440 OFFCURVE",
"93 419 CURVE",
"133 388 OFFCURVE",
"161 363 OFFCURVE",
"161 258 CURVE SMOOTH",
"161 144 OFFCURVE",
"128 96 OFFCURVE",
"92 96 CURVE SMOOTH",
"-20 96 LINE",
"-20 0 LINE"
);
}
);
width = 356;
}
);
},
{
glyphname = "hah-ar";
lastChange = "2015-09-23 01:10:39 +0000";
layers = (
{
anchors = (
{
name = bottom;
position = "{335, -330}";
},
{
name = center;
position = "{378, -120}";
},
{
name = top;
position = "{335, 525}";
}
);
layerId = UUID0;
name = Regular;
paths = (
{
closed = 1;
nodes = (
"240 -266 OFFCURVE",
"251 -226 OFFCURVE",
"251 -226 CURVE SMOOTH",
"251 -226 OFFCURVE",
"175 -178 OFFCURVE",
"175 0 CURVE",
"412 0 LINE SMOOTH",
"575 0 OFFCURVE",
"604 181 OFFCURVE",
"604 242 CURVE SMOOTH",
"604 374 OFFCURVE",
"469 480 OFFCURVE",
"369 480 CURVE SMOOTH",
"352 480 OFFCURVE",
"279 477 OFFCURVE",
"253 477 CURVE SMOOTH",
"159 477 OFFCURVE",
"141 517 OFFCURVE",
"141 517 CURVE SMOOTH",
"141 517 OFFCURVE",
"116 519 OFFCURVE",
"116 480 CURVE SMOOTH",
"116 437 OFFCURVE",
"146 386 OFFCURVE",
"212 386 CURVE SMOOTH",
"310 386 LINE SMOOTH",
"381 386 OFFCURVE",
"474 356 OFFCURVE",
"474 233 CURVE SMOOTH",
"474 154 OFFCURVE",
"436 99 OFFCURVE",
"408 96 CURVE",
"189 96 LINE SMOOTH",
"99 96 OFFCURVE",
"65 18 OFFCURVE",
"65 -72 CURVE SMOOTH",
"65 -147 OFFCURVE",
"89 -266 OFFCURVE",
"184 -266 CURVE SMOOTH"
);
}
);
width = 669;
}
);
unicode = 062D;
},
{
glyphname = "hah-ar.fina";
lastChange = "2015-09-23 01:10:39 +0000";
layers = (
{
anchors = (
{
name = bottom;
position = "{335, -330}";
},
{
name = center;
position = "{378, -120}";
},
{
name = entry;
position = "{671, 48}";
},
{
name = top;
position = "{335, 525}";
}
);
layerId = UUID0;
name = Regular;
paths = (
{
closed = 1;
nodes = (
"240 -266 OFFCURVE",
"251 -226 OFFCURVE",
"251 -226 CURVE SMOOTH",
"251 -226 OFFCURVE",
"175 -178 OFFCURVE",
"175 0 CURVE",
"412 0 LINE SMOOTH",
"456 0 OFFCURVE",
"490 13 OFFCURVE",
"517 34 CURVE",
"547 10 OFFCURVE",
"584 0 OFFCURVE",
"622 0 CURVE SMOOTH",
"691 0 LINE",
"691 96 LINE",
"568 96 LINE",
"597 149 OFFCURVE",
"604 211 OFFCURVE",
"604 242 CURVE SMOOTH",
"604 374 OFFCURVE",
"469 480 OFFCURVE",
"369 480 CURVE SMOOTH",
"352 480 OFFCURVE",
"279 477 OFFCURVE",
"253 477 CURVE SMOOTH",
"159 477 OFFCURVE",
"141 517 OFFCURVE",
"141 517 CURVE SMOOTH",
"141 517 OFFCURVE",
"116 519 OFFCURVE",
"116 480 CURVE SMOOTH",
"116 437 OFFCURVE",
"146 386 OFFCURVE",
"212 386 CURVE SMOOTH",
"310 386 LINE SMOOTH",
"381 386 OFFCURVE",
"474 356 OFFCURVE",
"474 233 CURVE SMOOTH",
"474 154 OFFCURVE",
"436 99 OFFCURVE",
"408 96 CURVE",
"189 96 LINE SMOOTH",
"99 96 OFFCURVE",
"65 18 OFFCURVE",
"65 -72 CURVE SMOOTH",
"65 -147 OFFCURVE",
"89 -266 OFFCURVE",
"184 -266 CURVE SMOOTH"
);
}
);
width = 671;
}
);
unicode = FEA2;
},
{
glyphname = "hah-ar.medi";
lastChange = "2015-09-23 01:10:39 +0000";
layers = (
{
anchors = (
{
name = bottom;
position = "{281, -60}";
},
{
name = entry;
position = "{552, 48}";
},
{
name = exit;
position = "{0, 48}";
},
{
name = top;
position = "{281, 525}";
}
);
layerId = UUID0;
name = Regular;
paths = (
{
closed = 1;
nodes = (
"319 0 LINE SMOOTH",
"363 0 OFFCURVE",
"397 13 OFFCURVE",
"424 34 CURVE",
"454 10 OFFCURVE",
"491 0 OFFCURVE",
"529 0 CURVE SMOOTH",
"572 0 LINE",
"572 96 LINE",
"475 96 LINE",
"504 149 OFFCURVE",
"511 211 OFFCURVE",
"511 242 CURVE SMOOTH",
"511 374 OFFCURVE",
"376 480 OFFCURVE",
"276 480 CURVE SMOOTH",
"259 480 OFFCURVE",
"186 477 OFFCURVE",
"160 477 CURVE SMOOTH",
"66 477 OFFCURVE",
"48 517 OFFCURVE",
"48 517 CURVE SMOOTH",
"48 517 OFFCURVE",
"23 519 OFFCURVE",
"23 480 CURVE SMOOTH",
"23 437 OFFCURVE",
"53 386 OFFCURVE",
"119 386 CURVE SMOOTH",
"217 386 LINE SMOOTH",
"288 386 OFFCURVE",
"381 356 OFFCURVE",
"381 233 CURVE SMOOTH",
"381 154 OFFCURVE",
"343 99 OFFCURVE",
"315 96 CURVE",
"-20 96 LINE",
"-20 0 LINE"
);
}
);
width = 552;
}
);
unicode = FEA4;
},
{
glyphname = "hah-ar.init";
lastChange = "2015-09-23 01:10:39 +0000";
layers = (
{
anchors = (
{
name = bottom;
position = "{281, -60}";
},
{
name = exit;
position = "{0, 48}";
},
{
name = top;
position = "{281, 525}";
}
);
layerId = UUID0;
name = Regular;
paths = (
{
closed = 1;
nodes = (
"319 0 LINE SMOOTH",
"482 0 OFFCURVE",
"511 181 OFFCURVE",
"511 242 CURVE SMOOTH",
"511 374 OFFCURVE",
"376 480 OFFCURVE",
"276 480 CURVE SMOOTH",
"259 480 OFFCURVE",
"186 477 OFFCURVE",
"160 477 CURVE SMOOTH",
"66 477 OFFCURVE",
"48 517 OFFCURVE",
"48 517 CURVE SMOOTH",
"48 517 OFFCURVE",
"23 519 OFFCURVE",
"23 480 CURVE SMOOTH",
"23 437 OFFCURVE",
"53 386 OFFCURVE",
"119 386 CURVE SMOOTH",
"217 386 LINE SMOOTH",
"288 386 OFFCURVE",
"381 356 OFFCURVE",
"381 233 CURVE SMOOTH",
"381 154 OFFCURVE",
"343 99 OFFCURVE",
"315 96 CURVE",
"-20 96 LINE",
"-20 0 LINE"
);
}
);
width = 576;
}
);
unicode = FEA3;
},
{
glyphname = "dal-ar";
lastChange = "2015-09-23 01:10:39 +0000";
layers = (
{
anchors = (
{
name = bottom;
position = "{259, -120}";
},
{
name = top;
position = "{259, 525}";
}
);
layerId = UUID0;
name = Regular;
paths = (
{
closed = 1;
nodes = (
"261 0 LINE SMOOTH",
"421 0 OFFCURVE",
"452 178 OFFCURVE",
"452 249 CURVE SMOOTH",
"452 402 OFFCURVE",
"309 480 OFFCURVE",
"231 480 CURVE SMOOTH",
"192 480 OFFCURVE",
"65 461 OFFCURVE",
"65 367 CURVE SMOOTH",
"65 316 OFFCURVE",
"101 293 OFFCURVE",
"136 293 CURVE SMOOTH",
"163 293 OFFCURVE",
"199 307 OFFCURVE",
"199 307 CURVE",
"199 399 OFFCURVE",
"245 396 OFFCURVE",
"245 396 CURVE SMOOTH",
"245 396 OFFCURVE",
"322 353 OFFCURVE",
"322 241 CURVE SMOOTH",
"322 165 OFFCURVE",
"286 96 OFFCURVE",
"169 96 CURVE SMOOTH",
"107 96 LINE SMOOTH",
"69 96 OFFCURVE",
"65 64 OFFCURVE",
"65 48 CURVE SMOOTH",
"65 32 OFFCURVE",
"69 0 OFFCURVE",
"107 0 CURVE SMOOTH"
);
}
);
width = 517;
}
);
unicode = 062F;
},
{
glyphname = "dal-ar.fina";
lastChange = "2015-09-23 01:10:39 +0000";
layers = (
{
anchors = (
{
name = bottom;
position = "{259, -120}";
},
{
name = entry;
position = "{551, 48}";
},
{
name = top;
position = "{259, 525}";
}
);
layerId = UUID0;
name = Regular;
paths = (
{
closed = 1;
nodes = (
"261 0 LINE SMOOTH",
"302 0 OFFCURVE",
"334 11 OFFCURVE",
"359 30 CURVE",
"388 9 OFFCURVE",
"424 0 OFFCURVE",
"460 0 CURVE SMOOTH",
"571 0 LINE",
"571 95 LINE",
"415 95 LINE",
"444 149 OFFCURVE",
"452 213 OFFCURVE",
"452 249 CURVE SMOOTH",
"452 402 OFFCURVE",
"309 480 OFFCURVE",
"231 480 CURVE SMOOTH",
"192 480 OFFCURVE",
"65 461 OFFCURVE",
"65 367 CURVE SMOOTH",
"65 316 OFFCURVE",
"101 293 OFFCURVE",
"136 293 CURVE SMOOTH",
"163 293 OFFCURVE",
"199 307 OFFCURVE",
"199 307 CURVE",
"199 399 OFFCURVE",
"245 396 OFFCURVE",
"245 396 CURVE SMOOTH",
"245 396 OFFCURVE",
"322 353 OFFCURVE",
"322 241 CURVE SMOOTH",
"322 165 OFFCURVE",
"286 96 OFFCURVE",
"169 96 CURVE SMOOTH",
"107 96 LINE SMOOTH",
"69 96 OFFCURVE",
"65 64 OFFCURVE",
"65 48 CURVE SMOOTH",
"65 32 OFFCURVE",
"69 0 OFFCURVE",
"107 0 CURVE SMOOTH"
);
}
);
width = 551;
}
);
unicode = FEAA;
},
{
glyphname = "reh-ar";
lastChange = "2015-09-23 01:10:40 +0000";
layers = (
{
anchors = (
{
name = bottom;
position = "{210, -330}";
},
{
name = top;
position = "{210, 525}";
}
);
layerId = UUID0;
name = Regular;
paths = (
{
closed = 1;
nodes = (
"253 -229 OFFCURVE",
"275 -107 OFFCURVE",
"275 -48 CURVE SMOOTH",
"275 416 LINE SMOOTH",
"275 456 OFFCURVE",
"248 480 OFFCURVE",
"210 480 CURVE SMOOTH",
"172 480 OFFCURVE",
"145 456 OFFCURVE",
"145 418 CURVE SMOOTH",
"145 -72 LINE SMOOTH",
"145 -119 OFFCURVE",
"102 -133 OFFCURVE",
"66 -133 CURVE SMOOTH",
"6 -133 OFFCURVE",
"-44 -94 OFFCURVE",
"-44 -94 CURVE SMOOTH",
"-44 -94 OFFCURVE",
"-65 -229 OFFCURVE",
"98 -229 CURVE SMOOTH"
);
}
);
width = 340;
}
);
unicode = 0631;
},
{
glyphname = "reh-ar.fina";
lastChange = "2015-09-23 01:10:39 +0000";
layers = (
{
anchors = (
{
name = bottom;
position = "{210, -330}";
},
{
name = entry;
position = "{371, 48}";
},
{
name = top;
position = "{210, 525}";
}
);
layerId = UUID0;
name = Regular;
paths = (
{
closed = 1;
nodes = (
"253 -229 OFFCURVE",
"275 -107 OFFCURVE",
"275 -48 CURVE SMOOTH",
"275 34 LINE",
"305 10 OFFCURVE",
"327 0 OFFCURVE",
"366 0 CURVE SMOOTH",
"391 0 LINE",
"391 96 LINE",
"275 96 LINE",
"275 416 LINE SMOOTH",
"275 456 OFFCURVE",
"248 480 OFFCURVE",
"210 480 CURVE SMOOTH",
"172 480 OFFCURVE",
"145 456 OFFCURVE",
"145 418 CURVE SMOOTH",
"145 -72 LINE SMOOTH",
"145 -119 OFFCURVE",
"102 -133 OFFCURVE",
"66 -133 CURVE SMOOTH",
"6 -133 OFFCURVE",
"-44 -94 OFFCURVE",
"-44 -94 CURVE SMOOTH",
"-44 -94 OFFCURVE",
"-65 -229 OFFCURVE",
"98 -229 CURVE SMOOTH"
);
}
);
width = 371;
}
);
unicode = FEAE;
},
